%TF.GenerationSoftware,KiCad,Pcbnew,(5.1.10-1-10_14)*%
%TF.CreationDate,2021-09-29T23:31:11-07:00*%
%TF.ProjectId,stepper_clock,73746570-7065-4725-9f63-6c6f636b2e6b,rev?*%
%TF.SameCoordinates,Original*%
%TF.FileFunction,Legend,Bot*%
%TF.FilePolarity,Positive*%
%FSLAX46Y46*%
G04 Gerber Fmt 4.6, Leading zero omitted, Abs format (unit mm)*
G04 Created by KiCad (PCBNEW (5.1.10-1-10_14)) date 2021-09-29 23:31:11*
%MOMM*%
%LPD*%
G01*
G04 APERTURE LIST*
%ADD10C,0.150000*%
G04 APERTURE END LIST*
D10*
X27479047Y-70318380D02*
X27479047Y-71032666D01*
X27526666Y-71175523D01*
X27621904Y-71270761D01*
X27764761Y-71318380D01*
X27860000Y-71318380D01*
X26526666Y-71318380D02*
X27002857Y-71318380D01*
X27002857Y-70318380D01*
X25621904Y-71223142D02*
X25669523Y-71270761D01*
X25812380Y-71318380D01*
X25907619Y-71318380D01*
X26050476Y-71270761D01*
X26145714Y-71175523D01*
X26193333Y-71080285D01*
X26240952Y-70889809D01*
X26240952Y-70746952D01*
X26193333Y-70556476D01*
X26145714Y-70461238D01*
X26050476Y-70366000D01*
X25907619Y-70318380D01*
X25812380Y-70318380D01*
X25669523Y-70366000D01*
X25621904Y-70413619D01*
X24907619Y-70318380D02*
X24907619Y-71032666D01*
X24955238Y-71175523D01*
X25050476Y-71270761D01*
X25193333Y-71318380D01*
X25288571Y-71318380D01*
X23955238Y-71318380D02*
X24431428Y-71318380D01*
X24431428Y-70318380D01*
X23050476Y-71223142D02*
X23098095Y-71270761D01*
X23240952Y-71318380D01*
X23336190Y-71318380D01*
X23479047Y-71270761D01*
X23574285Y-71175523D01*
X23621904Y-71080285D01*
X23669523Y-70889809D01*
X23669523Y-70746952D01*
X23621904Y-70556476D01*
X23574285Y-70461238D01*
X23479047Y-70366000D01*
X23336190Y-70318380D01*
X23240952Y-70318380D01*
X23098095Y-70366000D01*
X23050476Y-70413619D01*
X22336190Y-70318380D02*
X22336190Y-71032666D01*
X22383809Y-71175523D01*
X22479047Y-71270761D01*
X22621904Y-71318380D01*
X22717142Y-71318380D01*
X21383809Y-71318380D02*
X21860000Y-71318380D01*
X21860000Y-70318380D01*
X20479047Y-71223142D02*
X20526666Y-71270761D01*
X20669523Y-71318380D01*
X20764761Y-71318380D01*
X20907619Y-71270761D01*
X21002857Y-71175523D01*
X21050476Y-71080285D01*
X21098095Y-70889809D01*
X21098095Y-70746952D01*
X21050476Y-70556476D01*
X21002857Y-70461238D01*
X20907619Y-70366000D01*
X20764761Y-70318380D01*
X20669523Y-70318380D01*
X20526666Y-70366000D01*
X20479047Y-70413619D01*
X19764761Y-70318380D02*
X19764761Y-71032666D01*
X19812380Y-71175523D01*
X19907619Y-71270761D01*
X20050476Y-71318380D01*
X20145714Y-71318380D01*
X18812380Y-71318380D02*
X19288571Y-71318380D01*
X19288571Y-70318380D01*
X17907619Y-71223142D02*
X17955238Y-71270761D01*
X18098095Y-71318380D01*
X18193333Y-71318380D01*
X18336190Y-71270761D01*
X18431428Y-71175523D01*
X18479047Y-71080285D01*
X18526666Y-70889809D01*
X18526666Y-70746952D01*
X18479047Y-70556476D01*
X18431428Y-70461238D01*
X18336190Y-70366000D01*
X18193333Y-70318380D01*
X18098095Y-70318380D01*
X17955238Y-70366000D01*
X17907619Y-70413619D01*
M02*
