M48
; DRILL file {KiCad (5.1.10-1-10_14)} date Wednesday, September 29, 2021 at 11:10:28 PM
; FORMAT={-:-/ absolute / inch / decimal}
; #@! TF.CreationDate,2021-09-29T23:10:28-07:00
; #@! TF.GenerationSoftware,Kicad,Pcbnew,(5.1.10-1-10_14)
FMAT,2
INCH
T1C0.0157
T2C0.0197
T3C0.0295
T4C0.0300
T5C0.0315
T6C0.0394
T7C0.0906
T8C0.0984
T9C0.1181
T10C0.1260
T11C0.0630
%
G90
G05
T1
X0.42Y-0.66
X0.78Y-1.84
X0.9Y-1.74
X0.98Y-0.98
X1.18Y-1.0
X1.18Y-1.22
X1.34Y-1.66
X1.4Y-1.22
X1.46Y-1.22
X1.48Y-1.72
X1.52Y-1.78
X1.56Y-1.22
X1.56Y-1.68
X1.6Y-1.36
X1.66Y-1.22
X1.68Y-1.84
X1.9Y-1.04
X1.9Y-1.84
X2.1055Y-1.1855
X2.18Y-1.22
X2.22Y-1.0
X2.2636Y-1.2236
X2.28Y-0.28
X2.42Y-1.02
X2.44Y-1.6514
X2.54Y-1.2
X2.58Y-1.64
X2.6014Y-1.1214
X2.625Y-1.715
X2.66Y-1.68
X2.72Y-1.14
X2.74Y-1.04
X2.9Y-1.54
X3.025Y-1.845
X3.22Y-1.84
X3.3Y-1.0
X3.46Y-1.24
X3.5Y-1.0
X3.6Y-1.2137
X3.62Y-1.36
X3.7Y-1.68
X3.74Y-1.22
X3.74Y-1.76
X3.76Y-1.36
X3.76Y-1.64
X3.76Y-1.64
X3.9Y-1.84
X4.12Y-1.82
X4.5Y-1.12
X4.62Y-1.2
X4.66Y-1.2
X4.8Y-1.68
X4.85Y-1.37
X4.86Y-1.64
X4.9Y-1.1606
X4.9Y-1.2
X4.98Y-1.68
X5.0Y-1.84
X5.06Y-1.96
X5.18Y-1.84
X5.26Y-0.98
X5.42Y-0.98
X5.56Y-1.02
X5.58Y-1.24
X5.58Y-1.7
X5.7Y-1.64
X5.72Y-1.2
X5.74Y-1.1622
X5.8Y-1.18
X5.82Y-1.64
X5.88Y-1.36
X5.94Y-1.68
X6.06Y-1.18
X6.36Y-1.84
X6.38Y-1.76
X6.44Y-1.84
X6.44Y-1.84
X6.52Y-1.68
X6.56Y-1.72
X6.64Y-2.24
X6.66Y-1.0
X6.66Y-1.18
X6.68Y-2.3
X6.7302Y-2.2498
X6.78Y-2.24
X6.82Y-1.0
X6.82Y-1.2
X6.88Y-1.2
X6.94Y-1.2
X6.94Y-1.54
X7.0Y-1.36
X7.1198Y-1.1002
X7.3391Y-1.0756
X7.38Y-1.02
X7.46Y-0.98
X7.51Y-0.47
X7.51Y-0.51
X7.53Y-1.56
X7.55Y-0.51
X7.6Y-0.74
X7.6Y-1.56
X7.67Y-1.56
X7.675Y-0.675
X7.76Y-0.96
X7.76Y-1.22
X7.86Y-2.32
X7.86Y-2.4
X7.86Y-2.5
X7.86Y-2.78
X7.86Y-2.86
X7.9Y-0.92
X7.908Y-1.209
X7.92Y-1.66
X7.92Y-1.74
X7.94Y-1.0714
X7.94Y-1.8
X7.94Y-2.4
X7.94Y-2.5
X7.94Y-2.86
X7.96Y-1.1886
X8.0Y-1.2
X8.0198Y-1.7002
X8.02Y-1.36
X8.02Y-2.78
X8.02Y-2.86
X8.0299Y-2.0201
X8.04Y-2.08
X8.1Y-1.42
X8.1Y-2.86
X8.14Y-1.2
X8.15Y-1.97
X8.18Y-2.78
X8.18Y-2.86
X8.2335Y-2.01
X8.24Y-1.14
X8.26Y-2.86
X8.28Y-1.2
X8.28Y-1.64
X8.28Y-1.6841
X8.34Y-2.78
X8.34Y-2.86
X8.5Y-1.8486
X8.54Y-1.8486
X8.54Y-2.58
X8.56Y-1.64
X8.56Y-2.74
X8.6Y-1.6663
X8.6Y-1.8486
X8.62Y-1.0
X8.62Y-2.14
X8.66Y-1.68
X8.66Y-1.8486
X8.7Y-2.74
X8.74Y-2.78
X8.75Y-2.14
X8.76Y-1.8486
X8.78Y-1.2
X8.8172Y-1.98
X8.82Y-1.8486
X8.82Y-2.1914
X8.84Y-1.02
X8.86Y-2.22
X8.9Y-2.26
X8.98Y-0.94
X9.0Y-1.87
X9.0Y-1.91
X9.02Y-2.5
X9.04Y-1.0
X9.04Y-1.18
X9.06Y-1.66
X9.08Y-1.18
X9.1Y-1.06
X9.12Y-1.64
X9.12Y-2.5714
X9.16Y-1.12
X9.16Y-2.5714
X9.18Y-1.22
X9.18Y-1.62
X9.2Y-2.12
X9.22Y-2.28
X9.2254Y-1.5949
X9.24Y-2.24
X9.28Y-2.0
X9.32Y-2.0
X9.36Y-1.837
X9.42Y-2.74
X9.48Y-1.6
X9.5Y-2.46
X9.75Y-1.82
X9.75Y-2.07
X9.9Y-1.5
T2
X0.3155Y-0.27
X0.3155Y-2.77
X0.3432Y-0.2032
X0.3432Y-0.3368
X0.3432Y-2.7032
X0.3432Y-2.8368
X0.41Y-0.1755
X0.41Y-0.3645
X0.41Y-2.6755
X0.41Y-2.8645
X0.4768Y-0.2032
X0.4768Y-0.3368
X0.4768Y-2.7032
X0.4768Y-2.8368
X0.5045Y-0.27
X0.5045Y-2.77
X9.6955Y-0.27
X9.6955Y-2.77
X9.7232Y-0.2032
X9.7232Y-0.3368
X9.7232Y-2.7032
X9.7232Y-2.8368
X9.79Y-0.1755
X9.79Y-0.3645
X9.79Y-2.6755
X9.79Y-2.8645
X9.8568Y-0.2032
X9.8568Y-0.3368
X9.8568Y-2.7032
X9.8568Y-2.8368
X9.8845Y-0.27
X9.8845Y-2.77
T3
X0.525Y-0.725
X0.525Y-0.8037
X0.525Y-0.8825
X0.525Y-0.9612
X0.525Y-1.04
X0.525Y-1.45
X0.525Y-1.5287
X0.525Y-1.6075
X0.525Y-1.6862
X0.525Y-1.765
X0.525Y-2.175
X0.525Y-2.2537
X0.525Y-2.3325
X0.525Y-2.4112
X0.525Y-2.49
X0.75Y-2.65
X0.76Y-0.4
X0.8287Y-2.65
X0.8388Y-0.4
X0.9075Y-2.65
X0.9175Y-0.4
X0.9862Y-2.65
X0.9963Y-0.4
X1.065Y-2.65
X1.075Y-0.4
X1.35Y-2.65
X1.36Y-0.4
X1.4287Y-2.65
X1.4388Y-0.4
X1.5075Y-2.65
X1.5175Y-0.4
X1.5862Y-2.65
X1.5963Y-0.4
X1.665Y-2.65
X1.675Y-0.4
X1.95Y-2.65
X1.96Y-0.4
X2.0287Y-2.65
X2.0388Y-0.4
X2.1075Y-2.65
X2.1175Y-0.4
X2.1862Y-2.65
X2.1963Y-0.4
X2.265Y-2.65
X2.275Y-0.4
X2.55Y-2.65
X2.56Y-0.4
X2.6287Y-2.65
X2.6388Y-0.4
X2.7075Y-2.65
X2.7175Y-0.4
X2.7862Y-2.65
X2.7963Y-0.4
X2.865Y-2.65
X2.875Y-0.4
X3.15Y-2.65
X3.16Y-0.4
X3.2287Y-2.65
X3.2388Y-0.4
X3.3075Y-2.65
X3.3175Y-0.4
X3.3862Y-2.65
X3.3963Y-0.4
X3.465Y-2.65
X3.475Y-0.4
X3.75Y-2.65
X3.76Y-0.4
X3.8287Y-2.65
X3.8388Y-0.4
X3.9075Y-2.65
X3.9175Y-0.4
X3.9862Y-2.65
X3.9963Y-0.4
X4.065Y-2.65
X4.075Y-0.4
X4.35Y-2.65
X4.36Y-0.4
X4.4287Y-2.65
X4.4388Y-0.4
X4.5075Y-2.65
X4.5175Y-0.4
X4.5862Y-2.65
X4.5963Y-0.4
X4.665Y-2.65
X4.675Y-0.4
X4.96Y-0.4
X5.0388Y-0.4
X5.1175Y-0.4
X5.1963Y-0.4
X5.275Y-0.4
X5.56Y-0.4
X5.6388Y-0.4
X5.7175Y-0.4
X5.7963Y-0.4
X5.875Y-0.4
X6.16Y-0.4
X6.2388Y-0.4
X6.3175Y-0.4
X6.3963Y-0.4
X6.475Y-0.4
X6.76Y-0.4
X6.8388Y-0.4
X6.9175Y-0.4
X6.9963Y-0.4
X7.075Y-0.4
X7.36Y-0.4
X7.4388Y-0.4
X7.5175Y-0.4
X7.5963Y-0.4
X7.675Y-0.4
X7.96Y-0.4
X8.0388Y-0.4
X8.1175Y-0.4
X8.1963Y-0.4
X8.275Y-0.4
X8.56Y-0.4
X8.6388Y-0.4
X8.7175Y-0.4
X8.7963Y-0.4
X8.875Y-0.4
X9.16Y-0.4
X9.2388Y-0.4
X9.3175Y-0.4
X9.3963Y-0.4
X9.475Y-0.4
X9.675Y-0.71
X9.675Y-0.7888
X9.675Y-0.8675
X9.675Y-0.9463
X9.675Y-1.025
X9.675Y-1.435
X9.675Y-1.5138
X9.675Y-1.5925
X9.675Y-1.6713
X9.675Y-1.75
X9.675Y-2.16
X9.675Y-2.2388
X9.675Y-2.3175
X9.675Y-2.3963
X9.675Y-2.475
T4
X5.0Y-2.31
X5.0Y-2.81
X5.4Y-2.31
X5.4Y-2.81
X5.725Y-2.31
X5.725Y-2.81
X6.125Y-2.31
X6.125Y-2.81
X6.45Y-2.31
X6.45Y-2.81
X6.85Y-2.31
X6.85Y-2.81
T5
X0.825Y-2.275
X0.9234Y-2.275
X0.9766Y-0.675
X1.075Y-0.675
X1.925Y-2.325
X2.0234Y-2.325
X2.0766Y-0.675
X2.175Y-0.675
X3.025Y-2.325
X3.1234Y-2.325
X3.1766Y-0.675
X3.275Y-0.675
X4.125Y-2.3
X4.2234Y-2.3
X4.2766Y-0.675
X4.375Y-0.675
X4.575Y-2.3
X4.6734Y-2.3
X5.3766Y-0.675
X5.475Y-0.675
X6.4766Y-0.675
X6.575Y-0.675
X7.5766Y-0.675
X7.675Y-0.675
X8.6766Y-0.675
X8.775Y-0.675
X8.9766Y-2.175
X9.075Y-2.175
X9.2766Y-0.675
X9.3016Y-2.175
X9.375Y-0.675
X9.4Y-2.175
T6
X6.82Y-1.72
X6.82Y-1.82
X6.82Y-1.92
X6.92Y-1.72
X6.92Y-1.82
X6.92Y-1.92
X7.52Y-2.04
X7.52Y-2.2369
T7
X8.1Y-2.6362
T8
X7.9228Y-2.6756
X8.2772Y-2.6756
T9
X8.1Y-2.4
T10
X0.41Y-0.27
X0.41Y-2.77
X9.79Y-0.27
X9.79Y-2.77
T11
X8.1Y-2.7543
T0
M30
