M48
; DRILL file {KiCad (5.1.10-1-10_14)} date Tuesday, November 16, 2021 at 12:20:29 AM
; FORMAT={-:-/ absolute / metric / decimal}
; #@! TF.CreationDate,2021-11-16T00:20:29-08:00
; #@! TF.GenerationSoftware,Kicad,Pcbnew,(5.1.10-1-10_14)
; #@! TF.FileFunction,Plated,1,2,PTH
FMAT,2
METRIC
T1C0.400
T2C0.500
T3C0.762
T4C0.800
T5C0.950
T6C1.000
T7C2.300
T8C2.500
T9C3.000
T10C3.200
%
G90
G05
T1
X19.812Y-46.736
X29.972Y-25.4
X36.717Y-32.244
X37.592Y-33.147
X37.719Y-40.005
X38.227Y-44.069
X39.878Y-40.513
X40.005Y-34.417
X41.529Y-33.909
X42.496Y-32.942
X42.545Y-34.925
X48.26Y-46.736
X56.388Y-25.4
X60.071Y-31.369
X63.627Y-32.258
X63.754Y-39.116
X65.405Y-33.655
X65.659Y-39.116
X66.294Y-43.942
X67.945Y-40.386
X68.199Y-38.354
X69.342Y-32.922
X70.358Y-38.354
X70.739Y-33.782
X71.628Y-42.805
X73.152Y-33.909
X76.835Y-46.863
X83.82Y-25.4
X88.519Y-38.227
X89.662Y-32.922
X90.551Y-38.227
X91.186Y-40.132
X91.468Y-32.258
X93.091Y-44.196
X93.345Y-33.02
X93.726Y-40.259
X95.25Y-43.688
X95.504Y-31.595
X95.885Y-40.513
X96.139Y-34.036
X97.409Y-38.608
X100.584Y-41.529
X104.648Y-46.228
X116.713Y-31.595
X116.889Y-40.083
X118.618Y-38.481
X120.015Y-32.258
X121.285Y-33.02
X122.555Y-40.132
X124.46Y-34.417
X131.572Y-46.736
X141.224Y-25.908
X143.891Y-29.845
X147.955Y-32.258
X149.225Y-33.02
X149.225Y-41.783
X149.86Y-34.671
X161.544Y-44.831
X162.433Y-42.037
X163.195Y-46.99
X166.68Y-41.756
X168.656Y-56.896
X169.037Y-30.099
X169.164Y-25.4
X169.672Y-58.42
X170.948Y-57.144
X171.361Y-49.53
X172.212Y-56.896
X175.895Y-32.131
X176.276Y-41.275
X176.657Y-73.025
X177.165Y-32.512
X178.562Y-50.292
X178.562Y-66.548
X179.07Y-48.895
X179.748Y-32.512
X179.832Y-43.561
X181.102Y-32.512
X181.356Y-49.022
X197.104Y-24.384
X199.644Y-29.718
X202.184Y-35.56
X203.835Y-32.258
X204.623Y-48.258
X205.105Y-32.258
X205.615Y-48.389
X206.629Y-48.387
X206.629Y-50.292
X207.645Y-48.387
X208.28Y-55.118
X209.779Y-33.934
X210.537Y-39.497
X210.58Y-32.117
X211.088Y-48.373
X211.765Y-41.854
X211.836Y-45.213
X218.059Y-48.006
X219.583Y-48.133
X220.472Y-71.755
X222.123Y-48.26
X224.536Y-25.908
X224.79Y-48.612
X224.79Y-50.392
X227.838Y-41.783
X227.838Y-44.958
X231.126Y-41.924
X232.41Y-41.91
X237.49Y-43.18
X238.633Y-44.577
X238.76Y-41.91
X241.3Y-62.484
X244.475Y-37.211
T2
X7.76Y-71.12
X8.014Y-6.858
X8.463Y-69.423
X8.463Y-72.817
X8.717Y-5.161
X8.717Y-8.555
X10.16Y-68.72
X10.16Y-73.52
X10.414Y-4.458
X10.414Y-9.258
X11.857Y-69.423
X11.857Y-72.817
X12.111Y-5.161
X12.111Y-8.555
X12.56Y-71.12
X12.814Y-6.858
X246.266Y-6.858
X246.266Y-70.358
X246.969Y-5.161
X246.969Y-8.555
X246.969Y-68.661
X246.969Y-72.055
X248.666Y-4.458
X248.666Y-9.258
X248.666Y-67.958
X248.666Y-72.758
X250.363Y-5.161
X250.363Y-8.555
X250.363Y-68.661
X250.363Y-72.055
X251.066Y-6.858
X251.066Y-70.358
T3
X127.0Y-58.674
X127.0Y-71.374
X137.16Y-58.674
X137.16Y-71.374
X145.415Y-58.674
X145.415Y-71.374
X155.575Y-58.674
X155.575Y-71.374
X163.83Y-58.674
X163.83Y-71.374
X173.99Y-58.674
X173.99Y-71.374
T4
X20.955Y-57.785
X23.455Y-57.785
X24.805Y-17.145
X27.305Y-17.145
X48.895Y-59.055
X51.395Y-59.055
X52.745Y-17.145
X55.245Y-17.145
X76.835Y-59.055
X79.335Y-59.055
X80.685Y-17.145
X83.185Y-17.145
X104.775Y-58.42
X107.275Y-58.42
X108.625Y-17.145
X111.125Y-17.145
X116.205Y-58.42
X118.705Y-58.42
X136.565Y-17.145
X139.065Y-17.145
X164.505Y-17.145
X167.005Y-17.145
X192.445Y-17.145
X194.945Y-17.145
X220.385Y-17.145
X222.885Y-17.145
X228.005Y-55.245
X230.505Y-55.245
X235.625Y-17.145
X236.26Y-55.245
X238.125Y-17.145
X238.76Y-55.245
T5
X11.43Y-19.05
X11.43Y-21.55
X11.43Y-24.05
X11.43Y-26.55
X11.43Y-29.05
X11.43Y-35.56
X11.43Y-38.06
X11.43Y-40.56
X11.43Y-43.06
X11.43Y-45.56
X11.43Y-52.07
X11.43Y-54.57
X11.43Y-57.07
X11.43Y-59.57
X11.43Y-62.07
X17.305Y-7.62
X19.05Y-69.85
X19.805Y-7.62
X21.55Y-69.85
X22.305Y-7.62
X24.05Y-69.85
X24.805Y-7.62
X26.55Y-69.85
X27.305Y-7.62
X29.05Y-69.85
X32.545Y-7.62
X34.29Y-69.85
X35.045Y-7.62
X36.79Y-69.85
X37.545Y-7.62
X39.29Y-69.85
X40.045Y-7.62
X41.79Y-69.85
X42.545Y-7.62
X44.29Y-69.85
X47.785Y-7.62
X49.53Y-69.85
X50.285Y-7.62
X52.03Y-69.85
X52.785Y-7.62
X54.53Y-69.85
X55.285Y-7.62
X57.03Y-69.85
X57.785Y-7.62
X59.53Y-69.85
X63.025Y-7.62
X64.77Y-69.85
X65.525Y-7.62
X67.27Y-69.85
X68.025Y-7.62
X69.77Y-69.85
X70.525Y-7.62
X72.27Y-69.85
X73.025Y-7.62
X74.77Y-69.85
X78.265Y-7.62
X80.01Y-69.85
X80.765Y-7.62
X82.51Y-69.85
X83.265Y-7.62
X85.01Y-69.85
X85.765Y-7.62
X87.51Y-69.85
X88.265Y-7.62
X90.01Y-69.85
X93.505Y-7.62
X95.25Y-69.85
X96.005Y-7.62
X97.75Y-69.85
X98.505Y-7.62
X100.25Y-69.85
X101.005Y-7.62
X102.75Y-69.85
X103.505Y-7.62
X105.25Y-69.85
X108.745Y-7.62
X110.49Y-69.85
X111.245Y-7.62
X112.99Y-69.85
X113.745Y-7.62
X115.49Y-69.85
X116.245Y-7.62
X117.99Y-69.85
X118.745Y-7.62
X120.49Y-69.85
X123.985Y-7.62
X126.485Y-7.62
X128.985Y-7.62
X131.485Y-7.62
X133.985Y-7.62
X139.225Y-7.62
X141.725Y-7.62
X144.225Y-7.62
X146.725Y-7.62
X149.225Y-7.62
X154.465Y-7.62
X156.965Y-7.62
X159.465Y-7.62
X161.965Y-7.62
X164.465Y-7.62
X169.705Y-7.62
X172.205Y-7.62
X174.705Y-7.62
X177.205Y-7.62
X179.705Y-7.62
X184.945Y-7.62
X187.445Y-7.62
X189.945Y-7.62
X192.445Y-7.62
X194.945Y-7.62
X200.185Y-7.62
X202.685Y-7.62
X205.185Y-7.62
X207.685Y-7.62
X210.185Y-7.62
X215.425Y-7.62
X217.925Y-7.62
X220.425Y-7.62
X222.925Y-7.62
X225.425Y-7.62
X230.665Y-7.62
X233.165Y-7.62
X235.665Y-7.62
X238.165Y-7.62
X240.665Y-7.62
X247.65Y-17.94
X247.65Y-20.44
X247.65Y-22.94
X247.65Y-25.44
X247.65Y-27.94
X247.65Y-35.72
X247.65Y-38.22
X247.65Y-40.72
X247.65Y-43.22
X247.65Y-45.72
X247.65Y-52.865
X247.65Y-55.365
X247.65Y-57.865
X247.65Y-60.365
X247.65Y-62.865
T6
X173.228Y-43.688
X173.228Y-46.228
X173.228Y-48.768
X175.768Y-43.688
X175.768Y-46.228
X175.768Y-48.768
X191.008Y-51.816
X191.008Y-56.816
T7
X205.74Y-66.96
T8
X201.24Y-67.96
X210.24Y-67.96
T9
X205.74Y-60.96
T10
X10.16Y-71.12
X10.414Y-6.858
X248.666Y-6.858
X248.666Y-70.358
T0
M30
