G04 #@! TF.GenerationSoftware,KiCad,Pcbnew,(5.1.10-1-10_14)*
G04 #@! TF.CreationDate,2021-11-16T00:20:27-08:00*
G04 #@! TF.ProjectId,stepper_clock,73746570-7065-4725-9f63-6c6f636b2e6b,rev?*
G04 #@! TF.SameCoordinates,Original*
G04 #@! TF.FileFunction,Paste,Top*
G04 #@! TF.FilePolarity,Positive*
%FSLAX46Y46*%
G04 Gerber Fmt 4.6, Leading zero omitted, Abs format (unit mm)*
G04 Created by KiCad (PCBNEW (5.1.10-1-10_14)) date 2021-11-16 00:20:27*
%MOMM*%
%LPD*%
G01*
G04 APERTURE LIST*
%ADD10R,2.500000X5.100000*%
%ADD11R,0.550000X1.600000*%
%ADD12R,1.600000X0.550000*%
%ADD13R,2.200000X1.200000*%
%ADD14R,3.050000X2.750000*%
G04 APERTURE END LIST*
G36*
G01*
X224767000Y-69064000D02*
X225067000Y-69064000D01*
G75*
G02*
X225217000Y-69214000I0J-150000D01*
G01*
X225217000Y-70864000D01*
G75*
G02*
X225067000Y-71014000I-150000J0D01*
G01*
X224767000Y-71014000D01*
G75*
G02*
X224617000Y-70864000I0J150000D01*
G01*
X224617000Y-69214000D01*
G75*
G02*
X224767000Y-69064000I150000J0D01*
G01*
G37*
G36*
G01*
X223497000Y-69064000D02*
X223797000Y-69064000D01*
G75*
G02*
X223947000Y-69214000I0J-150000D01*
G01*
X223947000Y-70864000D01*
G75*
G02*
X223797000Y-71014000I-150000J0D01*
G01*
X223497000Y-71014000D01*
G75*
G02*
X223347000Y-70864000I0J150000D01*
G01*
X223347000Y-69214000D01*
G75*
G02*
X223497000Y-69064000I150000J0D01*
G01*
G37*
G36*
G01*
X222227000Y-69064000D02*
X222527000Y-69064000D01*
G75*
G02*
X222677000Y-69214000I0J-150000D01*
G01*
X222677000Y-70864000D01*
G75*
G02*
X222527000Y-71014000I-150000J0D01*
G01*
X222227000Y-71014000D01*
G75*
G02*
X222077000Y-70864000I0J150000D01*
G01*
X222077000Y-69214000D01*
G75*
G02*
X222227000Y-69064000I150000J0D01*
G01*
G37*
G36*
G01*
X220957000Y-69064000D02*
X221257000Y-69064000D01*
G75*
G02*
X221407000Y-69214000I0J-150000D01*
G01*
X221407000Y-70864000D01*
G75*
G02*
X221257000Y-71014000I-150000J0D01*
G01*
X220957000Y-71014000D01*
G75*
G02*
X220807000Y-70864000I0J150000D01*
G01*
X220807000Y-69214000D01*
G75*
G02*
X220957000Y-69064000I150000J0D01*
G01*
G37*
G36*
G01*
X219687000Y-69064000D02*
X219987000Y-69064000D01*
G75*
G02*
X220137000Y-69214000I0J-150000D01*
G01*
X220137000Y-70864000D01*
G75*
G02*
X219987000Y-71014000I-150000J0D01*
G01*
X219687000Y-71014000D01*
G75*
G02*
X219537000Y-70864000I0J150000D01*
G01*
X219537000Y-69214000D01*
G75*
G02*
X219687000Y-69064000I150000J0D01*
G01*
G37*
G36*
G01*
X218417000Y-69064000D02*
X218717000Y-69064000D01*
G75*
G02*
X218867000Y-69214000I0J-150000D01*
G01*
X218867000Y-70864000D01*
G75*
G02*
X218717000Y-71014000I-150000J0D01*
G01*
X218417000Y-71014000D01*
G75*
G02*
X218267000Y-70864000I0J150000D01*
G01*
X218267000Y-69214000D01*
G75*
G02*
X218417000Y-69064000I150000J0D01*
G01*
G37*
G36*
G01*
X217147000Y-69064000D02*
X217447000Y-69064000D01*
G75*
G02*
X217597000Y-69214000I0J-150000D01*
G01*
X217597000Y-70864000D01*
G75*
G02*
X217447000Y-71014000I-150000J0D01*
G01*
X217147000Y-71014000D01*
G75*
G02*
X216997000Y-70864000I0J150000D01*
G01*
X216997000Y-69214000D01*
G75*
G02*
X217147000Y-69064000I150000J0D01*
G01*
G37*
G36*
G01*
X215877000Y-69064000D02*
X216177000Y-69064000D01*
G75*
G02*
X216327000Y-69214000I0J-150000D01*
G01*
X216327000Y-70864000D01*
G75*
G02*
X216177000Y-71014000I-150000J0D01*
G01*
X215877000Y-71014000D01*
G75*
G02*
X215727000Y-70864000I0J150000D01*
G01*
X215727000Y-69214000D01*
G75*
G02*
X215877000Y-69064000I150000J0D01*
G01*
G37*
G36*
G01*
X215877000Y-64114000D02*
X216177000Y-64114000D01*
G75*
G02*
X216327000Y-64264000I0J-150000D01*
G01*
X216327000Y-65914000D01*
G75*
G02*
X216177000Y-66064000I-150000J0D01*
G01*
X215877000Y-66064000D01*
G75*
G02*
X215727000Y-65914000I0J150000D01*
G01*
X215727000Y-64264000D01*
G75*
G02*
X215877000Y-64114000I150000J0D01*
G01*
G37*
G36*
G01*
X217147000Y-64114000D02*
X217447000Y-64114000D01*
G75*
G02*
X217597000Y-64264000I0J-150000D01*
G01*
X217597000Y-65914000D01*
G75*
G02*
X217447000Y-66064000I-150000J0D01*
G01*
X217147000Y-66064000D01*
G75*
G02*
X216997000Y-65914000I0J150000D01*
G01*
X216997000Y-64264000D01*
G75*
G02*
X217147000Y-64114000I150000J0D01*
G01*
G37*
G36*
G01*
X218417000Y-64114000D02*
X218717000Y-64114000D01*
G75*
G02*
X218867000Y-64264000I0J-150000D01*
G01*
X218867000Y-65914000D01*
G75*
G02*
X218717000Y-66064000I-150000J0D01*
G01*
X218417000Y-66064000D01*
G75*
G02*
X218267000Y-65914000I0J150000D01*
G01*
X218267000Y-64264000D01*
G75*
G02*
X218417000Y-64114000I150000J0D01*
G01*
G37*
G36*
G01*
X219687000Y-64114000D02*
X219987000Y-64114000D01*
G75*
G02*
X220137000Y-64264000I0J-150000D01*
G01*
X220137000Y-65914000D01*
G75*
G02*
X219987000Y-66064000I-150000J0D01*
G01*
X219687000Y-66064000D01*
G75*
G02*
X219537000Y-65914000I0J150000D01*
G01*
X219537000Y-64264000D01*
G75*
G02*
X219687000Y-64114000I150000J0D01*
G01*
G37*
G36*
G01*
X220957000Y-64114000D02*
X221257000Y-64114000D01*
G75*
G02*
X221407000Y-64264000I0J-150000D01*
G01*
X221407000Y-65914000D01*
G75*
G02*
X221257000Y-66064000I-150000J0D01*
G01*
X220957000Y-66064000D01*
G75*
G02*
X220807000Y-65914000I0J150000D01*
G01*
X220807000Y-64264000D01*
G75*
G02*
X220957000Y-64114000I150000J0D01*
G01*
G37*
G36*
G01*
X222227000Y-64114000D02*
X222527000Y-64114000D01*
G75*
G02*
X222677000Y-64264000I0J-150000D01*
G01*
X222677000Y-65914000D01*
G75*
G02*
X222527000Y-66064000I-150000J0D01*
G01*
X222227000Y-66064000D01*
G75*
G02*
X222077000Y-65914000I0J150000D01*
G01*
X222077000Y-64264000D01*
G75*
G02*
X222227000Y-64114000I150000J0D01*
G01*
G37*
G36*
G01*
X223497000Y-64114000D02*
X223797000Y-64114000D01*
G75*
G02*
X223947000Y-64264000I0J-150000D01*
G01*
X223947000Y-65914000D01*
G75*
G02*
X223797000Y-66064000I-150000J0D01*
G01*
X223497000Y-66064000D01*
G75*
G02*
X223347000Y-65914000I0J150000D01*
G01*
X223347000Y-64264000D01*
G75*
G02*
X223497000Y-64114000I150000J0D01*
G01*
G37*
G36*
G01*
X224767000Y-64114000D02*
X225067000Y-64114000D01*
G75*
G02*
X225217000Y-64264000I0J-150000D01*
G01*
X225217000Y-65914000D01*
G75*
G02*
X225067000Y-66064000I-150000J0D01*
G01*
X224767000Y-66064000D01*
G75*
G02*
X224617000Y-65914000I0J150000D01*
G01*
X224617000Y-64264000D01*
G75*
G02*
X224767000Y-64114000I150000J0D01*
G01*
G37*
G36*
G01*
X19200000Y-24040000D02*
X18900000Y-24040000D01*
G75*
G02*
X18750000Y-23890000I0J150000D01*
G01*
X18750000Y-22440000D01*
G75*
G02*
X18900000Y-22290000I150000J0D01*
G01*
X19200000Y-22290000D01*
G75*
G02*
X19350000Y-22440000I0J-150000D01*
G01*
X19350000Y-23890000D01*
G75*
G02*
X19200000Y-24040000I-150000J0D01*
G01*
G37*
G36*
G01*
X20470000Y-24040000D02*
X20170000Y-24040000D01*
G75*
G02*
X20020000Y-23890000I0J150000D01*
G01*
X20020000Y-22440000D01*
G75*
G02*
X20170000Y-22290000I150000J0D01*
G01*
X20470000Y-22290000D01*
G75*
G02*
X20620000Y-22440000I0J-150000D01*
G01*
X20620000Y-23890000D01*
G75*
G02*
X20470000Y-24040000I-150000J0D01*
G01*
G37*
G36*
G01*
X21740000Y-24040000D02*
X21440000Y-24040000D01*
G75*
G02*
X21290000Y-23890000I0J150000D01*
G01*
X21290000Y-22440000D01*
G75*
G02*
X21440000Y-22290000I150000J0D01*
G01*
X21740000Y-22290000D01*
G75*
G02*
X21890000Y-22440000I0J-150000D01*
G01*
X21890000Y-23890000D01*
G75*
G02*
X21740000Y-24040000I-150000J0D01*
G01*
G37*
G36*
G01*
X23010000Y-24040000D02*
X22710000Y-24040000D01*
G75*
G02*
X22560000Y-23890000I0J150000D01*
G01*
X22560000Y-22440000D01*
G75*
G02*
X22710000Y-22290000I150000J0D01*
G01*
X23010000Y-22290000D01*
G75*
G02*
X23160000Y-22440000I0J-150000D01*
G01*
X23160000Y-23890000D01*
G75*
G02*
X23010000Y-24040000I-150000J0D01*
G01*
G37*
G36*
G01*
X24280000Y-24040000D02*
X23980000Y-24040000D01*
G75*
G02*
X23830000Y-23890000I0J150000D01*
G01*
X23830000Y-22440000D01*
G75*
G02*
X23980000Y-22290000I150000J0D01*
G01*
X24280000Y-22290000D01*
G75*
G02*
X24430000Y-22440000I0J-150000D01*
G01*
X24430000Y-23890000D01*
G75*
G02*
X24280000Y-24040000I-150000J0D01*
G01*
G37*
G36*
G01*
X25550000Y-24040000D02*
X25250000Y-24040000D01*
G75*
G02*
X25100000Y-23890000I0J150000D01*
G01*
X25100000Y-22440000D01*
G75*
G02*
X25250000Y-22290000I150000J0D01*
G01*
X25550000Y-22290000D01*
G75*
G02*
X25700000Y-22440000I0J-150000D01*
G01*
X25700000Y-23890000D01*
G75*
G02*
X25550000Y-24040000I-150000J0D01*
G01*
G37*
G36*
G01*
X26820000Y-24040000D02*
X26520000Y-24040000D01*
G75*
G02*
X26370000Y-23890000I0J150000D01*
G01*
X26370000Y-22440000D01*
G75*
G02*
X26520000Y-22290000I150000J0D01*
G01*
X26820000Y-22290000D01*
G75*
G02*
X26970000Y-22440000I0J-150000D01*
G01*
X26970000Y-23890000D01*
G75*
G02*
X26820000Y-24040000I-150000J0D01*
G01*
G37*
G36*
G01*
X28090000Y-24040000D02*
X27790000Y-24040000D01*
G75*
G02*
X27640000Y-23890000I0J150000D01*
G01*
X27640000Y-22440000D01*
G75*
G02*
X27790000Y-22290000I150000J0D01*
G01*
X28090000Y-22290000D01*
G75*
G02*
X28240000Y-22440000I0J-150000D01*
G01*
X28240000Y-23890000D01*
G75*
G02*
X28090000Y-24040000I-150000J0D01*
G01*
G37*
G36*
G01*
X29360000Y-24040000D02*
X29060000Y-24040000D01*
G75*
G02*
X28910000Y-23890000I0J150000D01*
G01*
X28910000Y-22440000D01*
G75*
G02*
X29060000Y-22290000I150000J0D01*
G01*
X29360000Y-22290000D01*
G75*
G02*
X29510000Y-22440000I0J-150000D01*
G01*
X29510000Y-23890000D01*
G75*
G02*
X29360000Y-24040000I-150000J0D01*
G01*
G37*
G36*
G01*
X29360000Y-33590000D02*
X29060000Y-33590000D01*
G75*
G02*
X28910000Y-33440000I0J150000D01*
G01*
X28910000Y-31990000D01*
G75*
G02*
X29060000Y-31840000I150000J0D01*
G01*
X29360000Y-31840000D01*
G75*
G02*
X29510000Y-31990000I0J-150000D01*
G01*
X29510000Y-33440000D01*
G75*
G02*
X29360000Y-33590000I-150000J0D01*
G01*
G37*
G36*
G01*
X28090000Y-33590000D02*
X27790000Y-33590000D01*
G75*
G02*
X27640000Y-33440000I0J150000D01*
G01*
X27640000Y-31990000D01*
G75*
G02*
X27790000Y-31840000I150000J0D01*
G01*
X28090000Y-31840000D01*
G75*
G02*
X28240000Y-31990000I0J-150000D01*
G01*
X28240000Y-33440000D01*
G75*
G02*
X28090000Y-33590000I-150000J0D01*
G01*
G37*
G36*
G01*
X26820000Y-33590000D02*
X26520000Y-33590000D01*
G75*
G02*
X26370000Y-33440000I0J150000D01*
G01*
X26370000Y-31990000D01*
G75*
G02*
X26520000Y-31840000I150000J0D01*
G01*
X26820000Y-31840000D01*
G75*
G02*
X26970000Y-31990000I0J-150000D01*
G01*
X26970000Y-33440000D01*
G75*
G02*
X26820000Y-33590000I-150000J0D01*
G01*
G37*
G36*
G01*
X25550000Y-33590000D02*
X25250000Y-33590000D01*
G75*
G02*
X25100000Y-33440000I0J150000D01*
G01*
X25100000Y-31990000D01*
G75*
G02*
X25250000Y-31840000I150000J0D01*
G01*
X25550000Y-31840000D01*
G75*
G02*
X25700000Y-31990000I0J-150000D01*
G01*
X25700000Y-33440000D01*
G75*
G02*
X25550000Y-33590000I-150000J0D01*
G01*
G37*
G36*
G01*
X24280000Y-33590000D02*
X23980000Y-33590000D01*
G75*
G02*
X23830000Y-33440000I0J150000D01*
G01*
X23830000Y-31990000D01*
G75*
G02*
X23980000Y-31840000I150000J0D01*
G01*
X24280000Y-31840000D01*
G75*
G02*
X24430000Y-31990000I0J-150000D01*
G01*
X24430000Y-33440000D01*
G75*
G02*
X24280000Y-33590000I-150000J0D01*
G01*
G37*
G36*
G01*
X23010000Y-33590000D02*
X22710000Y-33590000D01*
G75*
G02*
X22560000Y-33440000I0J150000D01*
G01*
X22560000Y-31990000D01*
G75*
G02*
X22710000Y-31840000I150000J0D01*
G01*
X23010000Y-31840000D01*
G75*
G02*
X23160000Y-31990000I0J-150000D01*
G01*
X23160000Y-33440000D01*
G75*
G02*
X23010000Y-33590000I-150000J0D01*
G01*
G37*
G36*
G01*
X21740000Y-33590000D02*
X21440000Y-33590000D01*
G75*
G02*
X21290000Y-33440000I0J150000D01*
G01*
X21290000Y-31990000D01*
G75*
G02*
X21440000Y-31840000I150000J0D01*
G01*
X21740000Y-31840000D01*
G75*
G02*
X21890000Y-31990000I0J-150000D01*
G01*
X21890000Y-33440000D01*
G75*
G02*
X21740000Y-33590000I-150000J0D01*
G01*
G37*
G36*
G01*
X20470000Y-33590000D02*
X20170000Y-33590000D01*
G75*
G02*
X20020000Y-33440000I0J150000D01*
G01*
X20020000Y-31990000D01*
G75*
G02*
X20170000Y-31840000I150000J0D01*
G01*
X20470000Y-31840000D01*
G75*
G02*
X20620000Y-31990000I0J-150000D01*
G01*
X20620000Y-33440000D01*
G75*
G02*
X20470000Y-33590000I-150000J0D01*
G01*
G37*
G36*
G01*
X19200000Y-33590000D02*
X18900000Y-33590000D01*
G75*
G02*
X18750000Y-33440000I0J150000D01*
G01*
X18750000Y-31990000D01*
G75*
G02*
X18900000Y-31840000I150000J0D01*
G01*
X19200000Y-31840000D01*
G75*
G02*
X19350000Y-31990000I0J-150000D01*
G01*
X19350000Y-33440000D01*
G75*
G02*
X19200000Y-33590000I-150000J0D01*
G01*
G37*
G36*
G01*
X42395000Y-24490000D02*
X42695000Y-24490000D01*
G75*
G02*
X42845000Y-24640000I0J-150000D01*
G01*
X42845000Y-26290000D01*
G75*
G02*
X42695000Y-26440000I-150000J0D01*
G01*
X42395000Y-26440000D01*
G75*
G02*
X42245000Y-26290000I0J150000D01*
G01*
X42245000Y-24640000D01*
G75*
G02*
X42395000Y-24490000I150000J0D01*
G01*
G37*
G36*
G01*
X41125000Y-24490000D02*
X41425000Y-24490000D01*
G75*
G02*
X41575000Y-24640000I0J-150000D01*
G01*
X41575000Y-26290000D01*
G75*
G02*
X41425000Y-26440000I-150000J0D01*
G01*
X41125000Y-26440000D01*
G75*
G02*
X40975000Y-26290000I0J150000D01*
G01*
X40975000Y-24640000D01*
G75*
G02*
X41125000Y-24490000I150000J0D01*
G01*
G37*
G36*
G01*
X39855000Y-24490000D02*
X40155000Y-24490000D01*
G75*
G02*
X40305000Y-24640000I0J-150000D01*
G01*
X40305000Y-26290000D01*
G75*
G02*
X40155000Y-26440000I-150000J0D01*
G01*
X39855000Y-26440000D01*
G75*
G02*
X39705000Y-26290000I0J150000D01*
G01*
X39705000Y-24640000D01*
G75*
G02*
X39855000Y-24490000I150000J0D01*
G01*
G37*
G36*
G01*
X38585000Y-24490000D02*
X38885000Y-24490000D01*
G75*
G02*
X39035000Y-24640000I0J-150000D01*
G01*
X39035000Y-26290000D01*
G75*
G02*
X38885000Y-26440000I-150000J0D01*
G01*
X38585000Y-26440000D01*
G75*
G02*
X38435000Y-26290000I0J150000D01*
G01*
X38435000Y-24640000D01*
G75*
G02*
X38585000Y-24490000I150000J0D01*
G01*
G37*
G36*
G01*
X37315000Y-24490000D02*
X37615000Y-24490000D01*
G75*
G02*
X37765000Y-24640000I0J-150000D01*
G01*
X37765000Y-26290000D01*
G75*
G02*
X37615000Y-26440000I-150000J0D01*
G01*
X37315000Y-26440000D01*
G75*
G02*
X37165000Y-26290000I0J150000D01*
G01*
X37165000Y-24640000D01*
G75*
G02*
X37315000Y-24490000I150000J0D01*
G01*
G37*
G36*
G01*
X36045000Y-24490000D02*
X36345000Y-24490000D01*
G75*
G02*
X36495000Y-24640000I0J-150000D01*
G01*
X36495000Y-26290000D01*
G75*
G02*
X36345000Y-26440000I-150000J0D01*
G01*
X36045000Y-26440000D01*
G75*
G02*
X35895000Y-26290000I0J150000D01*
G01*
X35895000Y-24640000D01*
G75*
G02*
X36045000Y-24490000I150000J0D01*
G01*
G37*
G36*
G01*
X34775000Y-24490000D02*
X35075000Y-24490000D01*
G75*
G02*
X35225000Y-24640000I0J-150000D01*
G01*
X35225000Y-26290000D01*
G75*
G02*
X35075000Y-26440000I-150000J0D01*
G01*
X34775000Y-26440000D01*
G75*
G02*
X34625000Y-26290000I0J150000D01*
G01*
X34625000Y-24640000D01*
G75*
G02*
X34775000Y-24490000I150000J0D01*
G01*
G37*
G36*
G01*
X33505000Y-24490000D02*
X33805000Y-24490000D01*
G75*
G02*
X33955000Y-24640000I0J-150000D01*
G01*
X33955000Y-26290000D01*
G75*
G02*
X33805000Y-26440000I-150000J0D01*
G01*
X33505000Y-26440000D01*
G75*
G02*
X33355000Y-26290000I0J150000D01*
G01*
X33355000Y-24640000D01*
G75*
G02*
X33505000Y-24490000I150000J0D01*
G01*
G37*
G36*
G01*
X33505000Y-29440000D02*
X33805000Y-29440000D01*
G75*
G02*
X33955000Y-29590000I0J-150000D01*
G01*
X33955000Y-31240000D01*
G75*
G02*
X33805000Y-31390000I-150000J0D01*
G01*
X33505000Y-31390000D01*
G75*
G02*
X33355000Y-31240000I0J150000D01*
G01*
X33355000Y-29590000D01*
G75*
G02*
X33505000Y-29440000I150000J0D01*
G01*
G37*
G36*
G01*
X34775000Y-29440000D02*
X35075000Y-29440000D01*
G75*
G02*
X35225000Y-29590000I0J-150000D01*
G01*
X35225000Y-31240000D01*
G75*
G02*
X35075000Y-31390000I-150000J0D01*
G01*
X34775000Y-31390000D01*
G75*
G02*
X34625000Y-31240000I0J150000D01*
G01*
X34625000Y-29590000D01*
G75*
G02*
X34775000Y-29440000I150000J0D01*
G01*
G37*
G36*
G01*
X36045000Y-29440000D02*
X36345000Y-29440000D01*
G75*
G02*
X36495000Y-29590000I0J-150000D01*
G01*
X36495000Y-31240000D01*
G75*
G02*
X36345000Y-31390000I-150000J0D01*
G01*
X36045000Y-31390000D01*
G75*
G02*
X35895000Y-31240000I0J150000D01*
G01*
X35895000Y-29590000D01*
G75*
G02*
X36045000Y-29440000I150000J0D01*
G01*
G37*
G36*
G01*
X37315000Y-29440000D02*
X37615000Y-29440000D01*
G75*
G02*
X37765000Y-29590000I0J-150000D01*
G01*
X37765000Y-31240000D01*
G75*
G02*
X37615000Y-31390000I-150000J0D01*
G01*
X37315000Y-31390000D01*
G75*
G02*
X37165000Y-31240000I0J150000D01*
G01*
X37165000Y-29590000D01*
G75*
G02*
X37315000Y-29440000I150000J0D01*
G01*
G37*
G36*
G01*
X38585000Y-29440000D02*
X38885000Y-29440000D01*
G75*
G02*
X39035000Y-29590000I0J-150000D01*
G01*
X39035000Y-31240000D01*
G75*
G02*
X38885000Y-31390000I-150000J0D01*
G01*
X38585000Y-31390000D01*
G75*
G02*
X38435000Y-31240000I0J150000D01*
G01*
X38435000Y-29590000D01*
G75*
G02*
X38585000Y-29440000I150000J0D01*
G01*
G37*
G36*
G01*
X39855000Y-29440000D02*
X40155000Y-29440000D01*
G75*
G02*
X40305000Y-29590000I0J-150000D01*
G01*
X40305000Y-31240000D01*
G75*
G02*
X40155000Y-31390000I-150000J0D01*
G01*
X39855000Y-31390000D01*
G75*
G02*
X39705000Y-31240000I0J150000D01*
G01*
X39705000Y-29590000D01*
G75*
G02*
X39855000Y-29440000I150000J0D01*
G01*
G37*
G36*
G01*
X41125000Y-29440000D02*
X41425000Y-29440000D01*
G75*
G02*
X41575000Y-29590000I0J-150000D01*
G01*
X41575000Y-31240000D01*
G75*
G02*
X41425000Y-31390000I-150000J0D01*
G01*
X41125000Y-31390000D01*
G75*
G02*
X40975000Y-31240000I0J150000D01*
G01*
X40975000Y-29590000D01*
G75*
G02*
X41125000Y-29440000I150000J0D01*
G01*
G37*
G36*
G01*
X42395000Y-29440000D02*
X42695000Y-29440000D01*
G75*
G02*
X42845000Y-29590000I0J-150000D01*
G01*
X42845000Y-31240000D01*
G75*
G02*
X42695000Y-31390000I-150000J0D01*
G01*
X42395000Y-31390000D01*
G75*
G02*
X42245000Y-31240000I0J150000D01*
G01*
X42245000Y-29590000D01*
G75*
G02*
X42395000Y-29440000I150000J0D01*
G01*
G37*
G36*
G01*
X230020000Y-49465000D02*
X229720000Y-49465000D01*
G75*
G02*
X229570000Y-49315000I0J150000D01*
G01*
X229570000Y-47865000D01*
G75*
G02*
X229720000Y-47715000I150000J0D01*
G01*
X230020000Y-47715000D01*
G75*
G02*
X230170000Y-47865000I0J-150000D01*
G01*
X230170000Y-49315000D01*
G75*
G02*
X230020000Y-49465000I-150000J0D01*
G01*
G37*
G36*
G01*
X231290000Y-49465000D02*
X230990000Y-49465000D01*
G75*
G02*
X230840000Y-49315000I0J150000D01*
G01*
X230840000Y-47865000D01*
G75*
G02*
X230990000Y-47715000I150000J0D01*
G01*
X231290000Y-47715000D01*
G75*
G02*
X231440000Y-47865000I0J-150000D01*
G01*
X231440000Y-49315000D01*
G75*
G02*
X231290000Y-49465000I-150000J0D01*
G01*
G37*
G36*
G01*
X232560000Y-49465000D02*
X232260000Y-49465000D01*
G75*
G02*
X232110000Y-49315000I0J150000D01*
G01*
X232110000Y-47865000D01*
G75*
G02*
X232260000Y-47715000I150000J0D01*
G01*
X232560000Y-47715000D01*
G75*
G02*
X232710000Y-47865000I0J-150000D01*
G01*
X232710000Y-49315000D01*
G75*
G02*
X232560000Y-49465000I-150000J0D01*
G01*
G37*
G36*
G01*
X233830000Y-49465000D02*
X233530000Y-49465000D01*
G75*
G02*
X233380000Y-49315000I0J150000D01*
G01*
X233380000Y-47865000D01*
G75*
G02*
X233530000Y-47715000I150000J0D01*
G01*
X233830000Y-47715000D01*
G75*
G02*
X233980000Y-47865000I0J-150000D01*
G01*
X233980000Y-49315000D01*
G75*
G02*
X233830000Y-49465000I-150000J0D01*
G01*
G37*
G36*
G01*
X235100000Y-49465000D02*
X234800000Y-49465000D01*
G75*
G02*
X234650000Y-49315000I0J150000D01*
G01*
X234650000Y-47865000D01*
G75*
G02*
X234800000Y-47715000I150000J0D01*
G01*
X235100000Y-47715000D01*
G75*
G02*
X235250000Y-47865000I0J-150000D01*
G01*
X235250000Y-49315000D01*
G75*
G02*
X235100000Y-49465000I-150000J0D01*
G01*
G37*
G36*
G01*
X236370000Y-49465000D02*
X236070000Y-49465000D01*
G75*
G02*
X235920000Y-49315000I0J150000D01*
G01*
X235920000Y-47865000D01*
G75*
G02*
X236070000Y-47715000I150000J0D01*
G01*
X236370000Y-47715000D01*
G75*
G02*
X236520000Y-47865000I0J-150000D01*
G01*
X236520000Y-49315000D01*
G75*
G02*
X236370000Y-49465000I-150000J0D01*
G01*
G37*
G36*
G01*
X237640000Y-49465000D02*
X237340000Y-49465000D01*
G75*
G02*
X237190000Y-49315000I0J150000D01*
G01*
X237190000Y-47865000D01*
G75*
G02*
X237340000Y-47715000I150000J0D01*
G01*
X237640000Y-47715000D01*
G75*
G02*
X237790000Y-47865000I0J-150000D01*
G01*
X237790000Y-49315000D01*
G75*
G02*
X237640000Y-49465000I-150000J0D01*
G01*
G37*
G36*
G01*
X238910000Y-49465000D02*
X238610000Y-49465000D01*
G75*
G02*
X238460000Y-49315000I0J150000D01*
G01*
X238460000Y-47865000D01*
G75*
G02*
X238610000Y-47715000I150000J0D01*
G01*
X238910000Y-47715000D01*
G75*
G02*
X239060000Y-47865000I0J-150000D01*
G01*
X239060000Y-49315000D01*
G75*
G02*
X238910000Y-49465000I-150000J0D01*
G01*
G37*
G36*
G01*
X240180000Y-49465000D02*
X239880000Y-49465000D01*
G75*
G02*
X239730000Y-49315000I0J150000D01*
G01*
X239730000Y-47865000D01*
G75*
G02*
X239880000Y-47715000I150000J0D01*
G01*
X240180000Y-47715000D01*
G75*
G02*
X240330000Y-47865000I0J-150000D01*
G01*
X240330000Y-49315000D01*
G75*
G02*
X240180000Y-49465000I-150000J0D01*
G01*
G37*
G36*
G01*
X240180000Y-39915000D02*
X239880000Y-39915000D01*
G75*
G02*
X239730000Y-39765000I0J150000D01*
G01*
X239730000Y-38315000D01*
G75*
G02*
X239880000Y-38165000I150000J0D01*
G01*
X240180000Y-38165000D01*
G75*
G02*
X240330000Y-38315000I0J-150000D01*
G01*
X240330000Y-39765000D01*
G75*
G02*
X240180000Y-39915000I-150000J0D01*
G01*
G37*
G36*
G01*
X238910000Y-39915000D02*
X238610000Y-39915000D01*
G75*
G02*
X238460000Y-39765000I0J150000D01*
G01*
X238460000Y-38315000D01*
G75*
G02*
X238610000Y-38165000I150000J0D01*
G01*
X238910000Y-38165000D01*
G75*
G02*
X239060000Y-38315000I0J-150000D01*
G01*
X239060000Y-39765000D01*
G75*
G02*
X238910000Y-39915000I-150000J0D01*
G01*
G37*
G36*
G01*
X237640000Y-39915000D02*
X237340000Y-39915000D01*
G75*
G02*
X237190000Y-39765000I0J150000D01*
G01*
X237190000Y-38315000D01*
G75*
G02*
X237340000Y-38165000I150000J0D01*
G01*
X237640000Y-38165000D01*
G75*
G02*
X237790000Y-38315000I0J-150000D01*
G01*
X237790000Y-39765000D01*
G75*
G02*
X237640000Y-39915000I-150000J0D01*
G01*
G37*
G36*
G01*
X236370000Y-39915000D02*
X236070000Y-39915000D01*
G75*
G02*
X235920000Y-39765000I0J150000D01*
G01*
X235920000Y-38315000D01*
G75*
G02*
X236070000Y-38165000I150000J0D01*
G01*
X236370000Y-38165000D01*
G75*
G02*
X236520000Y-38315000I0J-150000D01*
G01*
X236520000Y-39765000D01*
G75*
G02*
X236370000Y-39915000I-150000J0D01*
G01*
G37*
G36*
G01*
X235100000Y-39915000D02*
X234800000Y-39915000D01*
G75*
G02*
X234650000Y-39765000I0J150000D01*
G01*
X234650000Y-38315000D01*
G75*
G02*
X234800000Y-38165000I150000J0D01*
G01*
X235100000Y-38165000D01*
G75*
G02*
X235250000Y-38315000I0J-150000D01*
G01*
X235250000Y-39765000D01*
G75*
G02*
X235100000Y-39915000I-150000J0D01*
G01*
G37*
G36*
G01*
X233830000Y-39915000D02*
X233530000Y-39915000D01*
G75*
G02*
X233380000Y-39765000I0J150000D01*
G01*
X233380000Y-38315000D01*
G75*
G02*
X233530000Y-38165000I150000J0D01*
G01*
X233830000Y-38165000D01*
G75*
G02*
X233980000Y-38315000I0J-150000D01*
G01*
X233980000Y-39765000D01*
G75*
G02*
X233830000Y-39915000I-150000J0D01*
G01*
G37*
G36*
G01*
X232560000Y-39915000D02*
X232260000Y-39915000D01*
G75*
G02*
X232110000Y-39765000I0J150000D01*
G01*
X232110000Y-38315000D01*
G75*
G02*
X232260000Y-38165000I150000J0D01*
G01*
X232560000Y-38165000D01*
G75*
G02*
X232710000Y-38315000I0J-150000D01*
G01*
X232710000Y-39765000D01*
G75*
G02*
X232560000Y-39915000I-150000J0D01*
G01*
G37*
G36*
G01*
X231290000Y-39915000D02*
X230990000Y-39915000D01*
G75*
G02*
X230840000Y-39765000I0J150000D01*
G01*
X230840000Y-38315000D01*
G75*
G02*
X230990000Y-38165000I150000J0D01*
G01*
X231290000Y-38165000D01*
G75*
G02*
X231440000Y-38315000I0J-150000D01*
G01*
X231440000Y-39765000D01*
G75*
G02*
X231290000Y-39915000I-150000J0D01*
G01*
G37*
G36*
G01*
X230020000Y-39915000D02*
X229720000Y-39915000D01*
G75*
G02*
X229570000Y-39765000I0J150000D01*
G01*
X229570000Y-38315000D01*
G75*
G02*
X229720000Y-38165000I150000J0D01*
G01*
X230020000Y-38165000D01*
G75*
G02*
X230170000Y-38315000I0J-150000D01*
G01*
X230170000Y-39765000D01*
G75*
G02*
X230020000Y-39915000I-150000J0D01*
G01*
G37*
D10*
X180868000Y-67056000D03*
X196068000Y-67056000D03*
G36*
G01*
X182339000Y-47853000D02*
X181389000Y-47853000D01*
G75*
G02*
X181139000Y-47603000I0J250000D01*
G01*
X181139000Y-46928000D01*
G75*
G02*
X181389000Y-46678000I250000J0D01*
G01*
X182339000Y-46678000D01*
G75*
G02*
X182589000Y-46928000I0J-250000D01*
G01*
X182589000Y-47603000D01*
G75*
G02*
X182339000Y-47853000I-250000J0D01*
G01*
G37*
G36*
G01*
X182339000Y-45778000D02*
X181389000Y-45778000D01*
G75*
G02*
X181139000Y-45528000I0J250000D01*
G01*
X181139000Y-44853000D01*
G75*
G02*
X181389000Y-44603000I250000J0D01*
G01*
X182339000Y-44603000D01*
G75*
G02*
X182589000Y-44853000I0J-250000D01*
G01*
X182589000Y-45528000D01*
G75*
G02*
X182339000Y-45778000I-250000J0D01*
G01*
G37*
G36*
G01*
X181389000Y-40031000D02*
X182339000Y-40031000D01*
G75*
G02*
X182589000Y-40281000I0J-250000D01*
G01*
X182589000Y-40956000D01*
G75*
G02*
X182339000Y-41206000I-250000J0D01*
G01*
X181389000Y-41206000D01*
G75*
G02*
X181139000Y-40956000I0J250000D01*
G01*
X181139000Y-40281000D01*
G75*
G02*
X181389000Y-40031000I250000J0D01*
G01*
G37*
G36*
G01*
X181389000Y-42106000D02*
X182339000Y-42106000D01*
G75*
G02*
X182589000Y-42356000I0J-250000D01*
G01*
X182589000Y-43031000D01*
G75*
G02*
X182339000Y-43281000I-250000J0D01*
G01*
X181389000Y-43281000D01*
G75*
G02*
X181139000Y-43031000I0J250000D01*
G01*
X181139000Y-42356000D01*
G75*
G02*
X181389000Y-42106000I250000J0D01*
G01*
G37*
G36*
G01*
X162840000Y-52799000D02*
X162840000Y-51849000D01*
G75*
G02*
X163090000Y-51599000I250000J0D01*
G01*
X163765000Y-51599000D01*
G75*
G02*
X164015000Y-51849000I0J-250000D01*
G01*
X164015000Y-52799000D01*
G75*
G02*
X163765000Y-53049000I-250000J0D01*
G01*
X163090000Y-53049000D01*
G75*
G02*
X162840000Y-52799000I0J250000D01*
G01*
G37*
G36*
G01*
X164915000Y-52799000D02*
X164915000Y-51849000D01*
G75*
G02*
X165165000Y-51599000I250000J0D01*
G01*
X165840000Y-51599000D01*
G75*
G02*
X166090000Y-51849000I0J-250000D01*
G01*
X166090000Y-52799000D01*
G75*
G02*
X165840000Y-53049000I-250000J0D01*
G01*
X165165000Y-53049000D01*
G75*
G02*
X164915000Y-52799000I0J250000D01*
G01*
G37*
G36*
G01*
X144838000Y-51849000D02*
X144838000Y-52799000D01*
G75*
G02*
X144588000Y-53049000I-250000J0D01*
G01*
X143913000Y-53049000D01*
G75*
G02*
X143663000Y-52799000I0J250000D01*
G01*
X143663000Y-51849000D01*
G75*
G02*
X143913000Y-51599000I250000J0D01*
G01*
X144588000Y-51599000D01*
G75*
G02*
X144838000Y-51849000I0J-250000D01*
G01*
G37*
G36*
G01*
X146913000Y-51849000D02*
X146913000Y-52799000D01*
G75*
G02*
X146663000Y-53049000I-250000J0D01*
G01*
X145988000Y-53049000D01*
G75*
G02*
X145738000Y-52799000I0J250000D01*
G01*
X145738000Y-51849000D01*
G75*
G02*
X145988000Y-51599000I250000J0D01*
G01*
X146663000Y-51599000D01*
G75*
G02*
X146913000Y-51849000I0J-250000D01*
G01*
G37*
G36*
G01*
X181414000Y-58961000D02*
X181414000Y-59911000D01*
G75*
G02*
X181164000Y-60161000I-250000J0D01*
G01*
X180489000Y-60161000D01*
G75*
G02*
X180239000Y-59911000I0J250000D01*
G01*
X180239000Y-58961000D01*
G75*
G02*
X180489000Y-58711000I250000J0D01*
G01*
X181164000Y-58711000D01*
G75*
G02*
X181414000Y-58961000I0J-250000D01*
G01*
G37*
G36*
G01*
X183489000Y-58961000D02*
X183489000Y-59911000D01*
G75*
G02*
X183239000Y-60161000I-250000J0D01*
G01*
X182564000Y-60161000D01*
G75*
G02*
X182314000Y-59911000I0J250000D01*
G01*
X182314000Y-58961000D01*
G75*
G02*
X182564000Y-58711000I250000J0D01*
G01*
X183239000Y-58711000D01*
G75*
G02*
X183489000Y-58961000I0J-250000D01*
G01*
G37*
G36*
G01*
X122835000Y-36670000D02*
X122835000Y-35720000D01*
G75*
G02*
X123085000Y-35470000I250000J0D01*
G01*
X123760000Y-35470000D01*
G75*
G02*
X124010000Y-35720000I0J-250000D01*
G01*
X124010000Y-36670000D01*
G75*
G02*
X123760000Y-36920000I-250000J0D01*
G01*
X123085000Y-36920000D01*
G75*
G02*
X122835000Y-36670000I0J250000D01*
G01*
G37*
G36*
G01*
X124910000Y-36670000D02*
X124910000Y-35720000D01*
G75*
G02*
X125160000Y-35470000I250000J0D01*
G01*
X125835000Y-35470000D01*
G75*
G02*
X126085000Y-35720000I0J-250000D01*
G01*
X126085000Y-36670000D01*
G75*
G02*
X125835000Y-36920000I-250000J0D01*
G01*
X125160000Y-36920000D01*
G75*
G02*
X124910000Y-36670000I0J250000D01*
G01*
G37*
G36*
G01*
X93065000Y-35720000D02*
X93065000Y-36670000D01*
G75*
G02*
X92815000Y-36920000I-250000J0D01*
G01*
X92140000Y-36920000D01*
G75*
G02*
X91890000Y-36670000I0J250000D01*
G01*
X91890000Y-35720000D01*
G75*
G02*
X92140000Y-35470000I250000J0D01*
G01*
X92815000Y-35470000D01*
G75*
G02*
X93065000Y-35720000I0J-250000D01*
G01*
G37*
G36*
G01*
X90990000Y-35720000D02*
X90990000Y-36670000D01*
G75*
G02*
X90740000Y-36920000I-250000J0D01*
G01*
X90065000Y-36920000D01*
G75*
G02*
X89815000Y-36670000I0J250000D01*
G01*
X89815000Y-35720000D01*
G75*
G02*
X90065000Y-35470000I250000J0D01*
G01*
X90740000Y-35470000D01*
G75*
G02*
X90990000Y-35720000I0J-250000D01*
G01*
G37*
G36*
G01*
X69030000Y-36670000D02*
X69030000Y-35720000D01*
G75*
G02*
X69280000Y-35470000I250000J0D01*
G01*
X69955000Y-35470000D01*
G75*
G02*
X70205000Y-35720000I0J-250000D01*
G01*
X70205000Y-36670000D01*
G75*
G02*
X69955000Y-36920000I-250000J0D01*
G01*
X69280000Y-36920000D01*
G75*
G02*
X69030000Y-36670000I0J250000D01*
G01*
G37*
G36*
G01*
X66955000Y-36670000D02*
X66955000Y-35720000D01*
G75*
G02*
X67205000Y-35470000I250000J0D01*
G01*
X67880000Y-35470000D01*
G75*
G02*
X68130000Y-35720000I0J-250000D01*
G01*
X68130000Y-36670000D01*
G75*
G02*
X67880000Y-36920000I-250000J0D01*
G01*
X67205000Y-36920000D01*
G75*
G02*
X66955000Y-36670000I0J250000D01*
G01*
G37*
G36*
G01*
X36010000Y-36670000D02*
X36010000Y-35720000D01*
G75*
G02*
X36260000Y-35470000I250000J0D01*
G01*
X36935000Y-35470000D01*
G75*
G02*
X37185000Y-35720000I0J-250000D01*
G01*
X37185000Y-36670000D01*
G75*
G02*
X36935000Y-36920000I-250000J0D01*
G01*
X36260000Y-36920000D01*
G75*
G02*
X36010000Y-36670000I0J250000D01*
G01*
G37*
G36*
G01*
X33935000Y-36670000D02*
X33935000Y-35720000D01*
G75*
G02*
X34185000Y-35470000I250000J0D01*
G01*
X34860000Y-35470000D01*
G75*
G02*
X35110000Y-35720000I0J-250000D01*
G01*
X35110000Y-36670000D01*
G75*
G02*
X34860000Y-36920000I-250000J0D01*
G01*
X34185000Y-36920000D01*
G75*
G02*
X33935000Y-36670000I0J250000D01*
G01*
G37*
G36*
G01*
X40455000Y-36670000D02*
X40455000Y-35720000D01*
G75*
G02*
X40705000Y-35470000I250000J0D01*
G01*
X41380000Y-35470000D01*
G75*
G02*
X41630000Y-35720000I0J-250000D01*
G01*
X41630000Y-36670000D01*
G75*
G02*
X41380000Y-36920000I-250000J0D01*
G01*
X40705000Y-36920000D01*
G75*
G02*
X40455000Y-36670000I0J250000D01*
G01*
G37*
G36*
G01*
X38380000Y-36670000D02*
X38380000Y-35720000D01*
G75*
G02*
X38630000Y-35470000I250000J0D01*
G01*
X39305000Y-35470000D01*
G75*
G02*
X39555000Y-35720000I0J-250000D01*
G01*
X39555000Y-36670000D01*
G75*
G02*
X39305000Y-36920000I-250000J0D01*
G01*
X38630000Y-36920000D01*
G75*
G02*
X38380000Y-36670000I0J250000D01*
G01*
G37*
G36*
G01*
X63685000Y-35720000D02*
X63685000Y-36670000D01*
G75*
G02*
X63435000Y-36920000I-250000J0D01*
G01*
X62760000Y-36920000D01*
G75*
G02*
X62510000Y-36670000I0J250000D01*
G01*
X62510000Y-35720000D01*
G75*
G02*
X62760000Y-35470000I250000J0D01*
G01*
X63435000Y-35470000D01*
G75*
G02*
X63685000Y-35720000I0J-250000D01*
G01*
G37*
G36*
G01*
X65760000Y-35720000D02*
X65760000Y-36670000D01*
G75*
G02*
X65510000Y-36920000I-250000J0D01*
G01*
X64835000Y-36920000D01*
G75*
G02*
X64585000Y-36670000I0J250000D01*
G01*
X64585000Y-35720000D01*
G75*
G02*
X64835000Y-35470000I250000J0D01*
G01*
X65510000Y-35470000D01*
G75*
G02*
X65760000Y-35720000I0J-250000D01*
G01*
G37*
G36*
G01*
X96970000Y-36670000D02*
X96970000Y-35720000D01*
G75*
G02*
X97220000Y-35470000I250000J0D01*
G01*
X97895000Y-35470000D01*
G75*
G02*
X98145000Y-35720000I0J-250000D01*
G01*
X98145000Y-36670000D01*
G75*
G02*
X97895000Y-36920000I-250000J0D01*
G01*
X97220000Y-36920000D01*
G75*
G02*
X96970000Y-36670000I0J250000D01*
G01*
G37*
G36*
G01*
X94895000Y-36670000D02*
X94895000Y-35720000D01*
G75*
G02*
X95145000Y-35470000I250000J0D01*
G01*
X95820000Y-35470000D01*
G75*
G02*
X96070000Y-35720000I0J-250000D01*
G01*
X96070000Y-36670000D01*
G75*
G02*
X95820000Y-36920000I-250000J0D01*
G01*
X95145000Y-36920000D01*
G75*
G02*
X94895000Y-36670000I0J250000D01*
G01*
G37*
G36*
G01*
X121640000Y-35720000D02*
X121640000Y-36670000D01*
G75*
G02*
X121390000Y-36920000I-250000J0D01*
G01*
X120715000Y-36920000D01*
G75*
G02*
X120465000Y-36670000I0J250000D01*
G01*
X120465000Y-35720000D01*
G75*
G02*
X120715000Y-35470000I250000J0D01*
G01*
X121390000Y-35470000D01*
G75*
G02*
X121640000Y-35720000I0J-250000D01*
G01*
G37*
G36*
G01*
X119565000Y-35720000D02*
X119565000Y-36670000D01*
G75*
G02*
X119315000Y-36920000I-250000J0D01*
G01*
X118640000Y-36920000D01*
G75*
G02*
X118390000Y-36670000I0J250000D01*
G01*
X118390000Y-35720000D01*
G75*
G02*
X118640000Y-35470000I250000J0D01*
G01*
X119315000Y-35470000D01*
G75*
G02*
X119565000Y-35720000I0J-250000D01*
G01*
G37*
G36*
G01*
X150140000Y-36670000D02*
X150140000Y-35720000D01*
G75*
G02*
X150390000Y-35470000I250000J0D01*
G01*
X151065000Y-35470000D01*
G75*
G02*
X151315000Y-35720000I0J-250000D01*
G01*
X151315000Y-36670000D01*
G75*
G02*
X151065000Y-36920000I-250000J0D01*
G01*
X150390000Y-36920000D01*
G75*
G02*
X150140000Y-36670000I0J250000D01*
G01*
G37*
G36*
G01*
X152215000Y-36670000D02*
X152215000Y-35720000D01*
G75*
G02*
X152465000Y-35470000I250000J0D01*
G01*
X153140000Y-35470000D01*
G75*
G02*
X153390000Y-35720000I0J-250000D01*
G01*
X153390000Y-36670000D01*
G75*
G02*
X153140000Y-36920000I-250000J0D01*
G01*
X152465000Y-36920000D01*
G75*
G02*
X152215000Y-36670000I0J250000D01*
G01*
G37*
G36*
G01*
X176885000Y-35720000D02*
X176885000Y-36670000D01*
G75*
G02*
X176635000Y-36920000I-250000J0D01*
G01*
X175960000Y-36920000D01*
G75*
G02*
X175710000Y-36670000I0J250000D01*
G01*
X175710000Y-35720000D01*
G75*
G02*
X175960000Y-35470000I250000J0D01*
G01*
X176635000Y-35470000D01*
G75*
G02*
X176885000Y-35720000I0J-250000D01*
G01*
G37*
G36*
G01*
X174810000Y-35720000D02*
X174810000Y-36670000D01*
G75*
G02*
X174560000Y-36920000I-250000J0D01*
G01*
X173885000Y-36920000D01*
G75*
G02*
X173635000Y-36670000I0J250000D01*
G01*
X173635000Y-35720000D01*
G75*
G02*
X173885000Y-35470000I250000J0D01*
G01*
X174560000Y-35470000D01*
G75*
G02*
X174810000Y-35720000I0J-250000D01*
G01*
G37*
G36*
G01*
X206655000Y-36670000D02*
X206655000Y-35720000D01*
G75*
G02*
X206905000Y-35470000I250000J0D01*
G01*
X207580000Y-35470000D01*
G75*
G02*
X207830000Y-35720000I0J-250000D01*
G01*
X207830000Y-36670000D01*
G75*
G02*
X207580000Y-36920000I-250000J0D01*
G01*
X206905000Y-36920000D01*
G75*
G02*
X206655000Y-36670000I0J250000D01*
G01*
G37*
G36*
G01*
X208730000Y-36670000D02*
X208730000Y-35720000D01*
G75*
G02*
X208980000Y-35470000I250000J0D01*
G01*
X209655000Y-35470000D01*
G75*
G02*
X209905000Y-35720000I0J-250000D01*
G01*
X209905000Y-36670000D01*
G75*
G02*
X209655000Y-36920000I-250000J0D01*
G01*
X208980000Y-36920000D01*
G75*
G02*
X208730000Y-36670000I0J250000D01*
G01*
G37*
G36*
G01*
X222435000Y-51849000D02*
X222435000Y-52799000D01*
G75*
G02*
X222185000Y-53049000I-250000J0D01*
G01*
X221510000Y-53049000D01*
G75*
G02*
X221260000Y-52799000I0J250000D01*
G01*
X221260000Y-51849000D01*
G75*
G02*
X221510000Y-51599000I250000J0D01*
G01*
X222185000Y-51599000D01*
G75*
G02*
X222435000Y-51849000I0J-250000D01*
G01*
G37*
G36*
G01*
X224510000Y-51849000D02*
X224510000Y-52799000D01*
G75*
G02*
X224260000Y-53049000I-250000J0D01*
G01*
X223585000Y-53049000D01*
G75*
G02*
X223335000Y-52799000I0J250000D01*
G01*
X223335000Y-51849000D01*
G75*
G02*
X223585000Y-51599000I250000J0D01*
G01*
X224260000Y-51599000D01*
G75*
G02*
X224510000Y-51849000I0J-250000D01*
G01*
G37*
G36*
G01*
X208730000Y-52799000D02*
X208730000Y-51849000D01*
G75*
G02*
X208980000Y-51599000I250000J0D01*
G01*
X209655000Y-51599000D01*
G75*
G02*
X209905000Y-51849000I0J-250000D01*
G01*
X209905000Y-52799000D01*
G75*
G02*
X209655000Y-53049000I-250000J0D01*
G01*
X208980000Y-53049000D01*
G75*
G02*
X208730000Y-52799000I0J250000D01*
G01*
G37*
G36*
G01*
X206655000Y-52799000D02*
X206655000Y-51849000D01*
G75*
G02*
X206905000Y-51599000I250000J0D01*
G01*
X207580000Y-51599000D01*
G75*
G02*
X207830000Y-51849000I0J-250000D01*
G01*
X207830000Y-52799000D01*
G75*
G02*
X207580000Y-53049000I-250000J0D01*
G01*
X206905000Y-53049000D01*
G75*
G02*
X206655000Y-52799000I0J250000D01*
G01*
G37*
G36*
G01*
X180155000Y-36670000D02*
X180155000Y-35720000D01*
G75*
G02*
X180405000Y-35470000I250000J0D01*
G01*
X181080000Y-35470000D01*
G75*
G02*
X181330000Y-35720000I0J-250000D01*
G01*
X181330000Y-36670000D01*
G75*
G02*
X181080000Y-36920000I-250000J0D01*
G01*
X180405000Y-36920000D01*
G75*
G02*
X180155000Y-36670000I0J250000D01*
G01*
G37*
G36*
G01*
X178080000Y-36670000D02*
X178080000Y-35720000D01*
G75*
G02*
X178330000Y-35470000I250000J0D01*
G01*
X179005000Y-35470000D01*
G75*
G02*
X179255000Y-35720000I0J-250000D01*
G01*
X179255000Y-36670000D01*
G75*
G02*
X179005000Y-36920000I-250000J0D01*
G01*
X178330000Y-36920000D01*
G75*
G02*
X178080000Y-36670000I0J250000D01*
G01*
G37*
G36*
G01*
X143275000Y-36645001D02*
X143275000Y-35744999D01*
G75*
G02*
X143524999Y-35495000I249999J0D01*
G01*
X144225001Y-35495000D01*
G75*
G02*
X144475000Y-35744999I0J-249999D01*
G01*
X144475000Y-36645001D01*
G75*
G02*
X144225001Y-36895000I-249999J0D01*
G01*
X143524999Y-36895000D01*
G75*
G02*
X143275000Y-36645001I0J249999D01*
G01*
G37*
G36*
G01*
X141275000Y-36645001D02*
X141275000Y-35744999D01*
G75*
G02*
X141524999Y-35495000I249999J0D01*
G01*
X142225001Y-35495000D01*
G75*
G02*
X142475000Y-35744999I0J-249999D01*
G01*
X142475000Y-36645001D01*
G75*
G02*
X142225001Y-36895000I-249999J0D01*
G01*
X141524999Y-36895000D01*
G75*
G02*
X141275000Y-36645001I0J249999D01*
G01*
G37*
G36*
G01*
X145720000Y-36645001D02*
X145720000Y-35744999D01*
G75*
G02*
X145969999Y-35495000I249999J0D01*
G01*
X146670001Y-35495000D01*
G75*
G02*
X146920000Y-35744999I0J-249999D01*
G01*
X146920000Y-36645001D01*
G75*
G02*
X146670001Y-36895000I-249999J0D01*
G01*
X145969999Y-36895000D01*
G75*
G02*
X145720000Y-36645001I0J249999D01*
G01*
G37*
G36*
G01*
X147720000Y-36645001D02*
X147720000Y-35744999D01*
G75*
G02*
X147969999Y-35495000I249999J0D01*
G01*
X148670001Y-35495000D01*
G75*
G02*
X148920000Y-35744999I0J-249999D01*
G01*
X148920000Y-36645001D01*
G75*
G02*
X148670001Y-36895000I-249999J0D01*
G01*
X147969999Y-36895000D01*
G75*
G02*
X147720000Y-36645001I0J249999D01*
G01*
G37*
G36*
G01*
X153492000Y-51873999D02*
X153492000Y-52774001D01*
G75*
G02*
X153242001Y-53024000I-249999J0D01*
G01*
X152541999Y-53024000D01*
G75*
G02*
X152292000Y-52774001I0J249999D01*
G01*
X152292000Y-51873999D01*
G75*
G02*
X152541999Y-51624000I249999J0D01*
G01*
X153242001Y-51624000D01*
G75*
G02*
X153492000Y-51873999I0J-249999D01*
G01*
G37*
G36*
G01*
X151492000Y-51873999D02*
X151492000Y-52774001D01*
G75*
G02*
X151242001Y-53024000I-249999J0D01*
G01*
X150541999Y-53024000D01*
G75*
G02*
X150292000Y-52774001I0J249999D01*
G01*
X150292000Y-51873999D01*
G75*
G02*
X150541999Y-51624000I249999J0D01*
G01*
X151242001Y-51624000D01*
G75*
G02*
X151492000Y-51873999I0J-249999D01*
G01*
G37*
D11*
X161030000Y-48700000D03*
X161830000Y-48700000D03*
X162630000Y-48700000D03*
X163430000Y-48700000D03*
X164230000Y-48700000D03*
X165030000Y-48700000D03*
X165830000Y-48700000D03*
X166630000Y-48700000D03*
D12*
X168080000Y-47250000D03*
X168080000Y-46450000D03*
X168080000Y-45650000D03*
X168080000Y-44850000D03*
X168080000Y-44050000D03*
X168080000Y-43250000D03*
X168080000Y-42450000D03*
X168080000Y-41650000D03*
D11*
X166630000Y-40200000D03*
X165830000Y-40200000D03*
X165030000Y-40200000D03*
X164230000Y-40200000D03*
X163430000Y-40200000D03*
X162630000Y-40200000D03*
X161830000Y-40200000D03*
X161030000Y-40200000D03*
D12*
X159580000Y-41650000D03*
X159580000Y-42450000D03*
X159580000Y-43250000D03*
X159580000Y-44050000D03*
X159580000Y-44850000D03*
X159580000Y-45650000D03*
X159580000Y-46450000D03*
X159580000Y-47250000D03*
G36*
G01*
X145565000Y-40825000D02*
X145265000Y-40825000D01*
G75*
G02*
X145115000Y-40675000I0J150000D01*
G01*
X145115000Y-38925000D01*
G75*
G02*
X145265000Y-38775000I150000J0D01*
G01*
X145565000Y-38775000D01*
G75*
G02*
X145715000Y-38925000I0J-150000D01*
G01*
X145715000Y-40675000D01*
G75*
G02*
X145565000Y-40825000I-150000J0D01*
G01*
G37*
G36*
G01*
X146835000Y-40825000D02*
X146535000Y-40825000D01*
G75*
G02*
X146385000Y-40675000I0J150000D01*
G01*
X146385000Y-38925000D01*
G75*
G02*
X146535000Y-38775000I150000J0D01*
G01*
X146835000Y-38775000D01*
G75*
G02*
X146985000Y-38925000I0J-150000D01*
G01*
X146985000Y-40675000D01*
G75*
G02*
X146835000Y-40825000I-150000J0D01*
G01*
G37*
G36*
G01*
X148105000Y-40825000D02*
X147805000Y-40825000D01*
G75*
G02*
X147655000Y-40675000I0J150000D01*
G01*
X147655000Y-38925000D01*
G75*
G02*
X147805000Y-38775000I150000J0D01*
G01*
X148105000Y-38775000D01*
G75*
G02*
X148255000Y-38925000I0J-150000D01*
G01*
X148255000Y-40675000D01*
G75*
G02*
X148105000Y-40825000I-150000J0D01*
G01*
G37*
G36*
G01*
X149375000Y-40825000D02*
X149075000Y-40825000D01*
G75*
G02*
X148925000Y-40675000I0J150000D01*
G01*
X148925000Y-38925000D01*
G75*
G02*
X149075000Y-38775000I150000J0D01*
G01*
X149375000Y-38775000D01*
G75*
G02*
X149525000Y-38925000I0J-150000D01*
G01*
X149525000Y-40675000D01*
G75*
G02*
X149375000Y-40825000I-150000J0D01*
G01*
G37*
G36*
G01*
X150645000Y-40825000D02*
X150345000Y-40825000D01*
G75*
G02*
X150195000Y-40675000I0J150000D01*
G01*
X150195000Y-38925000D01*
G75*
G02*
X150345000Y-38775000I150000J0D01*
G01*
X150645000Y-38775000D01*
G75*
G02*
X150795000Y-38925000I0J-150000D01*
G01*
X150795000Y-40675000D01*
G75*
G02*
X150645000Y-40825000I-150000J0D01*
G01*
G37*
G36*
G01*
X151915000Y-40825000D02*
X151615000Y-40825000D01*
G75*
G02*
X151465000Y-40675000I0J150000D01*
G01*
X151465000Y-38925000D01*
G75*
G02*
X151615000Y-38775000I150000J0D01*
G01*
X151915000Y-38775000D01*
G75*
G02*
X152065000Y-38925000I0J-150000D01*
G01*
X152065000Y-40675000D01*
G75*
G02*
X151915000Y-40825000I-150000J0D01*
G01*
G37*
G36*
G01*
X153185000Y-40825000D02*
X152885000Y-40825000D01*
G75*
G02*
X152735000Y-40675000I0J150000D01*
G01*
X152735000Y-38925000D01*
G75*
G02*
X152885000Y-38775000I150000J0D01*
G01*
X153185000Y-38775000D01*
G75*
G02*
X153335000Y-38925000I0J-150000D01*
G01*
X153335000Y-40675000D01*
G75*
G02*
X153185000Y-40825000I-150000J0D01*
G01*
G37*
G36*
G01*
X154455000Y-40825000D02*
X154155000Y-40825000D01*
G75*
G02*
X154005000Y-40675000I0J150000D01*
G01*
X154005000Y-38925000D01*
G75*
G02*
X154155000Y-38775000I150000J0D01*
G01*
X154455000Y-38775000D01*
G75*
G02*
X154605000Y-38925000I0J-150000D01*
G01*
X154605000Y-40675000D01*
G75*
G02*
X154455000Y-40825000I-150000J0D01*
G01*
G37*
G36*
G01*
X154455000Y-50125000D02*
X154155000Y-50125000D01*
G75*
G02*
X154005000Y-49975000I0J150000D01*
G01*
X154005000Y-48225000D01*
G75*
G02*
X154155000Y-48075000I150000J0D01*
G01*
X154455000Y-48075000D01*
G75*
G02*
X154605000Y-48225000I0J-150000D01*
G01*
X154605000Y-49975000D01*
G75*
G02*
X154455000Y-50125000I-150000J0D01*
G01*
G37*
G36*
G01*
X153185000Y-50125000D02*
X152885000Y-50125000D01*
G75*
G02*
X152735000Y-49975000I0J150000D01*
G01*
X152735000Y-48225000D01*
G75*
G02*
X152885000Y-48075000I150000J0D01*
G01*
X153185000Y-48075000D01*
G75*
G02*
X153335000Y-48225000I0J-150000D01*
G01*
X153335000Y-49975000D01*
G75*
G02*
X153185000Y-50125000I-150000J0D01*
G01*
G37*
G36*
G01*
X151915000Y-50125000D02*
X151615000Y-50125000D01*
G75*
G02*
X151465000Y-49975000I0J150000D01*
G01*
X151465000Y-48225000D01*
G75*
G02*
X151615000Y-48075000I150000J0D01*
G01*
X151915000Y-48075000D01*
G75*
G02*
X152065000Y-48225000I0J-150000D01*
G01*
X152065000Y-49975000D01*
G75*
G02*
X151915000Y-50125000I-150000J0D01*
G01*
G37*
G36*
G01*
X150645000Y-50125000D02*
X150345000Y-50125000D01*
G75*
G02*
X150195000Y-49975000I0J150000D01*
G01*
X150195000Y-48225000D01*
G75*
G02*
X150345000Y-48075000I150000J0D01*
G01*
X150645000Y-48075000D01*
G75*
G02*
X150795000Y-48225000I0J-150000D01*
G01*
X150795000Y-49975000D01*
G75*
G02*
X150645000Y-50125000I-150000J0D01*
G01*
G37*
G36*
G01*
X149375000Y-50125000D02*
X149075000Y-50125000D01*
G75*
G02*
X148925000Y-49975000I0J150000D01*
G01*
X148925000Y-48225000D01*
G75*
G02*
X149075000Y-48075000I150000J0D01*
G01*
X149375000Y-48075000D01*
G75*
G02*
X149525000Y-48225000I0J-150000D01*
G01*
X149525000Y-49975000D01*
G75*
G02*
X149375000Y-50125000I-150000J0D01*
G01*
G37*
G36*
G01*
X148105000Y-50125000D02*
X147805000Y-50125000D01*
G75*
G02*
X147655000Y-49975000I0J150000D01*
G01*
X147655000Y-48225000D01*
G75*
G02*
X147805000Y-48075000I150000J0D01*
G01*
X148105000Y-48075000D01*
G75*
G02*
X148255000Y-48225000I0J-150000D01*
G01*
X148255000Y-49975000D01*
G75*
G02*
X148105000Y-50125000I-150000J0D01*
G01*
G37*
G36*
G01*
X146835000Y-50125000D02*
X146535000Y-50125000D01*
G75*
G02*
X146385000Y-49975000I0J150000D01*
G01*
X146385000Y-48225000D01*
G75*
G02*
X146535000Y-48075000I150000J0D01*
G01*
X146835000Y-48075000D01*
G75*
G02*
X146985000Y-48225000I0J-150000D01*
G01*
X146985000Y-49975000D01*
G75*
G02*
X146835000Y-50125000I-150000J0D01*
G01*
G37*
G36*
G01*
X145565000Y-50125000D02*
X145265000Y-50125000D01*
G75*
G02*
X145115000Y-49975000I0J150000D01*
G01*
X145115000Y-48225000D01*
G75*
G02*
X145265000Y-48075000I150000J0D01*
G01*
X145565000Y-48075000D01*
G75*
G02*
X145715000Y-48225000I0J-150000D01*
G01*
X145715000Y-49975000D01*
G75*
G02*
X145565000Y-50125000I-150000J0D01*
G01*
G37*
D13*
X185284000Y-41408000D03*
X185284000Y-45968000D03*
D14*
X193259000Y-45213000D03*
X189909000Y-42163000D03*
X193259000Y-42163000D03*
X189909000Y-45213000D03*
G36*
G01*
X57000000Y-38800000D02*
X57300000Y-38800000D01*
G75*
G02*
X57450000Y-38950000I0J-150000D01*
G01*
X57450000Y-40400000D01*
G75*
G02*
X57300000Y-40550000I-150000J0D01*
G01*
X57000000Y-40550000D01*
G75*
G02*
X56850000Y-40400000I0J150000D01*
G01*
X56850000Y-38950000D01*
G75*
G02*
X57000000Y-38800000I150000J0D01*
G01*
G37*
G36*
G01*
X55730000Y-38800000D02*
X56030000Y-38800000D01*
G75*
G02*
X56180000Y-38950000I0J-150000D01*
G01*
X56180000Y-40400000D01*
G75*
G02*
X56030000Y-40550000I-150000J0D01*
G01*
X55730000Y-40550000D01*
G75*
G02*
X55580000Y-40400000I0J150000D01*
G01*
X55580000Y-38950000D01*
G75*
G02*
X55730000Y-38800000I150000J0D01*
G01*
G37*
G36*
G01*
X54460000Y-38800000D02*
X54760000Y-38800000D01*
G75*
G02*
X54910000Y-38950000I0J-150000D01*
G01*
X54910000Y-40400000D01*
G75*
G02*
X54760000Y-40550000I-150000J0D01*
G01*
X54460000Y-40550000D01*
G75*
G02*
X54310000Y-40400000I0J150000D01*
G01*
X54310000Y-38950000D01*
G75*
G02*
X54460000Y-38800000I150000J0D01*
G01*
G37*
G36*
G01*
X53190000Y-38800000D02*
X53490000Y-38800000D01*
G75*
G02*
X53640000Y-38950000I0J-150000D01*
G01*
X53640000Y-40400000D01*
G75*
G02*
X53490000Y-40550000I-150000J0D01*
G01*
X53190000Y-40550000D01*
G75*
G02*
X53040000Y-40400000I0J150000D01*
G01*
X53040000Y-38950000D01*
G75*
G02*
X53190000Y-38800000I150000J0D01*
G01*
G37*
G36*
G01*
X51920000Y-38800000D02*
X52220000Y-38800000D01*
G75*
G02*
X52370000Y-38950000I0J-150000D01*
G01*
X52370000Y-40400000D01*
G75*
G02*
X52220000Y-40550000I-150000J0D01*
G01*
X51920000Y-40550000D01*
G75*
G02*
X51770000Y-40400000I0J150000D01*
G01*
X51770000Y-38950000D01*
G75*
G02*
X51920000Y-38800000I150000J0D01*
G01*
G37*
G36*
G01*
X50650000Y-38800000D02*
X50950000Y-38800000D01*
G75*
G02*
X51100000Y-38950000I0J-150000D01*
G01*
X51100000Y-40400000D01*
G75*
G02*
X50950000Y-40550000I-150000J0D01*
G01*
X50650000Y-40550000D01*
G75*
G02*
X50500000Y-40400000I0J150000D01*
G01*
X50500000Y-38950000D01*
G75*
G02*
X50650000Y-38800000I150000J0D01*
G01*
G37*
G36*
G01*
X49380000Y-38800000D02*
X49680000Y-38800000D01*
G75*
G02*
X49830000Y-38950000I0J-150000D01*
G01*
X49830000Y-40400000D01*
G75*
G02*
X49680000Y-40550000I-150000J0D01*
G01*
X49380000Y-40550000D01*
G75*
G02*
X49230000Y-40400000I0J150000D01*
G01*
X49230000Y-38950000D01*
G75*
G02*
X49380000Y-38800000I150000J0D01*
G01*
G37*
G36*
G01*
X48110000Y-38800000D02*
X48410000Y-38800000D01*
G75*
G02*
X48560000Y-38950000I0J-150000D01*
G01*
X48560000Y-40400000D01*
G75*
G02*
X48410000Y-40550000I-150000J0D01*
G01*
X48110000Y-40550000D01*
G75*
G02*
X47960000Y-40400000I0J150000D01*
G01*
X47960000Y-38950000D01*
G75*
G02*
X48110000Y-38800000I150000J0D01*
G01*
G37*
G36*
G01*
X46840000Y-38800000D02*
X47140000Y-38800000D01*
G75*
G02*
X47290000Y-38950000I0J-150000D01*
G01*
X47290000Y-40400000D01*
G75*
G02*
X47140000Y-40550000I-150000J0D01*
G01*
X46840000Y-40550000D01*
G75*
G02*
X46690000Y-40400000I0J150000D01*
G01*
X46690000Y-38950000D01*
G75*
G02*
X46840000Y-38800000I150000J0D01*
G01*
G37*
G36*
G01*
X46840000Y-48350000D02*
X47140000Y-48350000D01*
G75*
G02*
X47290000Y-48500000I0J-150000D01*
G01*
X47290000Y-49950000D01*
G75*
G02*
X47140000Y-50100000I-150000J0D01*
G01*
X46840000Y-50100000D01*
G75*
G02*
X46690000Y-49950000I0J150000D01*
G01*
X46690000Y-48500000D01*
G75*
G02*
X46840000Y-48350000I150000J0D01*
G01*
G37*
G36*
G01*
X48110000Y-48350000D02*
X48410000Y-48350000D01*
G75*
G02*
X48560000Y-48500000I0J-150000D01*
G01*
X48560000Y-49950000D01*
G75*
G02*
X48410000Y-50100000I-150000J0D01*
G01*
X48110000Y-50100000D01*
G75*
G02*
X47960000Y-49950000I0J150000D01*
G01*
X47960000Y-48500000D01*
G75*
G02*
X48110000Y-48350000I150000J0D01*
G01*
G37*
G36*
G01*
X49380000Y-48350000D02*
X49680000Y-48350000D01*
G75*
G02*
X49830000Y-48500000I0J-150000D01*
G01*
X49830000Y-49950000D01*
G75*
G02*
X49680000Y-50100000I-150000J0D01*
G01*
X49380000Y-50100000D01*
G75*
G02*
X49230000Y-49950000I0J150000D01*
G01*
X49230000Y-48500000D01*
G75*
G02*
X49380000Y-48350000I150000J0D01*
G01*
G37*
G36*
G01*
X50650000Y-48350000D02*
X50950000Y-48350000D01*
G75*
G02*
X51100000Y-48500000I0J-150000D01*
G01*
X51100000Y-49950000D01*
G75*
G02*
X50950000Y-50100000I-150000J0D01*
G01*
X50650000Y-50100000D01*
G75*
G02*
X50500000Y-49950000I0J150000D01*
G01*
X50500000Y-48500000D01*
G75*
G02*
X50650000Y-48350000I150000J0D01*
G01*
G37*
G36*
G01*
X51920000Y-48350000D02*
X52220000Y-48350000D01*
G75*
G02*
X52370000Y-48500000I0J-150000D01*
G01*
X52370000Y-49950000D01*
G75*
G02*
X52220000Y-50100000I-150000J0D01*
G01*
X51920000Y-50100000D01*
G75*
G02*
X51770000Y-49950000I0J150000D01*
G01*
X51770000Y-48500000D01*
G75*
G02*
X51920000Y-48350000I150000J0D01*
G01*
G37*
G36*
G01*
X53190000Y-48350000D02*
X53490000Y-48350000D01*
G75*
G02*
X53640000Y-48500000I0J-150000D01*
G01*
X53640000Y-49950000D01*
G75*
G02*
X53490000Y-50100000I-150000J0D01*
G01*
X53190000Y-50100000D01*
G75*
G02*
X53040000Y-49950000I0J150000D01*
G01*
X53040000Y-48500000D01*
G75*
G02*
X53190000Y-48350000I150000J0D01*
G01*
G37*
G36*
G01*
X54460000Y-48350000D02*
X54760000Y-48350000D01*
G75*
G02*
X54910000Y-48500000I0J-150000D01*
G01*
X54910000Y-49950000D01*
G75*
G02*
X54760000Y-50100000I-150000J0D01*
G01*
X54460000Y-50100000D01*
G75*
G02*
X54310000Y-49950000I0J150000D01*
G01*
X54310000Y-48500000D01*
G75*
G02*
X54460000Y-48350000I150000J0D01*
G01*
G37*
G36*
G01*
X55730000Y-48350000D02*
X56030000Y-48350000D01*
G75*
G02*
X56180000Y-48500000I0J-150000D01*
G01*
X56180000Y-49950000D01*
G75*
G02*
X56030000Y-50100000I-150000J0D01*
G01*
X55730000Y-50100000D01*
G75*
G02*
X55580000Y-49950000I0J150000D01*
G01*
X55580000Y-48500000D01*
G75*
G02*
X55730000Y-48350000I150000J0D01*
G01*
G37*
G36*
G01*
X57000000Y-48350000D02*
X57300000Y-48350000D01*
G75*
G02*
X57450000Y-48500000I0J-150000D01*
G01*
X57450000Y-49950000D01*
G75*
G02*
X57300000Y-50100000I-150000J0D01*
G01*
X57000000Y-50100000D01*
G75*
G02*
X56850000Y-49950000I0J150000D01*
G01*
X56850000Y-48500000D01*
G75*
G02*
X57000000Y-48350000I150000J0D01*
G01*
G37*
G36*
G01*
X84940000Y-48350000D02*
X85240000Y-48350000D01*
G75*
G02*
X85390000Y-48500000I0J-150000D01*
G01*
X85390000Y-49950000D01*
G75*
G02*
X85240000Y-50100000I-150000J0D01*
G01*
X84940000Y-50100000D01*
G75*
G02*
X84790000Y-49950000I0J150000D01*
G01*
X84790000Y-48500000D01*
G75*
G02*
X84940000Y-48350000I150000J0D01*
G01*
G37*
G36*
G01*
X83670000Y-48350000D02*
X83970000Y-48350000D01*
G75*
G02*
X84120000Y-48500000I0J-150000D01*
G01*
X84120000Y-49950000D01*
G75*
G02*
X83970000Y-50100000I-150000J0D01*
G01*
X83670000Y-50100000D01*
G75*
G02*
X83520000Y-49950000I0J150000D01*
G01*
X83520000Y-48500000D01*
G75*
G02*
X83670000Y-48350000I150000J0D01*
G01*
G37*
G36*
G01*
X82400000Y-48350000D02*
X82700000Y-48350000D01*
G75*
G02*
X82850000Y-48500000I0J-150000D01*
G01*
X82850000Y-49950000D01*
G75*
G02*
X82700000Y-50100000I-150000J0D01*
G01*
X82400000Y-50100000D01*
G75*
G02*
X82250000Y-49950000I0J150000D01*
G01*
X82250000Y-48500000D01*
G75*
G02*
X82400000Y-48350000I150000J0D01*
G01*
G37*
G36*
G01*
X81130000Y-48350000D02*
X81430000Y-48350000D01*
G75*
G02*
X81580000Y-48500000I0J-150000D01*
G01*
X81580000Y-49950000D01*
G75*
G02*
X81430000Y-50100000I-150000J0D01*
G01*
X81130000Y-50100000D01*
G75*
G02*
X80980000Y-49950000I0J150000D01*
G01*
X80980000Y-48500000D01*
G75*
G02*
X81130000Y-48350000I150000J0D01*
G01*
G37*
G36*
G01*
X79860000Y-48350000D02*
X80160000Y-48350000D01*
G75*
G02*
X80310000Y-48500000I0J-150000D01*
G01*
X80310000Y-49950000D01*
G75*
G02*
X80160000Y-50100000I-150000J0D01*
G01*
X79860000Y-50100000D01*
G75*
G02*
X79710000Y-49950000I0J150000D01*
G01*
X79710000Y-48500000D01*
G75*
G02*
X79860000Y-48350000I150000J0D01*
G01*
G37*
G36*
G01*
X78590000Y-48350000D02*
X78890000Y-48350000D01*
G75*
G02*
X79040000Y-48500000I0J-150000D01*
G01*
X79040000Y-49950000D01*
G75*
G02*
X78890000Y-50100000I-150000J0D01*
G01*
X78590000Y-50100000D01*
G75*
G02*
X78440000Y-49950000I0J150000D01*
G01*
X78440000Y-48500000D01*
G75*
G02*
X78590000Y-48350000I150000J0D01*
G01*
G37*
G36*
G01*
X77320000Y-48350000D02*
X77620000Y-48350000D01*
G75*
G02*
X77770000Y-48500000I0J-150000D01*
G01*
X77770000Y-49950000D01*
G75*
G02*
X77620000Y-50100000I-150000J0D01*
G01*
X77320000Y-50100000D01*
G75*
G02*
X77170000Y-49950000I0J150000D01*
G01*
X77170000Y-48500000D01*
G75*
G02*
X77320000Y-48350000I150000J0D01*
G01*
G37*
G36*
G01*
X76050000Y-48350000D02*
X76350000Y-48350000D01*
G75*
G02*
X76500000Y-48500000I0J-150000D01*
G01*
X76500000Y-49950000D01*
G75*
G02*
X76350000Y-50100000I-150000J0D01*
G01*
X76050000Y-50100000D01*
G75*
G02*
X75900000Y-49950000I0J150000D01*
G01*
X75900000Y-48500000D01*
G75*
G02*
X76050000Y-48350000I150000J0D01*
G01*
G37*
G36*
G01*
X74780000Y-48350000D02*
X75080000Y-48350000D01*
G75*
G02*
X75230000Y-48500000I0J-150000D01*
G01*
X75230000Y-49950000D01*
G75*
G02*
X75080000Y-50100000I-150000J0D01*
G01*
X74780000Y-50100000D01*
G75*
G02*
X74630000Y-49950000I0J150000D01*
G01*
X74630000Y-48500000D01*
G75*
G02*
X74780000Y-48350000I150000J0D01*
G01*
G37*
G36*
G01*
X74780000Y-38800000D02*
X75080000Y-38800000D01*
G75*
G02*
X75230000Y-38950000I0J-150000D01*
G01*
X75230000Y-40400000D01*
G75*
G02*
X75080000Y-40550000I-150000J0D01*
G01*
X74780000Y-40550000D01*
G75*
G02*
X74630000Y-40400000I0J150000D01*
G01*
X74630000Y-38950000D01*
G75*
G02*
X74780000Y-38800000I150000J0D01*
G01*
G37*
G36*
G01*
X76050000Y-38800000D02*
X76350000Y-38800000D01*
G75*
G02*
X76500000Y-38950000I0J-150000D01*
G01*
X76500000Y-40400000D01*
G75*
G02*
X76350000Y-40550000I-150000J0D01*
G01*
X76050000Y-40550000D01*
G75*
G02*
X75900000Y-40400000I0J150000D01*
G01*
X75900000Y-38950000D01*
G75*
G02*
X76050000Y-38800000I150000J0D01*
G01*
G37*
G36*
G01*
X77320000Y-38800000D02*
X77620000Y-38800000D01*
G75*
G02*
X77770000Y-38950000I0J-150000D01*
G01*
X77770000Y-40400000D01*
G75*
G02*
X77620000Y-40550000I-150000J0D01*
G01*
X77320000Y-40550000D01*
G75*
G02*
X77170000Y-40400000I0J150000D01*
G01*
X77170000Y-38950000D01*
G75*
G02*
X77320000Y-38800000I150000J0D01*
G01*
G37*
G36*
G01*
X78590000Y-38800000D02*
X78890000Y-38800000D01*
G75*
G02*
X79040000Y-38950000I0J-150000D01*
G01*
X79040000Y-40400000D01*
G75*
G02*
X78890000Y-40550000I-150000J0D01*
G01*
X78590000Y-40550000D01*
G75*
G02*
X78440000Y-40400000I0J150000D01*
G01*
X78440000Y-38950000D01*
G75*
G02*
X78590000Y-38800000I150000J0D01*
G01*
G37*
G36*
G01*
X79860000Y-38800000D02*
X80160000Y-38800000D01*
G75*
G02*
X80310000Y-38950000I0J-150000D01*
G01*
X80310000Y-40400000D01*
G75*
G02*
X80160000Y-40550000I-150000J0D01*
G01*
X79860000Y-40550000D01*
G75*
G02*
X79710000Y-40400000I0J150000D01*
G01*
X79710000Y-38950000D01*
G75*
G02*
X79860000Y-38800000I150000J0D01*
G01*
G37*
G36*
G01*
X81130000Y-38800000D02*
X81430000Y-38800000D01*
G75*
G02*
X81580000Y-38950000I0J-150000D01*
G01*
X81580000Y-40400000D01*
G75*
G02*
X81430000Y-40550000I-150000J0D01*
G01*
X81130000Y-40550000D01*
G75*
G02*
X80980000Y-40400000I0J150000D01*
G01*
X80980000Y-38950000D01*
G75*
G02*
X81130000Y-38800000I150000J0D01*
G01*
G37*
G36*
G01*
X82400000Y-38800000D02*
X82700000Y-38800000D01*
G75*
G02*
X82850000Y-38950000I0J-150000D01*
G01*
X82850000Y-40400000D01*
G75*
G02*
X82700000Y-40550000I-150000J0D01*
G01*
X82400000Y-40550000D01*
G75*
G02*
X82250000Y-40400000I0J150000D01*
G01*
X82250000Y-38950000D01*
G75*
G02*
X82400000Y-38800000I150000J0D01*
G01*
G37*
G36*
G01*
X83670000Y-38800000D02*
X83970000Y-38800000D01*
G75*
G02*
X84120000Y-38950000I0J-150000D01*
G01*
X84120000Y-40400000D01*
G75*
G02*
X83970000Y-40550000I-150000J0D01*
G01*
X83670000Y-40550000D01*
G75*
G02*
X83520000Y-40400000I0J150000D01*
G01*
X83520000Y-38950000D01*
G75*
G02*
X83670000Y-38800000I150000J0D01*
G01*
G37*
G36*
G01*
X84940000Y-38800000D02*
X85240000Y-38800000D01*
G75*
G02*
X85390000Y-38950000I0J-150000D01*
G01*
X85390000Y-40400000D01*
G75*
G02*
X85240000Y-40550000I-150000J0D01*
G01*
X84940000Y-40550000D01*
G75*
G02*
X84790000Y-40400000I0J150000D01*
G01*
X84790000Y-38950000D01*
G75*
G02*
X84940000Y-38800000I150000J0D01*
G01*
G37*
G36*
G01*
X112880000Y-48350000D02*
X113180000Y-48350000D01*
G75*
G02*
X113330000Y-48500000I0J-150000D01*
G01*
X113330000Y-49950000D01*
G75*
G02*
X113180000Y-50100000I-150000J0D01*
G01*
X112880000Y-50100000D01*
G75*
G02*
X112730000Y-49950000I0J150000D01*
G01*
X112730000Y-48500000D01*
G75*
G02*
X112880000Y-48350000I150000J0D01*
G01*
G37*
G36*
G01*
X111610000Y-48350000D02*
X111910000Y-48350000D01*
G75*
G02*
X112060000Y-48500000I0J-150000D01*
G01*
X112060000Y-49950000D01*
G75*
G02*
X111910000Y-50100000I-150000J0D01*
G01*
X111610000Y-50100000D01*
G75*
G02*
X111460000Y-49950000I0J150000D01*
G01*
X111460000Y-48500000D01*
G75*
G02*
X111610000Y-48350000I150000J0D01*
G01*
G37*
G36*
G01*
X110340000Y-48350000D02*
X110640000Y-48350000D01*
G75*
G02*
X110790000Y-48500000I0J-150000D01*
G01*
X110790000Y-49950000D01*
G75*
G02*
X110640000Y-50100000I-150000J0D01*
G01*
X110340000Y-50100000D01*
G75*
G02*
X110190000Y-49950000I0J150000D01*
G01*
X110190000Y-48500000D01*
G75*
G02*
X110340000Y-48350000I150000J0D01*
G01*
G37*
G36*
G01*
X109070000Y-48350000D02*
X109370000Y-48350000D01*
G75*
G02*
X109520000Y-48500000I0J-150000D01*
G01*
X109520000Y-49950000D01*
G75*
G02*
X109370000Y-50100000I-150000J0D01*
G01*
X109070000Y-50100000D01*
G75*
G02*
X108920000Y-49950000I0J150000D01*
G01*
X108920000Y-48500000D01*
G75*
G02*
X109070000Y-48350000I150000J0D01*
G01*
G37*
G36*
G01*
X107800000Y-48350000D02*
X108100000Y-48350000D01*
G75*
G02*
X108250000Y-48500000I0J-150000D01*
G01*
X108250000Y-49950000D01*
G75*
G02*
X108100000Y-50100000I-150000J0D01*
G01*
X107800000Y-50100000D01*
G75*
G02*
X107650000Y-49950000I0J150000D01*
G01*
X107650000Y-48500000D01*
G75*
G02*
X107800000Y-48350000I150000J0D01*
G01*
G37*
G36*
G01*
X106530000Y-48350000D02*
X106830000Y-48350000D01*
G75*
G02*
X106980000Y-48500000I0J-150000D01*
G01*
X106980000Y-49950000D01*
G75*
G02*
X106830000Y-50100000I-150000J0D01*
G01*
X106530000Y-50100000D01*
G75*
G02*
X106380000Y-49950000I0J150000D01*
G01*
X106380000Y-48500000D01*
G75*
G02*
X106530000Y-48350000I150000J0D01*
G01*
G37*
G36*
G01*
X105260000Y-48350000D02*
X105560000Y-48350000D01*
G75*
G02*
X105710000Y-48500000I0J-150000D01*
G01*
X105710000Y-49950000D01*
G75*
G02*
X105560000Y-50100000I-150000J0D01*
G01*
X105260000Y-50100000D01*
G75*
G02*
X105110000Y-49950000I0J150000D01*
G01*
X105110000Y-48500000D01*
G75*
G02*
X105260000Y-48350000I150000J0D01*
G01*
G37*
G36*
G01*
X103990000Y-48350000D02*
X104290000Y-48350000D01*
G75*
G02*
X104440000Y-48500000I0J-150000D01*
G01*
X104440000Y-49950000D01*
G75*
G02*
X104290000Y-50100000I-150000J0D01*
G01*
X103990000Y-50100000D01*
G75*
G02*
X103840000Y-49950000I0J150000D01*
G01*
X103840000Y-48500000D01*
G75*
G02*
X103990000Y-48350000I150000J0D01*
G01*
G37*
G36*
G01*
X102720000Y-48350000D02*
X103020000Y-48350000D01*
G75*
G02*
X103170000Y-48500000I0J-150000D01*
G01*
X103170000Y-49950000D01*
G75*
G02*
X103020000Y-50100000I-150000J0D01*
G01*
X102720000Y-50100000D01*
G75*
G02*
X102570000Y-49950000I0J150000D01*
G01*
X102570000Y-48500000D01*
G75*
G02*
X102720000Y-48350000I150000J0D01*
G01*
G37*
G36*
G01*
X102720000Y-38800000D02*
X103020000Y-38800000D01*
G75*
G02*
X103170000Y-38950000I0J-150000D01*
G01*
X103170000Y-40400000D01*
G75*
G02*
X103020000Y-40550000I-150000J0D01*
G01*
X102720000Y-40550000D01*
G75*
G02*
X102570000Y-40400000I0J150000D01*
G01*
X102570000Y-38950000D01*
G75*
G02*
X102720000Y-38800000I150000J0D01*
G01*
G37*
G36*
G01*
X103990000Y-38800000D02*
X104290000Y-38800000D01*
G75*
G02*
X104440000Y-38950000I0J-150000D01*
G01*
X104440000Y-40400000D01*
G75*
G02*
X104290000Y-40550000I-150000J0D01*
G01*
X103990000Y-40550000D01*
G75*
G02*
X103840000Y-40400000I0J150000D01*
G01*
X103840000Y-38950000D01*
G75*
G02*
X103990000Y-38800000I150000J0D01*
G01*
G37*
G36*
G01*
X105260000Y-38800000D02*
X105560000Y-38800000D01*
G75*
G02*
X105710000Y-38950000I0J-150000D01*
G01*
X105710000Y-40400000D01*
G75*
G02*
X105560000Y-40550000I-150000J0D01*
G01*
X105260000Y-40550000D01*
G75*
G02*
X105110000Y-40400000I0J150000D01*
G01*
X105110000Y-38950000D01*
G75*
G02*
X105260000Y-38800000I150000J0D01*
G01*
G37*
G36*
G01*
X106530000Y-38800000D02*
X106830000Y-38800000D01*
G75*
G02*
X106980000Y-38950000I0J-150000D01*
G01*
X106980000Y-40400000D01*
G75*
G02*
X106830000Y-40550000I-150000J0D01*
G01*
X106530000Y-40550000D01*
G75*
G02*
X106380000Y-40400000I0J150000D01*
G01*
X106380000Y-38950000D01*
G75*
G02*
X106530000Y-38800000I150000J0D01*
G01*
G37*
G36*
G01*
X107800000Y-38800000D02*
X108100000Y-38800000D01*
G75*
G02*
X108250000Y-38950000I0J-150000D01*
G01*
X108250000Y-40400000D01*
G75*
G02*
X108100000Y-40550000I-150000J0D01*
G01*
X107800000Y-40550000D01*
G75*
G02*
X107650000Y-40400000I0J150000D01*
G01*
X107650000Y-38950000D01*
G75*
G02*
X107800000Y-38800000I150000J0D01*
G01*
G37*
G36*
G01*
X109070000Y-38800000D02*
X109370000Y-38800000D01*
G75*
G02*
X109520000Y-38950000I0J-150000D01*
G01*
X109520000Y-40400000D01*
G75*
G02*
X109370000Y-40550000I-150000J0D01*
G01*
X109070000Y-40550000D01*
G75*
G02*
X108920000Y-40400000I0J150000D01*
G01*
X108920000Y-38950000D01*
G75*
G02*
X109070000Y-38800000I150000J0D01*
G01*
G37*
G36*
G01*
X110340000Y-38800000D02*
X110640000Y-38800000D01*
G75*
G02*
X110790000Y-38950000I0J-150000D01*
G01*
X110790000Y-40400000D01*
G75*
G02*
X110640000Y-40550000I-150000J0D01*
G01*
X110340000Y-40550000D01*
G75*
G02*
X110190000Y-40400000I0J150000D01*
G01*
X110190000Y-38950000D01*
G75*
G02*
X110340000Y-38800000I150000J0D01*
G01*
G37*
G36*
G01*
X111610000Y-38800000D02*
X111910000Y-38800000D01*
G75*
G02*
X112060000Y-38950000I0J-150000D01*
G01*
X112060000Y-40400000D01*
G75*
G02*
X111910000Y-40550000I-150000J0D01*
G01*
X111610000Y-40550000D01*
G75*
G02*
X111460000Y-40400000I0J150000D01*
G01*
X111460000Y-38950000D01*
G75*
G02*
X111610000Y-38800000I150000J0D01*
G01*
G37*
G36*
G01*
X112880000Y-38800000D02*
X113180000Y-38800000D01*
G75*
G02*
X113330000Y-38950000I0J-150000D01*
G01*
X113330000Y-40400000D01*
G75*
G02*
X113180000Y-40550000I-150000J0D01*
G01*
X112880000Y-40550000D01*
G75*
G02*
X112730000Y-40400000I0J150000D01*
G01*
X112730000Y-38950000D01*
G75*
G02*
X112880000Y-38800000I150000J0D01*
G01*
G37*
G36*
G01*
X140820000Y-48350000D02*
X141120000Y-48350000D01*
G75*
G02*
X141270000Y-48500000I0J-150000D01*
G01*
X141270000Y-49950000D01*
G75*
G02*
X141120000Y-50100000I-150000J0D01*
G01*
X140820000Y-50100000D01*
G75*
G02*
X140670000Y-49950000I0J150000D01*
G01*
X140670000Y-48500000D01*
G75*
G02*
X140820000Y-48350000I150000J0D01*
G01*
G37*
G36*
G01*
X139550000Y-48350000D02*
X139850000Y-48350000D01*
G75*
G02*
X140000000Y-48500000I0J-150000D01*
G01*
X140000000Y-49950000D01*
G75*
G02*
X139850000Y-50100000I-150000J0D01*
G01*
X139550000Y-50100000D01*
G75*
G02*
X139400000Y-49950000I0J150000D01*
G01*
X139400000Y-48500000D01*
G75*
G02*
X139550000Y-48350000I150000J0D01*
G01*
G37*
G36*
G01*
X138280000Y-48350000D02*
X138580000Y-48350000D01*
G75*
G02*
X138730000Y-48500000I0J-150000D01*
G01*
X138730000Y-49950000D01*
G75*
G02*
X138580000Y-50100000I-150000J0D01*
G01*
X138280000Y-50100000D01*
G75*
G02*
X138130000Y-49950000I0J150000D01*
G01*
X138130000Y-48500000D01*
G75*
G02*
X138280000Y-48350000I150000J0D01*
G01*
G37*
G36*
G01*
X137010000Y-48350000D02*
X137310000Y-48350000D01*
G75*
G02*
X137460000Y-48500000I0J-150000D01*
G01*
X137460000Y-49950000D01*
G75*
G02*
X137310000Y-50100000I-150000J0D01*
G01*
X137010000Y-50100000D01*
G75*
G02*
X136860000Y-49950000I0J150000D01*
G01*
X136860000Y-48500000D01*
G75*
G02*
X137010000Y-48350000I150000J0D01*
G01*
G37*
G36*
G01*
X135740000Y-48350000D02*
X136040000Y-48350000D01*
G75*
G02*
X136190000Y-48500000I0J-150000D01*
G01*
X136190000Y-49950000D01*
G75*
G02*
X136040000Y-50100000I-150000J0D01*
G01*
X135740000Y-50100000D01*
G75*
G02*
X135590000Y-49950000I0J150000D01*
G01*
X135590000Y-48500000D01*
G75*
G02*
X135740000Y-48350000I150000J0D01*
G01*
G37*
G36*
G01*
X134470000Y-48350000D02*
X134770000Y-48350000D01*
G75*
G02*
X134920000Y-48500000I0J-150000D01*
G01*
X134920000Y-49950000D01*
G75*
G02*
X134770000Y-50100000I-150000J0D01*
G01*
X134470000Y-50100000D01*
G75*
G02*
X134320000Y-49950000I0J150000D01*
G01*
X134320000Y-48500000D01*
G75*
G02*
X134470000Y-48350000I150000J0D01*
G01*
G37*
G36*
G01*
X133200000Y-48350000D02*
X133500000Y-48350000D01*
G75*
G02*
X133650000Y-48500000I0J-150000D01*
G01*
X133650000Y-49950000D01*
G75*
G02*
X133500000Y-50100000I-150000J0D01*
G01*
X133200000Y-50100000D01*
G75*
G02*
X133050000Y-49950000I0J150000D01*
G01*
X133050000Y-48500000D01*
G75*
G02*
X133200000Y-48350000I150000J0D01*
G01*
G37*
G36*
G01*
X131930000Y-48350000D02*
X132230000Y-48350000D01*
G75*
G02*
X132380000Y-48500000I0J-150000D01*
G01*
X132380000Y-49950000D01*
G75*
G02*
X132230000Y-50100000I-150000J0D01*
G01*
X131930000Y-50100000D01*
G75*
G02*
X131780000Y-49950000I0J150000D01*
G01*
X131780000Y-48500000D01*
G75*
G02*
X131930000Y-48350000I150000J0D01*
G01*
G37*
G36*
G01*
X130660000Y-48350000D02*
X130960000Y-48350000D01*
G75*
G02*
X131110000Y-48500000I0J-150000D01*
G01*
X131110000Y-49950000D01*
G75*
G02*
X130960000Y-50100000I-150000J0D01*
G01*
X130660000Y-50100000D01*
G75*
G02*
X130510000Y-49950000I0J150000D01*
G01*
X130510000Y-48500000D01*
G75*
G02*
X130660000Y-48350000I150000J0D01*
G01*
G37*
G36*
G01*
X130660000Y-38800000D02*
X130960000Y-38800000D01*
G75*
G02*
X131110000Y-38950000I0J-150000D01*
G01*
X131110000Y-40400000D01*
G75*
G02*
X130960000Y-40550000I-150000J0D01*
G01*
X130660000Y-40550000D01*
G75*
G02*
X130510000Y-40400000I0J150000D01*
G01*
X130510000Y-38950000D01*
G75*
G02*
X130660000Y-38800000I150000J0D01*
G01*
G37*
G36*
G01*
X131930000Y-38800000D02*
X132230000Y-38800000D01*
G75*
G02*
X132380000Y-38950000I0J-150000D01*
G01*
X132380000Y-40400000D01*
G75*
G02*
X132230000Y-40550000I-150000J0D01*
G01*
X131930000Y-40550000D01*
G75*
G02*
X131780000Y-40400000I0J150000D01*
G01*
X131780000Y-38950000D01*
G75*
G02*
X131930000Y-38800000I150000J0D01*
G01*
G37*
G36*
G01*
X133200000Y-38800000D02*
X133500000Y-38800000D01*
G75*
G02*
X133650000Y-38950000I0J-150000D01*
G01*
X133650000Y-40400000D01*
G75*
G02*
X133500000Y-40550000I-150000J0D01*
G01*
X133200000Y-40550000D01*
G75*
G02*
X133050000Y-40400000I0J150000D01*
G01*
X133050000Y-38950000D01*
G75*
G02*
X133200000Y-38800000I150000J0D01*
G01*
G37*
G36*
G01*
X134470000Y-38800000D02*
X134770000Y-38800000D01*
G75*
G02*
X134920000Y-38950000I0J-150000D01*
G01*
X134920000Y-40400000D01*
G75*
G02*
X134770000Y-40550000I-150000J0D01*
G01*
X134470000Y-40550000D01*
G75*
G02*
X134320000Y-40400000I0J150000D01*
G01*
X134320000Y-38950000D01*
G75*
G02*
X134470000Y-38800000I150000J0D01*
G01*
G37*
G36*
G01*
X135740000Y-38800000D02*
X136040000Y-38800000D01*
G75*
G02*
X136190000Y-38950000I0J-150000D01*
G01*
X136190000Y-40400000D01*
G75*
G02*
X136040000Y-40550000I-150000J0D01*
G01*
X135740000Y-40550000D01*
G75*
G02*
X135590000Y-40400000I0J150000D01*
G01*
X135590000Y-38950000D01*
G75*
G02*
X135740000Y-38800000I150000J0D01*
G01*
G37*
G36*
G01*
X137010000Y-38800000D02*
X137310000Y-38800000D01*
G75*
G02*
X137460000Y-38950000I0J-150000D01*
G01*
X137460000Y-40400000D01*
G75*
G02*
X137310000Y-40550000I-150000J0D01*
G01*
X137010000Y-40550000D01*
G75*
G02*
X136860000Y-40400000I0J150000D01*
G01*
X136860000Y-38950000D01*
G75*
G02*
X137010000Y-38800000I150000J0D01*
G01*
G37*
G36*
G01*
X138280000Y-38800000D02*
X138580000Y-38800000D01*
G75*
G02*
X138730000Y-38950000I0J-150000D01*
G01*
X138730000Y-40400000D01*
G75*
G02*
X138580000Y-40550000I-150000J0D01*
G01*
X138280000Y-40550000D01*
G75*
G02*
X138130000Y-40400000I0J150000D01*
G01*
X138130000Y-38950000D01*
G75*
G02*
X138280000Y-38800000I150000J0D01*
G01*
G37*
G36*
G01*
X139550000Y-38800000D02*
X139850000Y-38800000D01*
G75*
G02*
X140000000Y-38950000I0J-150000D01*
G01*
X140000000Y-40400000D01*
G75*
G02*
X139850000Y-40550000I-150000J0D01*
G01*
X139550000Y-40550000D01*
G75*
G02*
X139400000Y-40400000I0J150000D01*
G01*
X139400000Y-38950000D01*
G75*
G02*
X139550000Y-38800000I150000J0D01*
G01*
G37*
G36*
G01*
X140820000Y-38800000D02*
X141120000Y-38800000D01*
G75*
G02*
X141270000Y-38950000I0J-150000D01*
G01*
X141270000Y-40400000D01*
G75*
G02*
X141120000Y-40550000I-150000J0D01*
G01*
X140820000Y-40550000D01*
G75*
G02*
X140670000Y-40400000I0J150000D01*
G01*
X140670000Y-38950000D01*
G75*
G02*
X140820000Y-38800000I150000J0D01*
G01*
G37*
G36*
G01*
X75080000Y-24040000D02*
X74780000Y-24040000D01*
G75*
G02*
X74630000Y-23890000I0J150000D01*
G01*
X74630000Y-22440000D01*
G75*
G02*
X74780000Y-22290000I150000J0D01*
G01*
X75080000Y-22290000D01*
G75*
G02*
X75230000Y-22440000I0J-150000D01*
G01*
X75230000Y-23890000D01*
G75*
G02*
X75080000Y-24040000I-150000J0D01*
G01*
G37*
G36*
G01*
X76350000Y-24040000D02*
X76050000Y-24040000D01*
G75*
G02*
X75900000Y-23890000I0J150000D01*
G01*
X75900000Y-22440000D01*
G75*
G02*
X76050000Y-22290000I150000J0D01*
G01*
X76350000Y-22290000D01*
G75*
G02*
X76500000Y-22440000I0J-150000D01*
G01*
X76500000Y-23890000D01*
G75*
G02*
X76350000Y-24040000I-150000J0D01*
G01*
G37*
G36*
G01*
X77620000Y-24040000D02*
X77320000Y-24040000D01*
G75*
G02*
X77170000Y-23890000I0J150000D01*
G01*
X77170000Y-22440000D01*
G75*
G02*
X77320000Y-22290000I150000J0D01*
G01*
X77620000Y-22290000D01*
G75*
G02*
X77770000Y-22440000I0J-150000D01*
G01*
X77770000Y-23890000D01*
G75*
G02*
X77620000Y-24040000I-150000J0D01*
G01*
G37*
G36*
G01*
X78890000Y-24040000D02*
X78590000Y-24040000D01*
G75*
G02*
X78440000Y-23890000I0J150000D01*
G01*
X78440000Y-22440000D01*
G75*
G02*
X78590000Y-22290000I150000J0D01*
G01*
X78890000Y-22290000D01*
G75*
G02*
X79040000Y-22440000I0J-150000D01*
G01*
X79040000Y-23890000D01*
G75*
G02*
X78890000Y-24040000I-150000J0D01*
G01*
G37*
G36*
G01*
X80160000Y-24040000D02*
X79860000Y-24040000D01*
G75*
G02*
X79710000Y-23890000I0J150000D01*
G01*
X79710000Y-22440000D01*
G75*
G02*
X79860000Y-22290000I150000J0D01*
G01*
X80160000Y-22290000D01*
G75*
G02*
X80310000Y-22440000I0J-150000D01*
G01*
X80310000Y-23890000D01*
G75*
G02*
X80160000Y-24040000I-150000J0D01*
G01*
G37*
G36*
G01*
X81430000Y-24040000D02*
X81130000Y-24040000D01*
G75*
G02*
X80980000Y-23890000I0J150000D01*
G01*
X80980000Y-22440000D01*
G75*
G02*
X81130000Y-22290000I150000J0D01*
G01*
X81430000Y-22290000D01*
G75*
G02*
X81580000Y-22440000I0J-150000D01*
G01*
X81580000Y-23890000D01*
G75*
G02*
X81430000Y-24040000I-150000J0D01*
G01*
G37*
G36*
G01*
X82700000Y-24040000D02*
X82400000Y-24040000D01*
G75*
G02*
X82250000Y-23890000I0J150000D01*
G01*
X82250000Y-22440000D01*
G75*
G02*
X82400000Y-22290000I150000J0D01*
G01*
X82700000Y-22290000D01*
G75*
G02*
X82850000Y-22440000I0J-150000D01*
G01*
X82850000Y-23890000D01*
G75*
G02*
X82700000Y-24040000I-150000J0D01*
G01*
G37*
G36*
G01*
X83970000Y-24040000D02*
X83670000Y-24040000D01*
G75*
G02*
X83520000Y-23890000I0J150000D01*
G01*
X83520000Y-22440000D01*
G75*
G02*
X83670000Y-22290000I150000J0D01*
G01*
X83970000Y-22290000D01*
G75*
G02*
X84120000Y-22440000I0J-150000D01*
G01*
X84120000Y-23890000D01*
G75*
G02*
X83970000Y-24040000I-150000J0D01*
G01*
G37*
G36*
G01*
X85240000Y-24040000D02*
X84940000Y-24040000D01*
G75*
G02*
X84790000Y-23890000I0J150000D01*
G01*
X84790000Y-22440000D01*
G75*
G02*
X84940000Y-22290000I150000J0D01*
G01*
X85240000Y-22290000D01*
G75*
G02*
X85390000Y-22440000I0J-150000D01*
G01*
X85390000Y-23890000D01*
G75*
G02*
X85240000Y-24040000I-150000J0D01*
G01*
G37*
G36*
G01*
X85240000Y-33590000D02*
X84940000Y-33590000D01*
G75*
G02*
X84790000Y-33440000I0J150000D01*
G01*
X84790000Y-31990000D01*
G75*
G02*
X84940000Y-31840000I150000J0D01*
G01*
X85240000Y-31840000D01*
G75*
G02*
X85390000Y-31990000I0J-150000D01*
G01*
X85390000Y-33440000D01*
G75*
G02*
X85240000Y-33590000I-150000J0D01*
G01*
G37*
G36*
G01*
X83970000Y-33590000D02*
X83670000Y-33590000D01*
G75*
G02*
X83520000Y-33440000I0J150000D01*
G01*
X83520000Y-31990000D01*
G75*
G02*
X83670000Y-31840000I150000J0D01*
G01*
X83970000Y-31840000D01*
G75*
G02*
X84120000Y-31990000I0J-150000D01*
G01*
X84120000Y-33440000D01*
G75*
G02*
X83970000Y-33590000I-150000J0D01*
G01*
G37*
G36*
G01*
X82700000Y-33590000D02*
X82400000Y-33590000D01*
G75*
G02*
X82250000Y-33440000I0J150000D01*
G01*
X82250000Y-31990000D01*
G75*
G02*
X82400000Y-31840000I150000J0D01*
G01*
X82700000Y-31840000D01*
G75*
G02*
X82850000Y-31990000I0J-150000D01*
G01*
X82850000Y-33440000D01*
G75*
G02*
X82700000Y-33590000I-150000J0D01*
G01*
G37*
G36*
G01*
X81430000Y-33590000D02*
X81130000Y-33590000D01*
G75*
G02*
X80980000Y-33440000I0J150000D01*
G01*
X80980000Y-31990000D01*
G75*
G02*
X81130000Y-31840000I150000J0D01*
G01*
X81430000Y-31840000D01*
G75*
G02*
X81580000Y-31990000I0J-150000D01*
G01*
X81580000Y-33440000D01*
G75*
G02*
X81430000Y-33590000I-150000J0D01*
G01*
G37*
G36*
G01*
X80160000Y-33590000D02*
X79860000Y-33590000D01*
G75*
G02*
X79710000Y-33440000I0J150000D01*
G01*
X79710000Y-31990000D01*
G75*
G02*
X79860000Y-31840000I150000J0D01*
G01*
X80160000Y-31840000D01*
G75*
G02*
X80310000Y-31990000I0J-150000D01*
G01*
X80310000Y-33440000D01*
G75*
G02*
X80160000Y-33590000I-150000J0D01*
G01*
G37*
G36*
G01*
X78890000Y-33590000D02*
X78590000Y-33590000D01*
G75*
G02*
X78440000Y-33440000I0J150000D01*
G01*
X78440000Y-31990000D01*
G75*
G02*
X78590000Y-31840000I150000J0D01*
G01*
X78890000Y-31840000D01*
G75*
G02*
X79040000Y-31990000I0J-150000D01*
G01*
X79040000Y-33440000D01*
G75*
G02*
X78890000Y-33590000I-150000J0D01*
G01*
G37*
G36*
G01*
X77620000Y-33590000D02*
X77320000Y-33590000D01*
G75*
G02*
X77170000Y-33440000I0J150000D01*
G01*
X77170000Y-31990000D01*
G75*
G02*
X77320000Y-31840000I150000J0D01*
G01*
X77620000Y-31840000D01*
G75*
G02*
X77770000Y-31990000I0J-150000D01*
G01*
X77770000Y-33440000D01*
G75*
G02*
X77620000Y-33590000I-150000J0D01*
G01*
G37*
G36*
G01*
X76350000Y-33590000D02*
X76050000Y-33590000D01*
G75*
G02*
X75900000Y-33440000I0J150000D01*
G01*
X75900000Y-31990000D01*
G75*
G02*
X76050000Y-31840000I150000J0D01*
G01*
X76350000Y-31840000D01*
G75*
G02*
X76500000Y-31990000I0J-150000D01*
G01*
X76500000Y-33440000D01*
G75*
G02*
X76350000Y-33590000I-150000J0D01*
G01*
G37*
G36*
G01*
X75080000Y-33590000D02*
X74780000Y-33590000D01*
G75*
G02*
X74630000Y-33440000I0J150000D01*
G01*
X74630000Y-31990000D01*
G75*
G02*
X74780000Y-31840000I150000J0D01*
G01*
X75080000Y-31840000D01*
G75*
G02*
X75230000Y-31990000I0J-150000D01*
G01*
X75230000Y-33440000D01*
G75*
G02*
X75080000Y-33590000I-150000J0D01*
G01*
G37*
G36*
G01*
X47140000Y-33590000D02*
X46840000Y-33590000D01*
G75*
G02*
X46690000Y-33440000I0J150000D01*
G01*
X46690000Y-31990000D01*
G75*
G02*
X46840000Y-31840000I150000J0D01*
G01*
X47140000Y-31840000D01*
G75*
G02*
X47290000Y-31990000I0J-150000D01*
G01*
X47290000Y-33440000D01*
G75*
G02*
X47140000Y-33590000I-150000J0D01*
G01*
G37*
G36*
G01*
X48410000Y-33590000D02*
X48110000Y-33590000D01*
G75*
G02*
X47960000Y-33440000I0J150000D01*
G01*
X47960000Y-31990000D01*
G75*
G02*
X48110000Y-31840000I150000J0D01*
G01*
X48410000Y-31840000D01*
G75*
G02*
X48560000Y-31990000I0J-150000D01*
G01*
X48560000Y-33440000D01*
G75*
G02*
X48410000Y-33590000I-150000J0D01*
G01*
G37*
G36*
G01*
X49680000Y-33590000D02*
X49380000Y-33590000D01*
G75*
G02*
X49230000Y-33440000I0J150000D01*
G01*
X49230000Y-31990000D01*
G75*
G02*
X49380000Y-31840000I150000J0D01*
G01*
X49680000Y-31840000D01*
G75*
G02*
X49830000Y-31990000I0J-150000D01*
G01*
X49830000Y-33440000D01*
G75*
G02*
X49680000Y-33590000I-150000J0D01*
G01*
G37*
G36*
G01*
X50950000Y-33590000D02*
X50650000Y-33590000D01*
G75*
G02*
X50500000Y-33440000I0J150000D01*
G01*
X50500000Y-31990000D01*
G75*
G02*
X50650000Y-31840000I150000J0D01*
G01*
X50950000Y-31840000D01*
G75*
G02*
X51100000Y-31990000I0J-150000D01*
G01*
X51100000Y-33440000D01*
G75*
G02*
X50950000Y-33590000I-150000J0D01*
G01*
G37*
G36*
G01*
X52220000Y-33590000D02*
X51920000Y-33590000D01*
G75*
G02*
X51770000Y-33440000I0J150000D01*
G01*
X51770000Y-31990000D01*
G75*
G02*
X51920000Y-31840000I150000J0D01*
G01*
X52220000Y-31840000D01*
G75*
G02*
X52370000Y-31990000I0J-150000D01*
G01*
X52370000Y-33440000D01*
G75*
G02*
X52220000Y-33590000I-150000J0D01*
G01*
G37*
G36*
G01*
X53490000Y-33590000D02*
X53190000Y-33590000D01*
G75*
G02*
X53040000Y-33440000I0J150000D01*
G01*
X53040000Y-31990000D01*
G75*
G02*
X53190000Y-31840000I150000J0D01*
G01*
X53490000Y-31840000D01*
G75*
G02*
X53640000Y-31990000I0J-150000D01*
G01*
X53640000Y-33440000D01*
G75*
G02*
X53490000Y-33590000I-150000J0D01*
G01*
G37*
G36*
G01*
X54760000Y-33590000D02*
X54460000Y-33590000D01*
G75*
G02*
X54310000Y-33440000I0J150000D01*
G01*
X54310000Y-31990000D01*
G75*
G02*
X54460000Y-31840000I150000J0D01*
G01*
X54760000Y-31840000D01*
G75*
G02*
X54910000Y-31990000I0J-150000D01*
G01*
X54910000Y-33440000D01*
G75*
G02*
X54760000Y-33590000I-150000J0D01*
G01*
G37*
G36*
G01*
X56030000Y-33590000D02*
X55730000Y-33590000D01*
G75*
G02*
X55580000Y-33440000I0J150000D01*
G01*
X55580000Y-31990000D01*
G75*
G02*
X55730000Y-31840000I150000J0D01*
G01*
X56030000Y-31840000D01*
G75*
G02*
X56180000Y-31990000I0J-150000D01*
G01*
X56180000Y-33440000D01*
G75*
G02*
X56030000Y-33590000I-150000J0D01*
G01*
G37*
G36*
G01*
X57300000Y-33590000D02*
X57000000Y-33590000D01*
G75*
G02*
X56850000Y-33440000I0J150000D01*
G01*
X56850000Y-31990000D01*
G75*
G02*
X57000000Y-31840000I150000J0D01*
G01*
X57300000Y-31840000D01*
G75*
G02*
X57450000Y-31990000I0J-150000D01*
G01*
X57450000Y-33440000D01*
G75*
G02*
X57300000Y-33590000I-150000J0D01*
G01*
G37*
G36*
G01*
X57300000Y-24040000D02*
X57000000Y-24040000D01*
G75*
G02*
X56850000Y-23890000I0J150000D01*
G01*
X56850000Y-22440000D01*
G75*
G02*
X57000000Y-22290000I150000J0D01*
G01*
X57300000Y-22290000D01*
G75*
G02*
X57450000Y-22440000I0J-150000D01*
G01*
X57450000Y-23890000D01*
G75*
G02*
X57300000Y-24040000I-150000J0D01*
G01*
G37*
G36*
G01*
X56030000Y-24040000D02*
X55730000Y-24040000D01*
G75*
G02*
X55580000Y-23890000I0J150000D01*
G01*
X55580000Y-22440000D01*
G75*
G02*
X55730000Y-22290000I150000J0D01*
G01*
X56030000Y-22290000D01*
G75*
G02*
X56180000Y-22440000I0J-150000D01*
G01*
X56180000Y-23890000D01*
G75*
G02*
X56030000Y-24040000I-150000J0D01*
G01*
G37*
G36*
G01*
X54760000Y-24040000D02*
X54460000Y-24040000D01*
G75*
G02*
X54310000Y-23890000I0J150000D01*
G01*
X54310000Y-22440000D01*
G75*
G02*
X54460000Y-22290000I150000J0D01*
G01*
X54760000Y-22290000D01*
G75*
G02*
X54910000Y-22440000I0J-150000D01*
G01*
X54910000Y-23890000D01*
G75*
G02*
X54760000Y-24040000I-150000J0D01*
G01*
G37*
G36*
G01*
X53490000Y-24040000D02*
X53190000Y-24040000D01*
G75*
G02*
X53040000Y-23890000I0J150000D01*
G01*
X53040000Y-22440000D01*
G75*
G02*
X53190000Y-22290000I150000J0D01*
G01*
X53490000Y-22290000D01*
G75*
G02*
X53640000Y-22440000I0J-150000D01*
G01*
X53640000Y-23890000D01*
G75*
G02*
X53490000Y-24040000I-150000J0D01*
G01*
G37*
G36*
G01*
X52220000Y-24040000D02*
X51920000Y-24040000D01*
G75*
G02*
X51770000Y-23890000I0J150000D01*
G01*
X51770000Y-22440000D01*
G75*
G02*
X51920000Y-22290000I150000J0D01*
G01*
X52220000Y-22290000D01*
G75*
G02*
X52370000Y-22440000I0J-150000D01*
G01*
X52370000Y-23890000D01*
G75*
G02*
X52220000Y-24040000I-150000J0D01*
G01*
G37*
G36*
G01*
X50950000Y-24040000D02*
X50650000Y-24040000D01*
G75*
G02*
X50500000Y-23890000I0J150000D01*
G01*
X50500000Y-22440000D01*
G75*
G02*
X50650000Y-22290000I150000J0D01*
G01*
X50950000Y-22290000D01*
G75*
G02*
X51100000Y-22440000I0J-150000D01*
G01*
X51100000Y-23890000D01*
G75*
G02*
X50950000Y-24040000I-150000J0D01*
G01*
G37*
G36*
G01*
X49680000Y-24040000D02*
X49380000Y-24040000D01*
G75*
G02*
X49230000Y-23890000I0J150000D01*
G01*
X49230000Y-22440000D01*
G75*
G02*
X49380000Y-22290000I150000J0D01*
G01*
X49680000Y-22290000D01*
G75*
G02*
X49830000Y-22440000I0J-150000D01*
G01*
X49830000Y-23890000D01*
G75*
G02*
X49680000Y-24040000I-150000J0D01*
G01*
G37*
G36*
G01*
X48410000Y-24040000D02*
X48110000Y-24040000D01*
G75*
G02*
X47960000Y-23890000I0J150000D01*
G01*
X47960000Y-22440000D01*
G75*
G02*
X48110000Y-22290000I150000J0D01*
G01*
X48410000Y-22290000D01*
G75*
G02*
X48560000Y-22440000I0J-150000D01*
G01*
X48560000Y-23890000D01*
G75*
G02*
X48410000Y-24040000I-150000J0D01*
G01*
G37*
G36*
G01*
X47140000Y-24040000D02*
X46840000Y-24040000D01*
G75*
G02*
X46690000Y-23890000I0J150000D01*
G01*
X46690000Y-22440000D01*
G75*
G02*
X46840000Y-22290000I150000J0D01*
G01*
X47140000Y-22290000D01*
G75*
G02*
X47290000Y-22440000I0J-150000D01*
G01*
X47290000Y-23890000D01*
G75*
G02*
X47140000Y-24040000I-150000J0D01*
G01*
G37*
G36*
G01*
X29060000Y-38800000D02*
X29360000Y-38800000D01*
G75*
G02*
X29510000Y-38950000I0J-150000D01*
G01*
X29510000Y-40400000D01*
G75*
G02*
X29360000Y-40550000I-150000J0D01*
G01*
X29060000Y-40550000D01*
G75*
G02*
X28910000Y-40400000I0J150000D01*
G01*
X28910000Y-38950000D01*
G75*
G02*
X29060000Y-38800000I150000J0D01*
G01*
G37*
G36*
G01*
X27790000Y-38800000D02*
X28090000Y-38800000D01*
G75*
G02*
X28240000Y-38950000I0J-150000D01*
G01*
X28240000Y-40400000D01*
G75*
G02*
X28090000Y-40550000I-150000J0D01*
G01*
X27790000Y-40550000D01*
G75*
G02*
X27640000Y-40400000I0J150000D01*
G01*
X27640000Y-38950000D01*
G75*
G02*
X27790000Y-38800000I150000J0D01*
G01*
G37*
G36*
G01*
X26520000Y-38800000D02*
X26820000Y-38800000D01*
G75*
G02*
X26970000Y-38950000I0J-150000D01*
G01*
X26970000Y-40400000D01*
G75*
G02*
X26820000Y-40550000I-150000J0D01*
G01*
X26520000Y-40550000D01*
G75*
G02*
X26370000Y-40400000I0J150000D01*
G01*
X26370000Y-38950000D01*
G75*
G02*
X26520000Y-38800000I150000J0D01*
G01*
G37*
G36*
G01*
X25250000Y-38800000D02*
X25550000Y-38800000D01*
G75*
G02*
X25700000Y-38950000I0J-150000D01*
G01*
X25700000Y-40400000D01*
G75*
G02*
X25550000Y-40550000I-150000J0D01*
G01*
X25250000Y-40550000D01*
G75*
G02*
X25100000Y-40400000I0J150000D01*
G01*
X25100000Y-38950000D01*
G75*
G02*
X25250000Y-38800000I150000J0D01*
G01*
G37*
G36*
G01*
X23980000Y-38800000D02*
X24280000Y-38800000D01*
G75*
G02*
X24430000Y-38950000I0J-150000D01*
G01*
X24430000Y-40400000D01*
G75*
G02*
X24280000Y-40550000I-150000J0D01*
G01*
X23980000Y-40550000D01*
G75*
G02*
X23830000Y-40400000I0J150000D01*
G01*
X23830000Y-38950000D01*
G75*
G02*
X23980000Y-38800000I150000J0D01*
G01*
G37*
G36*
G01*
X22710000Y-38800000D02*
X23010000Y-38800000D01*
G75*
G02*
X23160000Y-38950000I0J-150000D01*
G01*
X23160000Y-40400000D01*
G75*
G02*
X23010000Y-40550000I-150000J0D01*
G01*
X22710000Y-40550000D01*
G75*
G02*
X22560000Y-40400000I0J150000D01*
G01*
X22560000Y-38950000D01*
G75*
G02*
X22710000Y-38800000I150000J0D01*
G01*
G37*
G36*
G01*
X21440000Y-38800000D02*
X21740000Y-38800000D01*
G75*
G02*
X21890000Y-38950000I0J-150000D01*
G01*
X21890000Y-40400000D01*
G75*
G02*
X21740000Y-40550000I-150000J0D01*
G01*
X21440000Y-40550000D01*
G75*
G02*
X21290000Y-40400000I0J150000D01*
G01*
X21290000Y-38950000D01*
G75*
G02*
X21440000Y-38800000I150000J0D01*
G01*
G37*
G36*
G01*
X20170000Y-38800000D02*
X20470000Y-38800000D01*
G75*
G02*
X20620000Y-38950000I0J-150000D01*
G01*
X20620000Y-40400000D01*
G75*
G02*
X20470000Y-40550000I-150000J0D01*
G01*
X20170000Y-40550000D01*
G75*
G02*
X20020000Y-40400000I0J150000D01*
G01*
X20020000Y-38950000D01*
G75*
G02*
X20170000Y-38800000I150000J0D01*
G01*
G37*
G36*
G01*
X18900000Y-38800000D02*
X19200000Y-38800000D01*
G75*
G02*
X19350000Y-38950000I0J-150000D01*
G01*
X19350000Y-40400000D01*
G75*
G02*
X19200000Y-40550000I-150000J0D01*
G01*
X18900000Y-40550000D01*
G75*
G02*
X18750000Y-40400000I0J150000D01*
G01*
X18750000Y-38950000D01*
G75*
G02*
X18900000Y-38800000I150000J0D01*
G01*
G37*
G36*
G01*
X18900000Y-48350000D02*
X19200000Y-48350000D01*
G75*
G02*
X19350000Y-48500000I0J-150000D01*
G01*
X19350000Y-49950000D01*
G75*
G02*
X19200000Y-50100000I-150000J0D01*
G01*
X18900000Y-50100000D01*
G75*
G02*
X18750000Y-49950000I0J150000D01*
G01*
X18750000Y-48500000D01*
G75*
G02*
X18900000Y-48350000I150000J0D01*
G01*
G37*
G36*
G01*
X20170000Y-48350000D02*
X20470000Y-48350000D01*
G75*
G02*
X20620000Y-48500000I0J-150000D01*
G01*
X20620000Y-49950000D01*
G75*
G02*
X20470000Y-50100000I-150000J0D01*
G01*
X20170000Y-50100000D01*
G75*
G02*
X20020000Y-49950000I0J150000D01*
G01*
X20020000Y-48500000D01*
G75*
G02*
X20170000Y-48350000I150000J0D01*
G01*
G37*
G36*
G01*
X21440000Y-48350000D02*
X21740000Y-48350000D01*
G75*
G02*
X21890000Y-48500000I0J-150000D01*
G01*
X21890000Y-49950000D01*
G75*
G02*
X21740000Y-50100000I-150000J0D01*
G01*
X21440000Y-50100000D01*
G75*
G02*
X21290000Y-49950000I0J150000D01*
G01*
X21290000Y-48500000D01*
G75*
G02*
X21440000Y-48350000I150000J0D01*
G01*
G37*
G36*
G01*
X22710000Y-48350000D02*
X23010000Y-48350000D01*
G75*
G02*
X23160000Y-48500000I0J-150000D01*
G01*
X23160000Y-49950000D01*
G75*
G02*
X23010000Y-50100000I-150000J0D01*
G01*
X22710000Y-50100000D01*
G75*
G02*
X22560000Y-49950000I0J150000D01*
G01*
X22560000Y-48500000D01*
G75*
G02*
X22710000Y-48350000I150000J0D01*
G01*
G37*
G36*
G01*
X23980000Y-48350000D02*
X24280000Y-48350000D01*
G75*
G02*
X24430000Y-48500000I0J-150000D01*
G01*
X24430000Y-49950000D01*
G75*
G02*
X24280000Y-50100000I-150000J0D01*
G01*
X23980000Y-50100000D01*
G75*
G02*
X23830000Y-49950000I0J150000D01*
G01*
X23830000Y-48500000D01*
G75*
G02*
X23980000Y-48350000I150000J0D01*
G01*
G37*
G36*
G01*
X25250000Y-48350000D02*
X25550000Y-48350000D01*
G75*
G02*
X25700000Y-48500000I0J-150000D01*
G01*
X25700000Y-49950000D01*
G75*
G02*
X25550000Y-50100000I-150000J0D01*
G01*
X25250000Y-50100000D01*
G75*
G02*
X25100000Y-49950000I0J150000D01*
G01*
X25100000Y-48500000D01*
G75*
G02*
X25250000Y-48350000I150000J0D01*
G01*
G37*
G36*
G01*
X26520000Y-48350000D02*
X26820000Y-48350000D01*
G75*
G02*
X26970000Y-48500000I0J-150000D01*
G01*
X26970000Y-49950000D01*
G75*
G02*
X26820000Y-50100000I-150000J0D01*
G01*
X26520000Y-50100000D01*
G75*
G02*
X26370000Y-49950000I0J150000D01*
G01*
X26370000Y-48500000D01*
G75*
G02*
X26520000Y-48350000I150000J0D01*
G01*
G37*
G36*
G01*
X27790000Y-48350000D02*
X28090000Y-48350000D01*
G75*
G02*
X28240000Y-48500000I0J-150000D01*
G01*
X28240000Y-49950000D01*
G75*
G02*
X28090000Y-50100000I-150000J0D01*
G01*
X27790000Y-50100000D01*
G75*
G02*
X27640000Y-49950000I0J150000D01*
G01*
X27640000Y-48500000D01*
G75*
G02*
X27790000Y-48350000I150000J0D01*
G01*
G37*
G36*
G01*
X29060000Y-48350000D02*
X29360000Y-48350000D01*
G75*
G02*
X29510000Y-48500000I0J-150000D01*
G01*
X29510000Y-49950000D01*
G75*
G02*
X29360000Y-50100000I-150000J0D01*
G01*
X29060000Y-50100000D01*
G75*
G02*
X28910000Y-49950000I0J150000D01*
G01*
X28910000Y-48500000D01*
G75*
G02*
X29060000Y-48350000I150000J0D01*
G01*
G37*
G36*
G01*
X186840000Y-33590000D02*
X186540000Y-33590000D01*
G75*
G02*
X186390000Y-33440000I0J150000D01*
G01*
X186390000Y-31990000D01*
G75*
G02*
X186540000Y-31840000I150000J0D01*
G01*
X186840000Y-31840000D01*
G75*
G02*
X186990000Y-31990000I0J-150000D01*
G01*
X186990000Y-33440000D01*
G75*
G02*
X186840000Y-33590000I-150000J0D01*
G01*
G37*
G36*
G01*
X188110000Y-33590000D02*
X187810000Y-33590000D01*
G75*
G02*
X187660000Y-33440000I0J150000D01*
G01*
X187660000Y-31990000D01*
G75*
G02*
X187810000Y-31840000I150000J0D01*
G01*
X188110000Y-31840000D01*
G75*
G02*
X188260000Y-31990000I0J-150000D01*
G01*
X188260000Y-33440000D01*
G75*
G02*
X188110000Y-33590000I-150000J0D01*
G01*
G37*
G36*
G01*
X189380000Y-33590000D02*
X189080000Y-33590000D01*
G75*
G02*
X188930000Y-33440000I0J150000D01*
G01*
X188930000Y-31990000D01*
G75*
G02*
X189080000Y-31840000I150000J0D01*
G01*
X189380000Y-31840000D01*
G75*
G02*
X189530000Y-31990000I0J-150000D01*
G01*
X189530000Y-33440000D01*
G75*
G02*
X189380000Y-33590000I-150000J0D01*
G01*
G37*
G36*
G01*
X190650000Y-33590000D02*
X190350000Y-33590000D01*
G75*
G02*
X190200000Y-33440000I0J150000D01*
G01*
X190200000Y-31990000D01*
G75*
G02*
X190350000Y-31840000I150000J0D01*
G01*
X190650000Y-31840000D01*
G75*
G02*
X190800000Y-31990000I0J-150000D01*
G01*
X190800000Y-33440000D01*
G75*
G02*
X190650000Y-33590000I-150000J0D01*
G01*
G37*
G36*
G01*
X191920000Y-33590000D02*
X191620000Y-33590000D01*
G75*
G02*
X191470000Y-33440000I0J150000D01*
G01*
X191470000Y-31990000D01*
G75*
G02*
X191620000Y-31840000I150000J0D01*
G01*
X191920000Y-31840000D01*
G75*
G02*
X192070000Y-31990000I0J-150000D01*
G01*
X192070000Y-33440000D01*
G75*
G02*
X191920000Y-33590000I-150000J0D01*
G01*
G37*
G36*
G01*
X193190000Y-33590000D02*
X192890000Y-33590000D01*
G75*
G02*
X192740000Y-33440000I0J150000D01*
G01*
X192740000Y-31990000D01*
G75*
G02*
X192890000Y-31840000I150000J0D01*
G01*
X193190000Y-31840000D01*
G75*
G02*
X193340000Y-31990000I0J-150000D01*
G01*
X193340000Y-33440000D01*
G75*
G02*
X193190000Y-33590000I-150000J0D01*
G01*
G37*
G36*
G01*
X194460000Y-33590000D02*
X194160000Y-33590000D01*
G75*
G02*
X194010000Y-33440000I0J150000D01*
G01*
X194010000Y-31990000D01*
G75*
G02*
X194160000Y-31840000I150000J0D01*
G01*
X194460000Y-31840000D01*
G75*
G02*
X194610000Y-31990000I0J-150000D01*
G01*
X194610000Y-33440000D01*
G75*
G02*
X194460000Y-33590000I-150000J0D01*
G01*
G37*
G36*
G01*
X195730000Y-33590000D02*
X195430000Y-33590000D01*
G75*
G02*
X195280000Y-33440000I0J150000D01*
G01*
X195280000Y-31990000D01*
G75*
G02*
X195430000Y-31840000I150000J0D01*
G01*
X195730000Y-31840000D01*
G75*
G02*
X195880000Y-31990000I0J-150000D01*
G01*
X195880000Y-33440000D01*
G75*
G02*
X195730000Y-33590000I-150000J0D01*
G01*
G37*
G36*
G01*
X197000000Y-33590000D02*
X196700000Y-33590000D01*
G75*
G02*
X196550000Y-33440000I0J150000D01*
G01*
X196550000Y-31990000D01*
G75*
G02*
X196700000Y-31840000I150000J0D01*
G01*
X197000000Y-31840000D01*
G75*
G02*
X197150000Y-31990000I0J-150000D01*
G01*
X197150000Y-33440000D01*
G75*
G02*
X197000000Y-33590000I-150000J0D01*
G01*
G37*
G36*
G01*
X197000000Y-24040000D02*
X196700000Y-24040000D01*
G75*
G02*
X196550000Y-23890000I0J150000D01*
G01*
X196550000Y-22440000D01*
G75*
G02*
X196700000Y-22290000I150000J0D01*
G01*
X197000000Y-22290000D01*
G75*
G02*
X197150000Y-22440000I0J-150000D01*
G01*
X197150000Y-23890000D01*
G75*
G02*
X197000000Y-24040000I-150000J0D01*
G01*
G37*
G36*
G01*
X195730000Y-24040000D02*
X195430000Y-24040000D01*
G75*
G02*
X195280000Y-23890000I0J150000D01*
G01*
X195280000Y-22440000D01*
G75*
G02*
X195430000Y-22290000I150000J0D01*
G01*
X195730000Y-22290000D01*
G75*
G02*
X195880000Y-22440000I0J-150000D01*
G01*
X195880000Y-23890000D01*
G75*
G02*
X195730000Y-24040000I-150000J0D01*
G01*
G37*
G36*
G01*
X194460000Y-24040000D02*
X194160000Y-24040000D01*
G75*
G02*
X194010000Y-23890000I0J150000D01*
G01*
X194010000Y-22440000D01*
G75*
G02*
X194160000Y-22290000I150000J0D01*
G01*
X194460000Y-22290000D01*
G75*
G02*
X194610000Y-22440000I0J-150000D01*
G01*
X194610000Y-23890000D01*
G75*
G02*
X194460000Y-24040000I-150000J0D01*
G01*
G37*
G36*
G01*
X193190000Y-24040000D02*
X192890000Y-24040000D01*
G75*
G02*
X192740000Y-23890000I0J150000D01*
G01*
X192740000Y-22440000D01*
G75*
G02*
X192890000Y-22290000I150000J0D01*
G01*
X193190000Y-22290000D01*
G75*
G02*
X193340000Y-22440000I0J-150000D01*
G01*
X193340000Y-23890000D01*
G75*
G02*
X193190000Y-24040000I-150000J0D01*
G01*
G37*
G36*
G01*
X191920000Y-24040000D02*
X191620000Y-24040000D01*
G75*
G02*
X191470000Y-23890000I0J150000D01*
G01*
X191470000Y-22440000D01*
G75*
G02*
X191620000Y-22290000I150000J0D01*
G01*
X191920000Y-22290000D01*
G75*
G02*
X192070000Y-22440000I0J-150000D01*
G01*
X192070000Y-23890000D01*
G75*
G02*
X191920000Y-24040000I-150000J0D01*
G01*
G37*
G36*
G01*
X190650000Y-24040000D02*
X190350000Y-24040000D01*
G75*
G02*
X190200000Y-23890000I0J150000D01*
G01*
X190200000Y-22440000D01*
G75*
G02*
X190350000Y-22290000I150000J0D01*
G01*
X190650000Y-22290000D01*
G75*
G02*
X190800000Y-22440000I0J-150000D01*
G01*
X190800000Y-23890000D01*
G75*
G02*
X190650000Y-24040000I-150000J0D01*
G01*
G37*
G36*
G01*
X189380000Y-24040000D02*
X189080000Y-24040000D01*
G75*
G02*
X188930000Y-23890000I0J150000D01*
G01*
X188930000Y-22440000D01*
G75*
G02*
X189080000Y-22290000I150000J0D01*
G01*
X189380000Y-22290000D01*
G75*
G02*
X189530000Y-22440000I0J-150000D01*
G01*
X189530000Y-23890000D01*
G75*
G02*
X189380000Y-24040000I-150000J0D01*
G01*
G37*
G36*
G01*
X188110000Y-24040000D02*
X187810000Y-24040000D01*
G75*
G02*
X187660000Y-23890000I0J150000D01*
G01*
X187660000Y-22440000D01*
G75*
G02*
X187810000Y-22290000I150000J0D01*
G01*
X188110000Y-22290000D01*
G75*
G02*
X188260000Y-22440000I0J-150000D01*
G01*
X188260000Y-23890000D01*
G75*
G02*
X188110000Y-24040000I-150000J0D01*
G01*
G37*
G36*
G01*
X186840000Y-24040000D02*
X186540000Y-24040000D01*
G75*
G02*
X186390000Y-23890000I0J150000D01*
G01*
X186390000Y-22440000D01*
G75*
G02*
X186540000Y-22290000I150000J0D01*
G01*
X186840000Y-22290000D01*
G75*
G02*
X186990000Y-22440000I0J-150000D01*
G01*
X186990000Y-23890000D01*
G75*
G02*
X186840000Y-24040000I-150000J0D01*
G01*
G37*
G36*
G01*
X158900000Y-24040000D02*
X158600000Y-24040000D01*
G75*
G02*
X158450000Y-23890000I0J150000D01*
G01*
X158450000Y-22440000D01*
G75*
G02*
X158600000Y-22290000I150000J0D01*
G01*
X158900000Y-22290000D01*
G75*
G02*
X159050000Y-22440000I0J-150000D01*
G01*
X159050000Y-23890000D01*
G75*
G02*
X158900000Y-24040000I-150000J0D01*
G01*
G37*
G36*
G01*
X160170000Y-24040000D02*
X159870000Y-24040000D01*
G75*
G02*
X159720000Y-23890000I0J150000D01*
G01*
X159720000Y-22440000D01*
G75*
G02*
X159870000Y-22290000I150000J0D01*
G01*
X160170000Y-22290000D01*
G75*
G02*
X160320000Y-22440000I0J-150000D01*
G01*
X160320000Y-23890000D01*
G75*
G02*
X160170000Y-24040000I-150000J0D01*
G01*
G37*
G36*
G01*
X161440000Y-24040000D02*
X161140000Y-24040000D01*
G75*
G02*
X160990000Y-23890000I0J150000D01*
G01*
X160990000Y-22440000D01*
G75*
G02*
X161140000Y-22290000I150000J0D01*
G01*
X161440000Y-22290000D01*
G75*
G02*
X161590000Y-22440000I0J-150000D01*
G01*
X161590000Y-23890000D01*
G75*
G02*
X161440000Y-24040000I-150000J0D01*
G01*
G37*
G36*
G01*
X162710000Y-24040000D02*
X162410000Y-24040000D01*
G75*
G02*
X162260000Y-23890000I0J150000D01*
G01*
X162260000Y-22440000D01*
G75*
G02*
X162410000Y-22290000I150000J0D01*
G01*
X162710000Y-22290000D01*
G75*
G02*
X162860000Y-22440000I0J-150000D01*
G01*
X162860000Y-23890000D01*
G75*
G02*
X162710000Y-24040000I-150000J0D01*
G01*
G37*
G36*
G01*
X163980000Y-24040000D02*
X163680000Y-24040000D01*
G75*
G02*
X163530000Y-23890000I0J150000D01*
G01*
X163530000Y-22440000D01*
G75*
G02*
X163680000Y-22290000I150000J0D01*
G01*
X163980000Y-22290000D01*
G75*
G02*
X164130000Y-22440000I0J-150000D01*
G01*
X164130000Y-23890000D01*
G75*
G02*
X163980000Y-24040000I-150000J0D01*
G01*
G37*
G36*
G01*
X165250000Y-24040000D02*
X164950000Y-24040000D01*
G75*
G02*
X164800000Y-23890000I0J150000D01*
G01*
X164800000Y-22440000D01*
G75*
G02*
X164950000Y-22290000I150000J0D01*
G01*
X165250000Y-22290000D01*
G75*
G02*
X165400000Y-22440000I0J-150000D01*
G01*
X165400000Y-23890000D01*
G75*
G02*
X165250000Y-24040000I-150000J0D01*
G01*
G37*
G36*
G01*
X166520000Y-24040000D02*
X166220000Y-24040000D01*
G75*
G02*
X166070000Y-23890000I0J150000D01*
G01*
X166070000Y-22440000D01*
G75*
G02*
X166220000Y-22290000I150000J0D01*
G01*
X166520000Y-22290000D01*
G75*
G02*
X166670000Y-22440000I0J-150000D01*
G01*
X166670000Y-23890000D01*
G75*
G02*
X166520000Y-24040000I-150000J0D01*
G01*
G37*
G36*
G01*
X167790000Y-24040000D02*
X167490000Y-24040000D01*
G75*
G02*
X167340000Y-23890000I0J150000D01*
G01*
X167340000Y-22440000D01*
G75*
G02*
X167490000Y-22290000I150000J0D01*
G01*
X167790000Y-22290000D01*
G75*
G02*
X167940000Y-22440000I0J-150000D01*
G01*
X167940000Y-23890000D01*
G75*
G02*
X167790000Y-24040000I-150000J0D01*
G01*
G37*
G36*
G01*
X169060000Y-24040000D02*
X168760000Y-24040000D01*
G75*
G02*
X168610000Y-23890000I0J150000D01*
G01*
X168610000Y-22440000D01*
G75*
G02*
X168760000Y-22290000I150000J0D01*
G01*
X169060000Y-22290000D01*
G75*
G02*
X169210000Y-22440000I0J-150000D01*
G01*
X169210000Y-23890000D01*
G75*
G02*
X169060000Y-24040000I-150000J0D01*
G01*
G37*
G36*
G01*
X169060000Y-33590000D02*
X168760000Y-33590000D01*
G75*
G02*
X168610000Y-33440000I0J150000D01*
G01*
X168610000Y-31990000D01*
G75*
G02*
X168760000Y-31840000I150000J0D01*
G01*
X169060000Y-31840000D01*
G75*
G02*
X169210000Y-31990000I0J-150000D01*
G01*
X169210000Y-33440000D01*
G75*
G02*
X169060000Y-33590000I-150000J0D01*
G01*
G37*
G36*
G01*
X167790000Y-33590000D02*
X167490000Y-33590000D01*
G75*
G02*
X167340000Y-33440000I0J150000D01*
G01*
X167340000Y-31990000D01*
G75*
G02*
X167490000Y-31840000I150000J0D01*
G01*
X167790000Y-31840000D01*
G75*
G02*
X167940000Y-31990000I0J-150000D01*
G01*
X167940000Y-33440000D01*
G75*
G02*
X167790000Y-33590000I-150000J0D01*
G01*
G37*
G36*
G01*
X166520000Y-33590000D02*
X166220000Y-33590000D01*
G75*
G02*
X166070000Y-33440000I0J150000D01*
G01*
X166070000Y-31990000D01*
G75*
G02*
X166220000Y-31840000I150000J0D01*
G01*
X166520000Y-31840000D01*
G75*
G02*
X166670000Y-31990000I0J-150000D01*
G01*
X166670000Y-33440000D01*
G75*
G02*
X166520000Y-33590000I-150000J0D01*
G01*
G37*
G36*
G01*
X165250000Y-33590000D02*
X164950000Y-33590000D01*
G75*
G02*
X164800000Y-33440000I0J150000D01*
G01*
X164800000Y-31990000D01*
G75*
G02*
X164950000Y-31840000I150000J0D01*
G01*
X165250000Y-31840000D01*
G75*
G02*
X165400000Y-31990000I0J-150000D01*
G01*
X165400000Y-33440000D01*
G75*
G02*
X165250000Y-33590000I-150000J0D01*
G01*
G37*
G36*
G01*
X163980000Y-33590000D02*
X163680000Y-33590000D01*
G75*
G02*
X163530000Y-33440000I0J150000D01*
G01*
X163530000Y-31990000D01*
G75*
G02*
X163680000Y-31840000I150000J0D01*
G01*
X163980000Y-31840000D01*
G75*
G02*
X164130000Y-31990000I0J-150000D01*
G01*
X164130000Y-33440000D01*
G75*
G02*
X163980000Y-33590000I-150000J0D01*
G01*
G37*
G36*
G01*
X162710000Y-33590000D02*
X162410000Y-33590000D01*
G75*
G02*
X162260000Y-33440000I0J150000D01*
G01*
X162260000Y-31990000D01*
G75*
G02*
X162410000Y-31840000I150000J0D01*
G01*
X162710000Y-31840000D01*
G75*
G02*
X162860000Y-31990000I0J-150000D01*
G01*
X162860000Y-33440000D01*
G75*
G02*
X162710000Y-33590000I-150000J0D01*
G01*
G37*
G36*
G01*
X161440000Y-33590000D02*
X161140000Y-33590000D01*
G75*
G02*
X160990000Y-33440000I0J150000D01*
G01*
X160990000Y-31990000D01*
G75*
G02*
X161140000Y-31840000I150000J0D01*
G01*
X161440000Y-31840000D01*
G75*
G02*
X161590000Y-31990000I0J-150000D01*
G01*
X161590000Y-33440000D01*
G75*
G02*
X161440000Y-33590000I-150000J0D01*
G01*
G37*
G36*
G01*
X160170000Y-33590000D02*
X159870000Y-33590000D01*
G75*
G02*
X159720000Y-33440000I0J150000D01*
G01*
X159720000Y-31990000D01*
G75*
G02*
X159870000Y-31840000I150000J0D01*
G01*
X160170000Y-31840000D01*
G75*
G02*
X160320000Y-31990000I0J-150000D01*
G01*
X160320000Y-33440000D01*
G75*
G02*
X160170000Y-33590000I-150000J0D01*
G01*
G37*
G36*
G01*
X158900000Y-33590000D02*
X158600000Y-33590000D01*
G75*
G02*
X158450000Y-33440000I0J150000D01*
G01*
X158450000Y-31990000D01*
G75*
G02*
X158600000Y-31840000I150000J0D01*
G01*
X158900000Y-31840000D01*
G75*
G02*
X159050000Y-31990000I0J-150000D01*
G01*
X159050000Y-33440000D01*
G75*
G02*
X158900000Y-33590000I-150000J0D01*
G01*
G37*
G36*
G01*
X130960000Y-24040000D02*
X130660000Y-24040000D01*
G75*
G02*
X130510000Y-23890000I0J150000D01*
G01*
X130510000Y-22440000D01*
G75*
G02*
X130660000Y-22290000I150000J0D01*
G01*
X130960000Y-22290000D01*
G75*
G02*
X131110000Y-22440000I0J-150000D01*
G01*
X131110000Y-23890000D01*
G75*
G02*
X130960000Y-24040000I-150000J0D01*
G01*
G37*
G36*
G01*
X132230000Y-24040000D02*
X131930000Y-24040000D01*
G75*
G02*
X131780000Y-23890000I0J150000D01*
G01*
X131780000Y-22440000D01*
G75*
G02*
X131930000Y-22290000I150000J0D01*
G01*
X132230000Y-22290000D01*
G75*
G02*
X132380000Y-22440000I0J-150000D01*
G01*
X132380000Y-23890000D01*
G75*
G02*
X132230000Y-24040000I-150000J0D01*
G01*
G37*
G36*
G01*
X133500000Y-24040000D02*
X133200000Y-24040000D01*
G75*
G02*
X133050000Y-23890000I0J150000D01*
G01*
X133050000Y-22440000D01*
G75*
G02*
X133200000Y-22290000I150000J0D01*
G01*
X133500000Y-22290000D01*
G75*
G02*
X133650000Y-22440000I0J-150000D01*
G01*
X133650000Y-23890000D01*
G75*
G02*
X133500000Y-24040000I-150000J0D01*
G01*
G37*
G36*
G01*
X134770000Y-24040000D02*
X134470000Y-24040000D01*
G75*
G02*
X134320000Y-23890000I0J150000D01*
G01*
X134320000Y-22440000D01*
G75*
G02*
X134470000Y-22290000I150000J0D01*
G01*
X134770000Y-22290000D01*
G75*
G02*
X134920000Y-22440000I0J-150000D01*
G01*
X134920000Y-23890000D01*
G75*
G02*
X134770000Y-24040000I-150000J0D01*
G01*
G37*
G36*
G01*
X136040000Y-24040000D02*
X135740000Y-24040000D01*
G75*
G02*
X135590000Y-23890000I0J150000D01*
G01*
X135590000Y-22440000D01*
G75*
G02*
X135740000Y-22290000I150000J0D01*
G01*
X136040000Y-22290000D01*
G75*
G02*
X136190000Y-22440000I0J-150000D01*
G01*
X136190000Y-23890000D01*
G75*
G02*
X136040000Y-24040000I-150000J0D01*
G01*
G37*
G36*
G01*
X137310000Y-24040000D02*
X137010000Y-24040000D01*
G75*
G02*
X136860000Y-23890000I0J150000D01*
G01*
X136860000Y-22440000D01*
G75*
G02*
X137010000Y-22290000I150000J0D01*
G01*
X137310000Y-22290000D01*
G75*
G02*
X137460000Y-22440000I0J-150000D01*
G01*
X137460000Y-23890000D01*
G75*
G02*
X137310000Y-24040000I-150000J0D01*
G01*
G37*
G36*
G01*
X138580000Y-24040000D02*
X138280000Y-24040000D01*
G75*
G02*
X138130000Y-23890000I0J150000D01*
G01*
X138130000Y-22440000D01*
G75*
G02*
X138280000Y-22290000I150000J0D01*
G01*
X138580000Y-22290000D01*
G75*
G02*
X138730000Y-22440000I0J-150000D01*
G01*
X138730000Y-23890000D01*
G75*
G02*
X138580000Y-24040000I-150000J0D01*
G01*
G37*
G36*
G01*
X139850000Y-24040000D02*
X139550000Y-24040000D01*
G75*
G02*
X139400000Y-23890000I0J150000D01*
G01*
X139400000Y-22440000D01*
G75*
G02*
X139550000Y-22290000I150000J0D01*
G01*
X139850000Y-22290000D01*
G75*
G02*
X140000000Y-22440000I0J-150000D01*
G01*
X140000000Y-23890000D01*
G75*
G02*
X139850000Y-24040000I-150000J0D01*
G01*
G37*
G36*
G01*
X141120000Y-24040000D02*
X140820000Y-24040000D01*
G75*
G02*
X140670000Y-23890000I0J150000D01*
G01*
X140670000Y-22440000D01*
G75*
G02*
X140820000Y-22290000I150000J0D01*
G01*
X141120000Y-22290000D01*
G75*
G02*
X141270000Y-22440000I0J-150000D01*
G01*
X141270000Y-23890000D01*
G75*
G02*
X141120000Y-24040000I-150000J0D01*
G01*
G37*
G36*
G01*
X141120000Y-33590000D02*
X140820000Y-33590000D01*
G75*
G02*
X140670000Y-33440000I0J150000D01*
G01*
X140670000Y-31990000D01*
G75*
G02*
X140820000Y-31840000I150000J0D01*
G01*
X141120000Y-31840000D01*
G75*
G02*
X141270000Y-31990000I0J-150000D01*
G01*
X141270000Y-33440000D01*
G75*
G02*
X141120000Y-33590000I-150000J0D01*
G01*
G37*
G36*
G01*
X139850000Y-33590000D02*
X139550000Y-33590000D01*
G75*
G02*
X139400000Y-33440000I0J150000D01*
G01*
X139400000Y-31990000D01*
G75*
G02*
X139550000Y-31840000I150000J0D01*
G01*
X139850000Y-31840000D01*
G75*
G02*
X140000000Y-31990000I0J-150000D01*
G01*
X140000000Y-33440000D01*
G75*
G02*
X139850000Y-33590000I-150000J0D01*
G01*
G37*
G36*
G01*
X138580000Y-33590000D02*
X138280000Y-33590000D01*
G75*
G02*
X138130000Y-33440000I0J150000D01*
G01*
X138130000Y-31990000D01*
G75*
G02*
X138280000Y-31840000I150000J0D01*
G01*
X138580000Y-31840000D01*
G75*
G02*
X138730000Y-31990000I0J-150000D01*
G01*
X138730000Y-33440000D01*
G75*
G02*
X138580000Y-33590000I-150000J0D01*
G01*
G37*
G36*
G01*
X137310000Y-33590000D02*
X137010000Y-33590000D01*
G75*
G02*
X136860000Y-33440000I0J150000D01*
G01*
X136860000Y-31990000D01*
G75*
G02*
X137010000Y-31840000I150000J0D01*
G01*
X137310000Y-31840000D01*
G75*
G02*
X137460000Y-31990000I0J-150000D01*
G01*
X137460000Y-33440000D01*
G75*
G02*
X137310000Y-33590000I-150000J0D01*
G01*
G37*
G36*
G01*
X136040000Y-33590000D02*
X135740000Y-33590000D01*
G75*
G02*
X135590000Y-33440000I0J150000D01*
G01*
X135590000Y-31990000D01*
G75*
G02*
X135740000Y-31840000I150000J0D01*
G01*
X136040000Y-31840000D01*
G75*
G02*
X136190000Y-31990000I0J-150000D01*
G01*
X136190000Y-33440000D01*
G75*
G02*
X136040000Y-33590000I-150000J0D01*
G01*
G37*
G36*
G01*
X134770000Y-33590000D02*
X134470000Y-33590000D01*
G75*
G02*
X134320000Y-33440000I0J150000D01*
G01*
X134320000Y-31990000D01*
G75*
G02*
X134470000Y-31840000I150000J0D01*
G01*
X134770000Y-31840000D01*
G75*
G02*
X134920000Y-31990000I0J-150000D01*
G01*
X134920000Y-33440000D01*
G75*
G02*
X134770000Y-33590000I-150000J0D01*
G01*
G37*
G36*
G01*
X133500000Y-33590000D02*
X133200000Y-33590000D01*
G75*
G02*
X133050000Y-33440000I0J150000D01*
G01*
X133050000Y-31990000D01*
G75*
G02*
X133200000Y-31840000I150000J0D01*
G01*
X133500000Y-31840000D01*
G75*
G02*
X133650000Y-31990000I0J-150000D01*
G01*
X133650000Y-33440000D01*
G75*
G02*
X133500000Y-33590000I-150000J0D01*
G01*
G37*
G36*
G01*
X132230000Y-33590000D02*
X131930000Y-33590000D01*
G75*
G02*
X131780000Y-33440000I0J150000D01*
G01*
X131780000Y-31990000D01*
G75*
G02*
X131930000Y-31840000I150000J0D01*
G01*
X132230000Y-31840000D01*
G75*
G02*
X132380000Y-31990000I0J-150000D01*
G01*
X132380000Y-33440000D01*
G75*
G02*
X132230000Y-33590000I-150000J0D01*
G01*
G37*
G36*
G01*
X130960000Y-33590000D02*
X130660000Y-33590000D01*
G75*
G02*
X130510000Y-33440000I0J150000D01*
G01*
X130510000Y-31990000D01*
G75*
G02*
X130660000Y-31840000I150000J0D01*
G01*
X130960000Y-31840000D01*
G75*
G02*
X131110000Y-31990000I0J-150000D01*
G01*
X131110000Y-33440000D01*
G75*
G02*
X130960000Y-33590000I-150000J0D01*
G01*
G37*
G36*
G01*
X103020000Y-33590000D02*
X102720000Y-33590000D01*
G75*
G02*
X102570000Y-33440000I0J150000D01*
G01*
X102570000Y-31990000D01*
G75*
G02*
X102720000Y-31840000I150000J0D01*
G01*
X103020000Y-31840000D01*
G75*
G02*
X103170000Y-31990000I0J-150000D01*
G01*
X103170000Y-33440000D01*
G75*
G02*
X103020000Y-33590000I-150000J0D01*
G01*
G37*
G36*
G01*
X104290000Y-33590000D02*
X103990000Y-33590000D01*
G75*
G02*
X103840000Y-33440000I0J150000D01*
G01*
X103840000Y-31990000D01*
G75*
G02*
X103990000Y-31840000I150000J0D01*
G01*
X104290000Y-31840000D01*
G75*
G02*
X104440000Y-31990000I0J-150000D01*
G01*
X104440000Y-33440000D01*
G75*
G02*
X104290000Y-33590000I-150000J0D01*
G01*
G37*
G36*
G01*
X105560000Y-33590000D02*
X105260000Y-33590000D01*
G75*
G02*
X105110000Y-33440000I0J150000D01*
G01*
X105110000Y-31990000D01*
G75*
G02*
X105260000Y-31840000I150000J0D01*
G01*
X105560000Y-31840000D01*
G75*
G02*
X105710000Y-31990000I0J-150000D01*
G01*
X105710000Y-33440000D01*
G75*
G02*
X105560000Y-33590000I-150000J0D01*
G01*
G37*
G36*
G01*
X106830000Y-33590000D02*
X106530000Y-33590000D01*
G75*
G02*
X106380000Y-33440000I0J150000D01*
G01*
X106380000Y-31990000D01*
G75*
G02*
X106530000Y-31840000I150000J0D01*
G01*
X106830000Y-31840000D01*
G75*
G02*
X106980000Y-31990000I0J-150000D01*
G01*
X106980000Y-33440000D01*
G75*
G02*
X106830000Y-33590000I-150000J0D01*
G01*
G37*
G36*
G01*
X108100000Y-33590000D02*
X107800000Y-33590000D01*
G75*
G02*
X107650000Y-33440000I0J150000D01*
G01*
X107650000Y-31990000D01*
G75*
G02*
X107800000Y-31840000I150000J0D01*
G01*
X108100000Y-31840000D01*
G75*
G02*
X108250000Y-31990000I0J-150000D01*
G01*
X108250000Y-33440000D01*
G75*
G02*
X108100000Y-33590000I-150000J0D01*
G01*
G37*
G36*
G01*
X109370000Y-33590000D02*
X109070000Y-33590000D01*
G75*
G02*
X108920000Y-33440000I0J150000D01*
G01*
X108920000Y-31990000D01*
G75*
G02*
X109070000Y-31840000I150000J0D01*
G01*
X109370000Y-31840000D01*
G75*
G02*
X109520000Y-31990000I0J-150000D01*
G01*
X109520000Y-33440000D01*
G75*
G02*
X109370000Y-33590000I-150000J0D01*
G01*
G37*
G36*
G01*
X110640000Y-33590000D02*
X110340000Y-33590000D01*
G75*
G02*
X110190000Y-33440000I0J150000D01*
G01*
X110190000Y-31990000D01*
G75*
G02*
X110340000Y-31840000I150000J0D01*
G01*
X110640000Y-31840000D01*
G75*
G02*
X110790000Y-31990000I0J-150000D01*
G01*
X110790000Y-33440000D01*
G75*
G02*
X110640000Y-33590000I-150000J0D01*
G01*
G37*
G36*
G01*
X111910000Y-33590000D02*
X111610000Y-33590000D01*
G75*
G02*
X111460000Y-33440000I0J150000D01*
G01*
X111460000Y-31990000D01*
G75*
G02*
X111610000Y-31840000I150000J0D01*
G01*
X111910000Y-31840000D01*
G75*
G02*
X112060000Y-31990000I0J-150000D01*
G01*
X112060000Y-33440000D01*
G75*
G02*
X111910000Y-33590000I-150000J0D01*
G01*
G37*
G36*
G01*
X113180000Y-33590000D02*
X112880000Y-33590000D01*
G75*
G02*
X112730000Y-33440000I0J150000D01*
G01*
X112730000Y-31990000D01*
G75*
G02*
X112880000Y-31840000I150000J0D01*
G01*
X113180000Y-31840000D01*
G75*
G02*
X113330000Y-31990000I0J-150000D01*
G01*
X113330000Y-33440000D01*
G75*
G02*
X113180000Y-33590000I-150000J0D01*
G01*
G37*
G36*
G01*
X113180000Y-24040000D02*
X112880000Y-24040000D01*
G75*
G02*
X112730000Y-23890000I0J150000D01*
G01*
X112730000Y-22440000D01*
G75*
G02*
X112880000Y-22290000I150000J0D01*
G01*
X113180000Y-22290000D01*
G75*
G02*
X113330000Y-22440000I0J-150000D01*
G01*
X113330000Y-23890000D01*
G75*
G02*
X113180000Y-24040000I-150000J0D01*
G01*
G37*
G36*
G01*
X111910000Y-24040000D02*
X111610000Y-24040000D01*
G75*
G02*
X111460000Y-23890000I0J150000D01*
G01*
X111460000Y-22440000D01*
G75*
G02*
X111610000Y-22290000I150000J0D01*
G01*
X111910000Y-22290000D01*
G75*
G02*
X112060000Y-22440000I0J-150000D01*
G01*
X112060000Y-23890000D01*
G75*
G02*
X111910000Y-24040000I-150000J0D01*
G01*
G37*
G36*
G01*
X110640000Y-24040000D02*
X110340000Y-24040000D01*
G75*
G02*
X110190000Y-23890000I0J150000D01*
G01*
X110190000Y-22440000D01*
G75*
G02*
X110340000Y-22290000I150000J0D01*
G01*
X110640000Y-22290000D01*
G75*
G02*
X110790000Y-22440000I0J-150000D01*
G01*
X110790000Y-23890000D01*
G75*
G02*
X110640000Y-24040000I-150000J0D01*
G01*
G37*
G36*
G01*
X109370000Y-24040000D02*
X109070000Y-24040000D01*
G75*
G02*
X108920000Y-23890000I0J150000D01*
G01*
X108920000Y-22440000D01*
G75*
G02*
X109070000Y-22290000I150000J0D01*
G01*
X109370000Y-22290000D01*
G75*
G02*
X109520000Y-22440000I0J-150000D01*
G01*
X109520000Y-23890000D01*
G75*
G02*
X109370000Y-24040000I-150000J0D01*
G01*
G37*
G36*
G01*
X108100000Y-24040000D02*
X107800000Y-24040000D01*
G75*
G02*
X107650000Y-23890000I0J150000D01*
G01*
X107650000Y-22440000D01*
G75*
G02*
X107800000Y-22290000I150000J0D01*
G01*
X108100000Y-22290000D01*
G75*
G02*
X108250000Y-22440000I0J-150000D01*
G01*
X108250000Y-23890000D01*
G75*
G02*
X108100000Y-24040000I-150000J0D01*
G01*
G37*
G36*
G01*
X106830000Y-24040000D02*
X106530000Y-24040000D01*
G75*
G02*
X106380000Y-23890000I0J150000D01*
G01*
X106380000Y-22440000D01*
G75*
G02*
X106530000Y-22290000I150000J0D01*
G01*
X106830000Y-22290000D01*
G75*
G02*
X106980000Y-22440000I0J-150000D01*
G01*
X106980000Y-23890000D01*
G75*
G02*
X106830000Y-24040000I-150000J0D01*
G01*
G37*
G36*
G01*
X105560000Y-24040000D02*
X105260000Y-24040000D01*
G75*
G02*
X105110000Y-23890000I0J150000D01*
G01*
X105110000Y-22440000D01*
G75*
G02*
X105260000Y-22290000I150000J0D01*
G01*
X105560000Y-22290000D01*
G75*
G02*
X105710000Y-22440000I0J-150000D01*
G01*
X105710000Y-23890000D01*
G75*
G02*
X105560000Y-24040000I-150000J0D01*
G01*
G37*
G36*
G01*
X104290000Y-24040000D02*
X103990000Y-24040000D01*
G75*
G02*
X103840000Y-23890000I0J150000D01*
G01*
X103840000Y-22440000D01*
G75*
G02*
X103990000Y-22290000I150000J0D01*
G01*
X104290000Y-22290000D01*
G75*
G02*
X104440000Y-22440000I0J-150000D01*
G01*
X104440000Y-23890000D01*
G75*
G02*
X104290000Y-24040000I-150000J0D01*
G01*
G37*
G36*
G01*
X103020000Y-24040000D02*
X102720000Y-24040000D01*
G75*
G02*
X102570000Y-23890000I0J150000D01*
G01*
X102570000Y-22440000D01*
G75*
G02*
X102720000Y-22290000I150000J0D01*
G01*
X103020000Y-22290000D01*
G75*
G02*
X103170000Y-22440000I0J-150000D01*
G01*
X103170000Y-23890000D01*
G75*
G02*
X103020000Y-24040000I-150000J0D01*
G01*
G37*
G36*
G01*
X230020000Y-72960000D02*
X229720000Y-72960000D01*
G75*
G02*
X229570000Y-72810000I0J150000D01*
G01*
X229570000Y-71360000D01*
G75*
G02*
X229720000Y-71210000I150000J0D01*
G01*
X230020000Y-71210000D01*
G75*
G02*
X230170000Y-71360000I0J-150000D01*
G01*
X230170000Y-72810000D01*
G75*
G02*
X230020000Y-72960000I-150000J0D01*
G01*
G37*
G36*
G01*
X231290000Y-72960000D02*
X230990000Y-72960000D01*
G75*
G02*
X230840000Y-72810000I0J150000D01*
G01*
X230840000Y-71360000D01*
G75*
G02*
X230990000Y-71210000I150000J0D01*
G01*
X231290000Y-71210000D01*
G75*
G02*
X231440000Y-71360000I0J-150000D01*
G01*
X231440000Y-72810000D01*
G75*
G02*
X231290000Y-72960000I-150000J0D01*
G01*
G37*
G36*
G01*
X232560000Y-72960000D02*
X232260000Y-72960000D01*
G75*
G02*
X232110000Y-72810000I0J150000D01*
G01*
X232110000Y-71360000D01*
G75*
G02*
X232260000Y-71210000I150000J0D01*
G01*
X232560000Y-71210000D01*
G75*
G02*
X232710000Y-71360000I0J-150000D01*
G01*
X232710000Y-72810000D01*
G75*
G02*
X232560000Y-72960000I-150000J0D01*
G01*
G37*
G36*
G01*
X233830000Y-72960000D02*
X233530000Y-72960000D01*
G75*
G02*
X233380000Y-72810000I0J150000D01*
G01*
X233380000Y-71360000D01*
G75*
G02*
X233530000Y-71210000I150000J0D01*
G01*
X233830000Y-71210000D01*
G75*
G02*
X233980000Y-71360000I0J-150000D01*
G01*
X233980000Y-72810000D01*
G75*
G02*
X233830000Y-72960000I-150000J0D01*
G01*
G37*
G36*
G01*
X235100000Y-72960000D02*
X234800000Y-72960000D01*
G75*
G02*
X234650000Y-72810000I0J150000D01*
G01*
X234650000Y-71360000D01*
G75*
G02*
X234800000Y-71210000I150000J0D01*
G01*
X235100000Y-71210000D01*
G75*
G02*
X235250000Y-71360000I0J-150000D01*
G01*
X235250000Y-72810000D01*
G75*
G02*
X235100000Y-72960000I-150000J0D01*
G01*
G37*
G36*
G01*
X236370000Y-72960000D02*
X236070000Y-72960000D01*
G75*
G02*
X235920000Y-72810000I0J150000D01*
G01*
X235920000Y-71360000D01*
G75*
G02*
X236070000Y-71210000I150000J0D01*
G01*
X236370000Y-71210000D01*
G75*
G02*
X236520000Y-71360000I0J-150000D01*
G01*
X236520000Y-72810000D01*
G75*
G02*
X236370000Y-72960000I-150000J0D01*
G01*
G37*
G36*
G01*
X237640000Y-72960000D02*
X237340000Y-72960000D01*
G75*
G02*
X237190000Y-72810000I0J150000D01*
G01*
X237190000Y-71360000D01*
G75*
G02*
X237340000Y-71210000I150000J0D01*
G01*
X237640000Y-71210000D01*
G75*
G02*
X237790000Y-71360000I0J-150000D01*
G01*
X237790000Y-72810000D01*
G75*
G02*
X237640000Y-72960000I-150000J0D01*
G01*
G37*
G36*
G01*
X238910000Y-72960000D02*
X238610000Y-72960000D01*
G75*
G02*
X238460000Y-72810000I0J150000D01*
G01*
X238460000Y-71360000D01*
G75*
G02*
X238610000Y-71210000I150000J0D01*
G01*
X238910000Y-71210000D01*
G75*
G02*
X239060000Y-71360000I0J-150000D01*
G01*
X239060000Y-72810000D01*
G75*
G02*
X238910000Y-72960000I-150000J0D01*
G01*
G37*
G36*
G01*
X240180000Y-72960000D02*
X239880000Y-72960000D01*
G75*
G02*
X239730000Y-72810000I0J150000D01*
G01*
X239730000Y-71360000D01*
G75*
G02*
X239880000Y-71210000I150000J0D01*
G01*
X240180000Y-71210000D01*
G75*
G02*
X240330000Y-71360000I0J-150000D01*
G01*
X240330000Y-72810000D01*
G75*
G02*
X240180000Y-72960000I-150000J0D01*
G01*
G37*
G36*
G01*
X240180000Y-63410000D02*
X239880000Y-63410000D01*
G75*
G02*
X239730000Y-63260000I0J150000D01*
G01*
X239730000Y-61810000D01*
G75*
G02*
X239880000Y-61660000I150000J0D01*
G01*
X240180000Y-61660000D01*
G75*
G02*
X240330000Y-61810000I0J-150000D01*
G01*
X240330000Y-63260000D01*
G75*
G02*
X240180000Y-63410000I-150000J0D01*
G01*
G37*
G36*
G01*
X238910000Y-63410000D02*
X238610000Y-63410000D01*
G75*
G02*
X238460000Y-63260000I0J150000D01*
G01*
X238460000Y-61810000D01*
G75*
G02*
X238610000Y-61660000I150000J0D01*
G01*
X238910000Y-61660000D01*
G75*
G02*
X239060000Y-61810000I0J-150000D01*
G01*
X239060000Y-63260000D01*
G75*
G02*
X238910000Y-63410000I-150000J0D01*
G01*
G37*
G36*
G01*
X237640000Y-63410000D02*
X237340000Y-63410000D01*
G75*
G02*
X237190000Y-63260000I0J150000D01*
G01*
X237190000Y-61810000D01*
G75*
G02*
X237340000Y-61660000I150000J0D01*
G01*
X237640000Y-61660000D01*
G75*
G02*
X237790000Y-61810000I0J-150000D01*
G01*
X237790000Y-63260000D01*
G75*
G02*
X237640000Y-63410000I-150000J0D01*
G01*
G37*
G36*
G01*
X236370000Y-63410000D02*
X236070000Y-63410000D01*
G75*
G02*
X235920000Y-63260000I0J150000D01*
G01*
X235920000Y-61810000D01*
G75*
G02*
X236070000Y-61660000I150000J0D01*
G01*
X236370000Y-61660000D01*
G75*
G02*
X236520000Y-61810000I0J-150000D01*
G01*
X236520000Y-63260000D01*
G75*
G02*
X236370000Y-63410000I-150000J0D01*
G01*
G37*
G36*
G01*
X235100000Y-63410000D02*
X234800000Y-63410000D01*
G75*
G02*
X234650000Y-63260000I0J150000D01*
G01*
X234650000Y-61810000D01*
G75*
G02*
X234800000Y-61660000I150000J0D01*
G01*
X235100000Y-61660000D01*
G75*
G02*
X235250000Y-61810000I0J-150000D01*
G01*
X235250000Y-63260000D01*
G75*
G02*
X235100000Y-63410000I-150000J0D01*
G01*
G37*
G36*
G01*
X233830000Y-63410000D02*
X233530000Y-63410000D01*
G75*
G02*
X233380000Y-63260000I0J150000D01*
G01*
X233380000Y-61810000D01*
G75*
G02*
X233530000Y-61660000I150000J0D01*
G01*
X233830000Y-61660000D01*
G75*
G02*
X233980000Y-61810000I0J-150000D01*
G01*
X233980000Y-63260000D01*
G75*
G02*
X233830000Y-63410000I-150000J0D01*
G01*
G37*
G36*
G01*
X232560000Y-63410000D02*
X232260000Y-63410000D01*
G75*
G02*
X232110000Y-63260000I0J150000D01*
G01*
X232110000Y-61810000D01*
G75*
G02*
X232260000Y-61660000I150000J0D01*
G01*
X232560000Y-61660000D01*
G75*
G02*
X232710000Y-61810000I0J-150000D01*
G01*
X232710000Y-63260000D01*
G75*
G02*
X232560000Y-63410000I-150000J0D01*
G01*
G37*
G36*
G01*
X231290000Y-63410000D02*
X230990000Y-63410000D01*
G75*
G02*
X230840000Y-63260000I0J150000D01*
G01*
X230840000Y-61810000D01*
G75*
G02*
X230990000Y-61660000I150000J0D01*
G01*
X231290000Y-61660000D01*
G75*
G02*
X231440000Y-61810000I0J-150000D01*
G01*
X231440000Y-63260000D01*
G75*
G02*
X231290000Y-63410000I-150000J0D01*
G01*
G37*
G36*
G01*
X230020000Y-63410000D02*
X229720000Y-63410000D01*
G75*
G02*
X229570000Y-63260000I0J150000D01*
G01*
X229570000Y-61810000D01*
G75*
G02*
X229720000Y-61660000I150000J0D01*
G01*
X230020000Y-61660000D01*
G75*
G02*
X230170000Y-61810000I0J-150000D01*
G01*
X230170000Y-63260000D01*
G75*
G02*
X230020000Y-63410000I-150000J0D01*
G01*
G37*
G36*
G01*
X230020000Y-24040000D02*
X229720000Y-24040000D01*
G75*
G02*
X229570000Y-23890000I0J150000D01*
G01*
X229570000Y-22440000D01*
G75*
G02*
X229720000Y-22290000I150000J0D01*
G01*
X230020000Y-22290000D01*
G75*
G02*
X230170000Y-22440000I0J-150000D01*
G01*
X230170000Y-23890000D01*
G75*
G02*
X230020000Y-24040000I-150000J0D01*
G01*
G37*
G36*
G01*
X231290000Y-24040000D02*
X230990000Y-24040000D01*
G75*
G02*
X230840000Y-23890000I0J150000D01*
G01*
X230840000Y-22440000D01*
G75*
G02*
X230990000Y-22290000I150000J0D01*
G01*
X231290000Y-22290000D01*
G75*
G02*
X231440000Y-22440000I0J-150000D01*
G01*
X231440000Y-23890000D01*
G75*
G02*
X231290000Y-24040000I-150000J0D01*
G01*
G37*
G36*
G01*
X232560000Y-24040000D02*
X232260000Y-24040000D01*
G75*
G02*
X232110000Y-23890000I0J150000D01*
G01*
X232110000Y-22440000D01*
G75*
G02*
X232260000Y-22290000I150000J0D01*
G01*
X232560000Y-22290000D01*
G75*
G02*
X232710000Y-22440000I0J-150000D01*
G01*
X232710000Y-23890000D01*
G75*
G02*
X232560000Y-24040000I-150000J0D01*
G01*
G37*
G36*
G01*
X233830000Y-24040000D02*
X233530000Y-24040000D01*
G75*
G02*
X233380000Y-23890000I0J150000D01*
G01*
X233380000Y-22440000D01*
G75*
G02*
X233530000Y-22290000I150000J0D01*
G01*
X233830000Y-22290000D01*
G75*
G02*
X233980000Y-22440000I0J-150000D01*
G01*
X233980000Y-23890000D01*
G75*
G02*
X233830000Y-24040000I-150000J0D01*
G01*
G37*
G36*
G01*
X235100000Y-24040000D02*
X234800000Y-24040000D01*
G75*
G02*
X234650000Y-23890000I0J150000D01*
G01*
X234650000Y-22440000D01*
G75*
G02*
X234800000Y-22290000I150000J0D01*
G01*
X235100000Y-22290000D01*
G75*
G02*
X235250000Y-22440000I0J-150000D01*
G01*
X235250000Y-23890000D01*
G75*
G02*
X235100000Y-24040000I-150000J0D01*
G01*
G37*
G36*
G01*
X236370000Y-24040000D02*
X236070000Y-24040000D01*
G75*
G02*
X235920000Y-23890000I0J150000D01*
G01*
X235920000Y-22440000D01*
G75*
G02*
X236070000Y-22290000I150000J0D01*
G01*
X236370000Y-22290000D01*
G75*
G02*
X236520000Y-22440000I0J-150000D01*
G01*
X236520000Y-23890000D01*
G75*
G02*
X236370000Y-24040000I-150000J0D01*
G01*
G37*
G36*
G01*
X237640000Y-24040000D02*
X237340000Y-24040000D01*
G75*
G02*
X237190000Y-23890000I0J150000D01*
G01*
X237190000Y-22440000D01*
G75*
G02*
X237340000Y-22290000I150000J0D01*
G01*
X237640000Y-22290000D01*
G75*
G02*
X237790000Y-22440000I0J-150000D01*
G01*
X237790000Y-23890000D01*
G75*
G02*
X237640000Y-24040000I-150000J0D01*
G01*
G37*
G36*
G01*
X238910000Y-24040000D02*
X238610000Y-24040000D01*
G75*
G02*
X238460000Y-23890000I0J150000D01*
G01*
X238460000Y-22440000D01*
G75*
G02*
X238610000Y-22290000I150000J0D01*
G01*
X238910000Y-22290000D01*
G75*
G02*
X239060000Y-22440000I0J-150000D01*
G01*
X239060000Y-23890000D01*
G75*
G02*
X238910000Y-24040000I-150000J0D01*
G01*
G37*
G36*
G01*
X240180000Y-24040000D02*
X239880000Y-24040000D01*
G75*
G02*
X239730000Y-23890000I0J150000D01*
G01*
X239730000Y-22440000D01*
G75*
G02*
X239880000Y-22290000I150000J0D01*
G01*
X240180000Y-22290000D01*
G75*
G02*
X240330000Y-22440000I0J-150000D01*
G01*
X240330000Y-23890000D01*
G75*
G02*
X240180000Y-24040000I-150000J0D01*
G01*
G37*
G36*
G01*
X240180000Y-33590000D02*
X239880000Y-33590000D01*
G75*
G02*
X239730000Y-33440000I0J150000D01*
G01*
X239730000Y-31990000D01*
G75*
G02*
X239880000Y-31840000I150000J0D01*
G01*
X240180000Y-31840000D01*
G75*
G02*
X240330000Y-31990000I0J-150000D01*
G01*
X240330000Y-33440000D01*
G75*
G02*
X240180000Y-33590000I-150000J0D01*
G01*
G37*
G36*
G01*
X238910000Y-33590000D02*
X238610000Y-33590000D01*
G75*
G02*
X238460000Y-33440000I0J150000D01*
G01*
X238460000Y-31990000D01*
G75*
G02*
X238610000Y-31840000I150000J0D01*
G01*
X238910000Y-31840000D01*
G75*
G02*
X239060000Y-31990000I0J-150000D01*
G01*
X239060000Y-33440000D01*
G75*
G02*
X238910000Y-33590000I-150000J0D01*
G01*
G37*
G36*
G01*
X237640000Y-33590000D02*
X237340000Y-33590000D01*
G75*
G02*
X237190000Y-33440000I0J150000D01*
G01*
X237190000Y-31990000D01*
G75*
G02*
X237340000Y-31840000I150000J0D01*
G01*
X237640000Y-31840000D01*
G75*
G02*
X237790000Y-31990000I0J-150000D01*
G01*
X237790000Y-33440000D01*
G75*
G02*
X237640000Y-33590000I-150000J0D01*
G01*
G37*
G36*
G01*
X236370000Y-33590000D02*
X236070000Y-33590000D01*
G75*
G02*
X235920000Y-33440000I0J150000D01*
G01*
X235920000Y-31990000D01*
G75*
G02*
X236070000Y-31840000I150000J0D01*
G01*
X236370000Y-31840000D01*
G75*
G02*
X236520000Y-31990000I0J-150000D01*
G01*
X236520000Y-33440000D01*
G75*
G02*
X236370000Y-33590000I-150000J0D01*
G01*
G37*
G36*
G01*
X235100000Y-33590000D02*
X234800000Y-33590000D01*
G75*
G02*
X234650000Y-33440000I0J150000D01*
G01*
X234650000Y-31990000D01*
G75*
G02*
X234800000Y-31840000I150000J0D01*
G01*
X235100000Y-31840000D01*
G75*
G02*
X235250000Y-31990000I0J-150000D01*
G01*
X235250000Y-33440000D01*
G75*
G02*
X235100000Y-33590000I-150000J0D01*
G01*
G37*
G36*
G01*
X233830000Y-33590000D02*
X233530000Y-33590000D01*
G75*
G02*
X233380000Y-33440000I0J150000D01*
G01*
X233380000Y-31990000D01*
G75*
G02*
X233530000Y-31840000I150000J0D01*
G01*
X233830000Y-31840000D01*
G75*
G02*
X233980000Y-31990000I0J-150000D01*
G01*
X233980000Y-33440000D01*
G75*
G02*
X233830000Y-33590000I-150000J0D01*
G01*
G37*
G36*
G01*
X232560000Y-33590000D02*
X232260000Y-33590000D01*
G75*
G02*
X232110000Y-33440000I0J150000D01*
G01*
X232110000Y-31990000D01*
G75*
G02*
X232260000Y-31840000I150000J0D01*
G01*
X232560000Y-31840000D01*
G75*
G02*
X232710000Y-31990000I0J-150000D01*
G01*
X232710000Y-33440000D01*
G75*
G02*
X232560000Y-33590000I-150000J0D01*
G01*
G37*
G36*
G01*
X231290000Y-33590000D02*
X230990000Y-33590000D01*
G75*
G02*
X230840000Y-33440000I0J150000D01*
G01*
X230840000Y-31990000D01*
G75*
G02*
X230990000Y-31840000I150000J0D01*
G01*
X231290000Y-31840000D01*
G75*
G02*
X231440000Y-31990000I0J-150000D01*
G01*
X231440000Y-33440000D01*
G75*
G02*
X231290000Y-33590000I-150000J0D01*
G01*
G37*
G36*
G01*
X230020000Y-33590000D02*
X229720000Y-33590000D01*
G75*
G02*
X229570000Y-33440000I0J150000D01*
G01*
X229570000Y-31990000D01*
G75*
G02*
X229720000Y-31840000I150000J0D01*
G01*
X230020000Y-31840000D01*
G75*
G02*
X230170000Y-31990000I0J-150000D01*
G01*
X230170000Y-33440000D01*
G75*
G02*
X230020000Y-33590000I-150000J0D01*
G01*
G37*
G36*
G01*
X214780000Y-33590000D02*
X214480000Y-33590000D01*
G75*
G02*
X214330000Y-33440000I0J150000D01*
G01*
X214330000Y-31990000D01*
G75*
G02*
X214480000Y-31840000I150000J0D01*
G01*
X214780000Y-31840000D01*
G75*
G02*
X214930000Y-31990000I0J-150000D01*
G01*
X214930000Y-33440000D01*
G75*
G02*
X214780000Y-33590000I-150000J0D01*
G01*
G37*
G36*
G01*
X216050000Y-33590000D02*
X215750000Y-33590000D01*
G75*
G02*
X215600000Y-33440000I0J150000D01*
G01*
X215600000Y-31990000D01*
G75*
G02*
X215750000Y-31840000I150000J0D01*
G01*
X216050000Y-31840000D01*
G75*
G02*
X216200000Y-31990000I0J-150000D01*
G01*
X216200000Y-33440000D01*
G75*
G02*
X216050000Y-33590000I-150000J0D01*
G01*
G37*
G36*
G01*
X217320000Y-33590000D02*
X217020000Y-33590000D01*
G75*
G02*
X216870000Y-33440000I0J150000D01*
G01*
X216870000Y-31990000D01*
G75*
G02*
X217020000Y-31840000I150000J0D01*
G01*
X217320000Y-31840000D01*
G75*
G02*
X217470000Y-31990000I0J-150000D01*
G01*
X217470000Y-33440000D01*
G75*
G02*
X217320000Y-33590000I-150000J0D01*
G01*
G37*
G36*
G01*
X218590000Y-33590000D02*
X218290000Y-33590000D01*
G75*
G02*
X218140000Y-33440000I0J150000D01*
G01*
X218140000Y-31990000D01*
G75*
G02*
X218290000Y-31840000I150000J0D01*
G01*
X218590000Y-31840000D01*
G75*
G02*
X218740000Y-31990000I0J-150000D01*
G01*
X218740000Y-33440000D01*
G75*
G02*
X218590000Y-33590000I-150000J0D01*
G01*
G37*
G36*
G01*
X219860000Y-33590000D02*
X219560000Y-33590000D01*
G75*
G02*
X219410000Y-33440000I0J150000D01*
G01*
X219410000Y-31990000D01*
G75*
G02*
X219560000Y-31840000I150000J0D01*
G01*
X219860000Y-31840000D01*
G75*
G02*
X220010000Y-31990000I0J-150000D01*
G01*
X220010000Y-33440000D01*
G75*
G02*
X219860000Y-33590000I-150000J0D01*
G01*
G37*
G36*
G01*
X221130000Y-33590000D02*
X220830000Y-33590000D01*
G75*
G02*
X220680000Y-33440000I0J150000D01*
G01*
X220680000Y-31990000D01*
G75*
G02*
X220830000Y-31840000I150000J0D01*
G01*
X221130000Y-31840000D01*
G75*
G02*
X221280000Y-31990000I0J-150000D01*
G01*
X221280000Y-33440000D01*
G75*
G02*
X221130000Y-33590000I-150000J0D01*
G01*
G37*
G36*
G01*
X222400000Y-33590000D02*
X222100000Y-33590000D01*
G75*
G02*
X221950000Y-33440000I0J150000D01*
G01*
X221950000Y-31990000D01*
G75*
G02*
X222100000Y-31840000I150000J0D01*
G01*
X222400000Y-31840000D01*
G75*
G02*
X222550000Y-31990000I0J-150000D01*
G01*
X222550000Y-33440000D01*
G75*
G02*
X222400000Y-33590000I-150000J0D01*
G01*
G37*
G36*
G01*
X223670000Y-33590000D02*
X223370000Y-33590000D01*
G75*
G02*
X223220000Y-33440000I0J150000D01*
G01*
X223220000Y-31990000D01*
G75*
G02*
X223370000Y-31840000I150000J0D01*
G01*
X223670000Y-31840000D01*
G75*
G02*
X223820000Y-31990000I0J-150000D01*
G01*
X223820000Y-33440000D01*
G75*
G02*
X223670000Y-33590000I-150000J0D01*
G01*
G37*
G36*
G01*
X224940000Y-33590000D02*
X224640000Y-33590000D01*
G75*
G02*
X224490000Y-33440000I0J150000D01*
G01*
X224490000Y-31990000D01*
G75*
G02*
X224640000Y-31840000I150000J0D01*
G01*
X224940000Y-31840000D01*
G75*
G02*
X225090000Y-31990000I0J-150000D01*
G01*
X225090000Y-33440000D01*
G75*
G02*
X224940000Y-33590000I-150000J0D01*
G01*
G37*
G36*
G01*
X224940000Y-24040000D02*
X224640000Y-24040000D01*
G75*
G02*
X224490000Y-23890000I0J150000D01*
G01*
X224490000Y-22440000D01*
G75*
G02*
X224640000Y-22290000I150000J0D01*
G01*
X224940000Y-22290000D01*
G75*
G02*
X225090000Y-22440000I0J-150000D01*
G01*
X225090000Y-23890000D01*
G75*
G02*
X224940000Y-24040000I-150000J0D01*
G01*
G37*
G36*
G01*
X223670000Y-24040000D02*
X223370000Y-24040000D01*
G75*
G02*
X223220000Y-23890000I0J150000D01*
G01*
X223220000Y-22440000D01*
G75*
G02*
X223370000Y-22290000I150000J0D01*
G01*
X223670000Y-22290000D01*
G75*
G02*
X223820000Y-22440000I0J-150000D01*
G01*
X223820000Y-23890000D01*
G75*
G02*
X223670000Y-24040000I-150000J0D01*
G01*
G37*
G36*
G01*
X222400000Y-24040000D02*
X222100000Y-24040000D01*
G75*
G02*
X221950000Y-23890000I0J150000D01*
G01*
X221950000Y-22440000D01*
G75*
G02*
X222100000Y-22290000I150000J0D01*
G01*
X222400000Y-22290000D01*
G75*
G02*
X222550000Y-22440000I0J-150000D01*
G01*
X222550000Y-23890000D01*
G75*
G02*
X222400000Y-24040000I-150000J0D01*
G01*
G37*
G36*
G01*
X221130000Y-24040000D02*
X220830000Y-24040000D01*
G75*
G02*
X220680000Y-23890000I0J150000D01*
G01*
X220680000Y-22440000D01*
G75*
G02*
X220830000Y-22290000I150000J0D01*
G01*
X221130000Y-22290000D01*
G75*
G02*
X221280000Y-22440000I0J-150000D01*
G01*
X221280000Y-23890000D01*
G75*
G02*
X221130000Y-24040000I-150000J0D01*
G01*
G37*
G36*
G01*
X219860000Y-24040000D02*
X219560000Y-24040000D01*
G75*
G02*
X219410000Y-23890000I0J150000D01*
G01*
X219410000Y-22440000D01*
G75*
G02*
X219560000Y-22290000I150000J0D01*
G01*
X219860000Y-22290000D01*
G75*
G02*
X220010000Y-22440000I0J-150000D01*
G01*
X220010000Y-23890000D01*
G75*
G02*
X219860000Y-24040000I-150000J0D01*
G01*
G37*
G36*
G01*
X218590000Y-24040000D02*
X218290000Y-24040000D01*
G75*
G02*
X218140000Y-23890000I0J150000D01*
G01*
X218140000Y-22440000D01*
G75*
G02*
X218290000Y-22290000I150000J0D01*
G01*
X218590000Y-22290000D01*
G75*
G02*
X218740000Y-22440000I0J-150000D01*
G01*
X218740000Y-23890000D01*
G75*
G02*
X218590000Y-24040000I-150000J0D01*
G01*
G37*
G36*
G01*
X217320000Y-24040000D02*
X217020000Y-24040000D01*
G75*
G02*
X216870000Y-23890000I0J150000D01*
G01*
X216870000Y-22440000D01*
G75*
G02*
X217020000Y-22290000I150000J0D01*
G01*
X217320000Y-22290000D01*
G75*
G02*
X217470000Y-22440000I0J-150000D01*
G01*
X217470000Y-23890000D01*
G75*
G02*
X217320000Y-24040000I-150000J0D01*
G01*
G37*
G36*
G01*
X216050000Y-24040000D02*
X215750000Y-24040000D01*
G75*
G02*
X215600000Y-23890000I0J150000D01*
G01*
X215600000Y-22440000D01*
G75*
G02*
X215750000Y-22290000I150000J0D01*
G01*
X216050000Y-22290000D01*
G75*
G02*
X216200000Y-22440000I0J-150000D01*
G01*
X216200000Y-23890000D01*
G75*
G02*
X216050000Y-24040000I-150000J0D01*
G01*
G37*
G36*
G01*
X214780000Y-24040000D02*
X214480000Y-24040000D01*
G75*
G02*
X214330000Y-23890000I0J150000D01*
G01*
X214330000Y-22440000D01*
G75*
G02*
X214480000Y-22290000I150000J0D01*
G01*
X214780000Y-22290000D01*
G75*
G02*
X214930000Y-22440000I0J-150000D01*
G01*
X214930000Y-23890000D01*
G75*
G02*
X214780000Y-24040000I-150000J0D01*
G01*
G37*
G36*
G01*
X117625000Y-42950000D02*
X117325000Y-42950000D01*
G75*
G02*
X117175000Y-42800000I0J150000D01*
G01*
X117175000Y-41150000D01*
G75*
G02*
X117325000Y-41000000I150000J0D01*
G01*
X117625000Y-41000000D01*
G75*
G02*
X117775000Y-41150000I0J-150000D01*
G01*
X117775000Y-42800000D01*
G75*
G02*
X117625000Y-42950000I-150000J0D01*
G01*
G37*
G36*
G01*
X118895000Y-42950000D02*
X118595000Y-42950000D01*
G75*
G02*
X118445000Y-42800000I0J150000D01*
G01*
X118445000Y-41150000D01*
G75*
G02*
X118595000Y-41000000I150000J0D01*
G01*
X118895000Y-41000000D01*
G75*
G02*
X119045000Y-41150000I0J-150000D01*
G01*
X119045000Y-42800000D01*
G75*
G02*
X118895000Y-42950000I-150000J0D01*
G01*
G37*
G36*
G01*
X120165000Y-42950000D02*
X119865000Y-42950000D01*
G75*
G02*
X119715000Y-42800000I0J150000D01*
G01*
X119715000Y-41150000D01*
G75*
G02*
X119865000Y-41000000I150000J0D01*
G01*
X120165000Y-41000000D01*
G75*
G02*
X120315000Y-41150000I0J-150000D01*
G01*
X120315000Y-42800000D01*
G75*
G02*
X120165000Y-42950000I-150000J0D01*
G01*
G37*
G36*
G01*
X121435000Y-42950000D02*
X121135000Y-42950000D01*
G75*
G02*
X120985000Y-42800000I0J150000D01*
G01*
X120985000Y-41150000D01*
G75*
G02*
X121135000Y-41000000I150000J0D01*
G01*
X121435000Y-41000000D01*
G75*
G02*
X121585000Y-41150000I0J-150000D01*
G01*
X121585000Y-42800000D01*
G75*
G02*
X121435000Y-42950000I-150000J0D01*
G01*
G37*
G36*
G01*
X122705000Y-42950000D02*
X122405000Y-42950000D01*
G75*
G02*
X122255000Y-42800000I0J150000D01*
G01*
X122255000Y-41150000D01*
G75*
G02*
X122405000Y-41000000I150000J0D01*
G01*
X122705000Y-41000000D01*
G75*
G02*
X122855000Y-41150000I0J-150000D01*
G01*
X122855000Y-42800000D01*
G75*
G02*
X122705000Y-42950000I-150000J0D01*
G01*
G37*
G36*
G01*
X123975000Y-42950000D02*
X123675000Y-42950000D01*
G75*
G02*
X123525000Y-42800000I0J150000D01*
G01*
X123525000Y-41150000D01*
G75*
G02*
X123675000Y-41000000I150000J0D01*
G01*
X123975000Y-41000000D01*
G75*
G02*
X124125000Y-41150000I0J-150000D01*
G01*
X124125000Y-42800000D01*
G75*
G02*
X123975000Y-42950000I-150000J0D01*
G01*
G37*
G36*
G01*
X125245000Y-42950000D02*
X124945000Y-42950000D01*
G75*
G02*
X124795000Y-42800000I0J150000D01*
G01*
X124795000Y-41150000D01*
G75*
G02*
X124945000Y-41000000I150000J0D01*
G01*
X125245000Y-41000000D01*
G75*
G02*
X125395000Y-41150000I0J-150000D01*
G01*
X125395000Y-42800000D01*
G75*
G02*
X125245000Y-42950000I-150000J0D01*
G01*
G37*
G36*
G01*
X126515000Y-42950000D02*
X126215000Y-42950000D01*
G75*
G02*
X126065000Y-42800000I0J150000D01*
G01*
X126065000Y-41150000D01*
G75*
G02*
X126215000Y-41000000I150000J0D01*
G01*
X126515000Y-41000000D01*
G75*
G02*
X126665000Y-41150000I0J-150000D01*
G01*
X126665000Y-42800000D01*
G75*
G02*
X126515000Y-42950000I-150000J0D01*
G01*
G37*
G36*
G01*
X126515000Y-47900000D02*
X126215000Y-47900000D01*
G75*
G02*
X126065000Y-47750000I0J150000D01*
G01*
X126065000Y-46100000D01*
G75*
G02*
X126215000Y-45950000I150000J0D01*
G01*
X126515000Y-45950000D01*
G75*
G02*
X126665000Y-46100000I0J-150000D01*
G01*
X126665000Y-47750000D01*
G75*
G02*
X126515000Y-47900000I-150000J0D01*
G01*
G37*
G36*
G01*
X125245000Y-47900000D02*
X124945000Y-47900000D01*
G75*
G02*
X124795000Y-47750000I0J150000D01*
G01*
X124795000Y-46100000D01*
G75*
G02*
X124945000Y-45950000I150000J0D01*
G01*
X125245000Y-45950000D01*
G75*
G02*
X125395000Y-46100000I0J-150000D01*
G01*
X125395000Y-47750000D01*
G75*
G02*
X125245000Y-47900000I-150000J0D01*
G01*
G37*
G36*
G01*
X123975000Y-47900000D02*
X123675000Y-47900000D01*
G75*
G02*
X123525000Y-47750000I0J150000D01*
G01*
X123525000Y-46100000D01*
G75*
G02*
X123675000Y-45950000I150000J0D01*
G01*
X123975000Y-45950000D01*
G75*
G02*
X124125000Y-46100000I0J-150000D01*
G01*
X124125000Y-47750000D01*
G75*
G02*
X123975000Y-47900000I-150000J0D01*
G01*
G37*
G36*
G01*
X122705000Y-47900000D02*
X122405000Y-47900000D01*
G75*
G02*
X122255000Y-47750000I0J150000D01*
G01*
X122255000Y-46100000D01*
G75*
G02*
X122405000Y-45950000I150000J0D01*
G01*
X122705000Y-45950000D01*
G75*
G02*
X122855000Y-46100000I0J-150000D01*
G01*
X122855000Y-47750000D01*
G75*
G02*
X122705000Y-47900000I-150000J0D01*
G01*
G37*
G36*
G01*
X121435000Y-47900000D02*
X121135000Y-47900000D01*
G75*
G02*
X120985000Y-47750000I0J150000D01*
G01*
X120985000Y-46100000D01*
G75*
G02*
X121135000Y-45950000I150000J0D01*
G01*
X121435000Y-45950000D01*
G75*
G02*
X121585000Y-46100000I0J-150000D01*
G01*
X121585000Y-47750000D01*
G75*
G02*
X121435000Y-47900000I-150000J0D01*
G01*
G37*
G36*
G01*
X120165000Y-47900000D02*
X119865000Y-47900000D01*
G75*
G02*
X119715000Y-47750000I0J150000D01*
G01*
X119715000Y-46100000D01*
G75*
G02*
X119865000Y-45950000I150000J0D01*
G01*
X120165000Y-45950000D01*
G75*
G02*
X120315000Y-46100000I0J-150000D01*
G01*
X120315000Y-47750000D01*
G75*
G02*
X120165000Y-47900000I-150000J0D01*
G01*
G37*
G36*
G01*
X118895000Y-47900000D02*
X118595000Y-47900000D01*
G75*
G02*
X118445000Y-47750000I0J150000D01*
G01*
X118445000Y-46100000D01*
G75*
G02*
X118595000Y-45950000I150000J0D01*
G01*
X118895000Y-45950000D01*
G75*
G02*
X119045000Y-46100000I0J-150000D01*
G01*
X119045000Y-47750000D01*
G75*
G02*
X118895000Y-47900000I-150000J0D01*
G01*
G37*
G36*
G01*
X117625000Y-47900000D02*
X117325000Y-47900000D01*
G75*
G02*
X117175000Y-47750000I0J150000D01*
G01*
X117175000Y-46100000D01*
G75*
G02*
X117325000Y-45950000I150000J0D01*
G01*
X117625000Y-45950000D01*
G75*
G02*
X117775000Y-46100000I0J-150000D01*
G01*
X117775000Y-47750000D01*
G75*
G02*
X117625000Y-47900000I-150000J0D01*
G01*
G37*
G36*
G01*
X89685000Y-47900000D02*
X89385000Y-47900000D01*
G75*
G02*
X89235000Y-47750000I0J150000D01*
G01*
X89235000Y-46100000D01*
G75*
G02*
X89385000Y-45950000I150000J0D01*
G01*
X89685000Y-45950000D01*
G75*
G02*
X89835000Y-46100000I0J-150000D01*
G01*
X89835000Y-47750000D01*
G75*
G02*
X89685000Y-47900000I-150000J0D01*
G01*
G37*
G36*
G01*
X90955000Y-47900000D02*
X90655000Y-47900000D01*
G75*
G02*
X90505000Y-47750000I0J150000D01*
G01*
X90505000Y-46100000D01*
G75*
G02*
X90655000Y-45950000I150000J0D01*
G01*
X90955000Y-45950000D01*
G75*
G02*
X91105000Y-46100000I0J-150000D01*
G01*
X91105000Y-47750000D01*
G75*
G02*
X90955000Y-47900000I-150000J0D01*
G01*
G37*
G36*
G01*
X92225000Y-47900000D02*
X91925000Y-47900000D01*
G75*
G02*
X91775000Y-47750000I0J150000D01*
G01*
X91775000Y-46100000D01*
G75*
G02*
X91925000Y-45950000I150000J0D01*
G01*
X92225000Y-45950000D01*
G75*
G02*
X92375000Y-46100000I0J-150000D01*
G01*
X92375000Y-47750000D01*
G75*
G02*
X92225000Y-47900000I-150000J0D01*
G01*
G37*
G36*
G01*
X93495000Y-47900000D02*
X93195000Y-47900000D01*
G75*
G02*
X93045000Y-47750000I0J150000D01*
G01*
X93045000Y-46100000D01*
G75*
G02*
X93195000Y-45950000I150000J0D01*
G01*
X93495000Y-45950000D01*
G75*
G02*
X93645000Y-46100000I0J-150000D01*
G01*
X93645000Y-47750000D01*
G75*
G02*
X93495000Y-47900000I-150000J0D01*
G01*
G37*
G36*
G01*
X94765000Y-47900000D02*
X94465000Y-47900000D01*
G75*
G02*
X94315000Y-47750000I0J150000D01*
G01*
X94315000Y-46100000D01*
G75*
G02*
X94465000Y-45950000I150000J0D01*
G01*
X94765000Y-45950000D01*
G75*
G02*
X94915000Y-46100000I0J-150000D01*
G01*
X94915000Y-47750000D01*
G75*
G02*
X94765000Y-47900000I-150000J0D01*
G01*
G37*
G36*
G01*
X96035000Y-47900000D02*
X95735000Y-47900000D01*
G75*
G02*
X95585000Y-47750000I0J150000D01*
G01*
X95585000Y-46100000D01*
G75*
G02*
X95735000Y-45950000I150000J0D01*
G01*
X96035000Y-45950000D01*
G75*
G02*
X96185000Y-46100000I0J-150000D01*
G01*
X96185000Y-47750000D01*
G75*
G02*
X96035000Y-47900000I-150000J0D01*
G01*
G37*
G36*
G01*
X97305000Y-47900000D02*
X97005000Y-47900000D01*
G75*
G02*
X96855000Y-47750000I0J150000D01*
G01*
X96855000Y-46100000D01*
G75*
G02*
X97005000Y-45950000I150000J0D01*
G01*
X97305000Y-45950000D01*
G75*
G02*
X97455000Y-46100000I0J-150000D01*
G01*
X97455000Y-47750000D01*
G75*
G02*
X97305000Y-47900000I-150000J0D01*
G01*
G37*
G36*
G01*
X98575000Y-47900000D02*
X98275000Y-47900000D01*
G75*
G02*
X98125000Y-47750000I0J150000D01*
G01*
X98125000Y-46100000D01*
G75*
G02*
X98275000Y-45950000I150000J0D01*
G01*
X98575000Y-45950000D01*
G75*
G02*
X98725000Y-46100000I0J-150000D01*
G01*
X98725000Y-47750000D01*
G75*
G02*
X98575000Y-47900000I-150000J0D01*
G01*
G37*
G36*
G01*
X98575000Y-42950000D02*
X98275000Y-42950000D01*
G75*
G02*
X98125000Y-42800000I0J150000D01*
G01*
X98125000Y-41150000D01*
G75*
G02*
X98275000Y-41000000I150000J0D01*
G01*
X98575000Y-41000000D01*
G75*
G02*
X98725000Y-41150000I0J-150000D01*
G01*
X98725000Y-42800000D01*
G75*
G02*
X98575000Y-42950000I-150000J0D01*
G01*
G37*
G36*
G01*
X97305000Y-42950000D02*
X97005000Y-42950000D01*
G75*
G02*
X96855000Y-42800000I0J150000D01*
G01*
X96855000Y-41150000D01*
G75*
G02*
X97005000Y-41000000I150000J0D01*
G01*
X97305000Y-41000000D01*
G75*
G02*
X97455000Y-41150000I0J-150000D01*
G01*
X97455000Y-42800000D01*
G75*
G02*
X97305000Y-42950000I-150000J0D01*
G01*
G37*
G36*
G01*
X96035000Y-42950000D02*
X95735000Y-42950000D01*
G75*
G02*
X95585000Y-42800000I0J150000D01*
G01*
X95585000Y-41150000D01*
G75*
G02*
X95735000Y-41000000I150000J0D01*
G01*
X96035000Y-41000000D01*
G75*
G02*
X96185000Y-41150000I0J-150000D01*
G01*
X96185000Y-42800000D01*
G75*
G02*
X96035000Y-42950000I-150000J0D01*
G01*
G37*
G36*
G01*
X94765000Y-42950000D02*
X94465000Y-42950000D01*
G75*
G02*
X94315000Y-42800000I0J150000D01*
G01*
X94315000Y-41150000D01*
G75*
G02*
X94465000Y-41000000I150000J0D01*
G01*
X94765000Y-41000000D01*
G75*
G02*
X94915000Y-41150000I0J-150000D01*
G01*
X94915000Y-42800000D01*
G75*
G02*
X94765000Y-42950000I-150000J0D01*
G01*
G37*
G36*
G01*
X93495000Y-42950000D02*
X93195000Y-42950000D01*
G75*
G02*
X93045000Y-42800000I0J150000D01*
G01*
X93045000Y-41150000D01*
G75*
G02*
X93195000Y-41000000I150000J0D01*
G01*
X93495000Y-41000000D01*
G75*
G02*
X93645000Y-41150000I0J-150000D01*
G01*
X93645000Y-42800000D01*
G75*
G02*
X93495000Y-42950000I-150000J0D01*
G01*
G37*
G36*
G01*
X92225000Y-42950000D02*
X91925000Y-42950000D01*
G75*
G02*
X91775000Y-42800000I0J150000D01*
G01*
X91775000Y-41150000D01*
G75*
G02*
X91925000Y-41000000I150000J0D01*
G01*
X92225000Y-41000000D01*
G75*
G02*
X92375000Y-41150000I0J-150000D01*
G01*
X92375000Y-42800000D01*
G75*
G02*
X92225000Y-42950000I-150000J0D01*
G01*
G37*
G36*
G01*
X90955000Y-42950000D02*
X90655000Y-42950000D01*
G75*
G02*
X90505000Y-42800000I0J150000D01*
G01*
X90505000Y-41150000D01*
G75*
G02*
X90655000Y-41000000I150000J0D01*
G01*
X90955000Y-41000000D01*
G75*
G02*
X91105000Y-41150000I0J-150000D01*
G01*
X91105000Y-42800000D01*
G75*
G02*
X90955000Y-42950000I-150000J0D01*
G01*
G37*
G36*
G01*
X89685000Y-42950000D02*
X89385000Y-42950000D01*
G75*
G02*
X89235000Y-42800000I0J150000D01*
G01*
X89235000Y-41150000D01*
G75*
G02*
X89385000Y-41000000I150000J0D01*
G01*
X89685000Y-41000000D01*
G75*
G02*
X89835000Y-41150000I0J-150000D01*
G01*
X89835000Y-42800000D01*
G75*
G02*
X89685000Y-42950000I-150000J0D01*
G01*
G37*
G36*
G01*
X61745000Y-42950000D02*
X61445000Y-42950000D01*
G75*
G02*
X61295000Y-42800000I0J150000D01*
G01*
X61295000Y-41150000D01*
G75*
G02*
X61445000Y-41000000I150000J0D01*
G01*
X61745000Y-41000000D01*
G75*
G02*
X61895000Y-41150000I0J-150000D01*
G01*
X61895000Y-42800000D01*
G75*
G02*
X61745000Y-42950000I-150000J0D01*
G01*
G37*
G36*
G01*
X63015000Y-42950000D02*
X62715000Y-42950000D01*
G75*
G02*
X62565000Y-42800000I0J150000D01*
G01*
X62565000Y-41150000D01*
G75*
G02*
X62715000Y-41000000I150000J0D01*
G01*
X63015000Y-41000000D01*
G75*
G02*
X63165000Y-41150000I0J-150000D01*
G01*
X63165000Y-42800000D01*
G75*
G02*
X63015000Y-42950000I-150000J0D01*
G01*
G37*
G36*
G01*
X64285000Y-42950000D02*
X63985000Y-42950000D01*
G75*
G02*
X63835000Y-42800000I0J150000D01*
G01*
X63835000Y-41150000D01*
G75*
G02*
X63985000Y-41000000I150000J0D01*
G01*
X64285000Y-41000000D01*
G75*
G02*
X64435000Y-41150000I0J-150000D01*
G01*
X64435000Y-42800000D01*
G75*
G02*
X64285000Y-42950000I-150000J0D01*
G01*
G37*
G36*
G01*
X65555000Y-42950000D02*
X65255000Y-42950000D01*
G75*
G02*
X65105000Y-42800000I0J150000D01*
G01*
X65105000Y-41150000D01*
G75*
G02*
X65255000Y-41000000I150000J0D01*
G01*
X65555000Y-41000000D01*
G75*
G02*
X65705000Y-41150000I0J-150000D01*
G01*
X65705000Y-42800000D01*
G75*
G02*
X65555000Y-42950000I-150000J0D01*
G01*
G37*
G36*
G01*
X66825000Y-42950000D02*
X66525000Y-42950000D01*
G75*
G02*
X66375000Y-42800000I0J150000D01*
G01*
X66375000Y-41150000D01*
G75*
G02*
X66525000Y-41000000I150000J0D01*
G01*
X66825000Y-41000000D01*
G75*
G02*
X66975000Y-41150000I0J-150000D01*
G01*
X66975000Y-42800000D01*
G75*
G02*
X66825000Y-42950000I-150000J0D01*
G01*
G37*
G36*
G01*
X68095000Y-42950000D02*
X67795000Y-42950000D01*
G75*
G02*
X67645000Y-42800000I0J150000D01*
G01*
X67645000Y-41150000D01*
G75*
G02*
X67795000Y-41000000I150000J0D01*
G01*
X68095000Y-41000000D01*
G75*
G02*
X68245000Y-41150000I0J-150000D01*
G01*
X68245000Y-42800000D01*
G75*
G02*
X68095000Y-42950000I-150000J0D01*
G01*
G37*
G36*
G01*
X69365000Y-42950000D02*
X69065000Y-42950000D01*
G75*
G02*
X68915000Y-42800000I0J150000D01*
G01*
X68915000Y-41150000D01*
G75*
G02*
X69065000Y-41000000I150000J0D01*
G01*
X69365000Y-41000000D01*
G75*
G02*
X69515000Y-41150000I0J-150000D01*
G01*
X69515000Y-42800000D01*
G75*
G02*
X69365000Y-42950000I-150000J0D01*
G01*
G37*
G36*
G01*
X70635000Y-42950000D02*
X70335000Y-42950000D01*
G75*
G02*
X70185000Y-42800000I0J150000D01*
G01*
X70185000Y-41150000D01*
G75*
G02*
X70335000Y-41000000I150000J0D01*
G01*
X70635000Y-41000000D01*
G75*
G02*
X70785000Y-41150000I0J-150000D01*
G01*
X70785000Y-42800000D01*
G75*
G02*
X70635000Y-42950000I-150000J0D01*
G01*
G37*
G36*
G01*
X70635000Y-47900000D02*
X70335000Y-47900000D01*
G75*
G02*
X70185000Y-47750000I0J150000D01*
G01*
X70185000Y-46100000D01*
G75*
G02*
X70335000Y-45950000I150000J0D01*
G01*
X70635000Y-45950000D01*
G75*
G02*
X70785000Y-46100000I0J-150000D01*
G01*
X70785000Y-47750000D01*
G75*
G02*
X70635000Y-47900000I-150000J0D01*
G01*
G37*
G36*
G01*
X69365000Y-47900000D02*
X69065000Y-47900000D01*
G75*
G02*
X68915000Y-47750000I0J150000D01*
G01*
X68915000Y-46100000D01*
G75*
G02*
X69065000Y-45950000I150000J0D01*
G01*
X69365000Y-45950000D01*
G75*
G02*
X69515000Y-46100000I0J-150000D01*
G01*
X69515000Y-47750000D01*
G75*
G02*
X69365000Y-47900000I-150000J0D01*
G01*
G37*
G36*
G01*
X68095000Y-47900000D02*
X67795000Y-47900000D01*
G75*
G02*
X67645000Y-47750000I0J150000D01*
G01*
X67645000Y-46100000D01*
G75*
G02*
X67795000Y-45950000I150000J0D01*
G01*
X68095000Y-45950000D01*
G75*
G02*
X68245000Y-46100000I0J-150000D01*
G01*
X68245000Y-47750000D01*
G75*
G02*
X68095000Y-47900000I-150000J0D01*
G01*
G37*
G36*
G01*
X66825000Y-47900000D02*
X66525000Y-47900000D01*
G75*
G02*
X66375000Y-47750000I0J150000D01*
G01*
X66375000Y-46100000D01*
G75*
G02*
X66525000Y-45950000I150000J0D01*
G01*
X66825000Y-45950000D01*
G75*
G02*
X66975000Y-46100000I0J-150000D01*
G01*
X66975000Y-47750000D01*
G75*
G02*
X66825000Y-47900000I-150000J0D01*
G01*
G37*
G36*
G01*
X65555000Y-47900000D02*
X65255000Y-47900000D01*
G75*
G02*
X65105000Y-47750000I0J150000D01*
G01*
X65105000Y-46100000D01*
G75*
G02*
X65255000Y-45950000I150000J0D01*
G01*
X65555000Y-45950000D01*
G75*
G02*
X65705000Y-46100000I0J-150000D01*
G01*
X65705000Y-47750000D01*
G75*
G02*
X65555000Y-47900000I-150000J0D01*
G01*
G37*
G36*
G01*
X64285000Y-47900000D02*
X63985000Y-47900000D01*
G75*
G02*
X63835000Y-47750000I0J150000D01*
G01*
X63835000Y-46100000D01*
G75*
G02*
X63985000Y-45950000I150000J0D01*
G01*
X64285000Y-45950000D01*
G75*
G02*
X64435000Y-46100000I0J-150000D01*
G01*
X64435000Y-47750000D01*
G75*
G02*
X64285000Y-47900000I-150000J0D01*
G01*
G37*
G36*
G01*
X63015000Y-47900000D02*
X62715000Y-47900000D01*
G75*
G02*
X62565000Y-47750000I0J150000D01*
G01*
X62565000Y-46100000D01*
G75*
G02*
X62715000Y-45950000I150000J0D01*
G01*
X63015000Y-45950000D01*
G75*
G02*
X63165000Y-46100000I0J-150000D01*
G01*
X63165000Y-47750000D01*
G75*
G02*
X63015000Y-47900000I-150000J0D01*
G01*
G37*
G36*
G01*
X61745000Y-47900000D02*
X61445000Y-47900000D01*
G75*
G02*
X61295000Y-47750000I0J150000D01*
G01*
X61295000Y-46100000D01*
G75*
G02*
X61445000Y-45950000I150000J0D01*
G01*
X61745000Y-45950000D01*
G75*
G02*
X61895000Y-46100000I0J-150000D01*
G01*
X61895000Y-47750000D01*
G75*
G02*
X61745000Y-47900000I-150000J0D01*
G01*
G37*
G36*
G01*
X33805000Y-47900000D02*
X33505000Y-47900000D01*
G75*
G02*
X33355000Y-47750000I0J150000D01*
G01*
X33355000Y-46100000D01*
G75*
G02*
X33505000Y-45950000I150000J0D01*
G01*
X33805000Y-45950000D01*
G75*
G02*
X33955000Y-46100000I0J-150000D01*
G01*
X33955000Y-47750000D01*
G75*
G02*
X33805000Y-47900000I-150000J0D01*
G01*
G37*
G36*
G01*
X35075000Y-47900000D02*
X34775000Y-47900000D01*
G75*
G02*
X34625000Y-47750000I0J150000D01*
G01*
X34625000Y-46100000D01*
G75*
G02*
X34775000Y-45950000I150000J0D01*
G01*
X35075000Y-45950000D01*
G75*
G02*
X35225000Y-46100000I0J-150000D01*
G01*
X35225000Y-47750000D01*
G75*
G02*
X35075000Y-47900000I-150000J0D01*
G01*
G37*
G36*
G01*
X36345000Y-47900000D02*
X36045000Y-47900000D01*
G75*
G02*
X35895000Y-47750000I0J150000D01*
G01*
X35895000Y-46100000D01*
G75*
G02*
X36045000Y-45950000I150000J0D01*
G01*
X36345000Y-45950000D01*
G75*
G02*
X36495000Y-46100000I0J-150000D01*
G01*
X36495000Y-47750000D01*
G75*
G02*
X36345000Y-47900000I-150000J0D01*
G01*
G37*
G36*
G01*
X37615000Y-47900000D02*
X37315000Y-47900000D01*
G75*
G02*
X37165000Y-47750000I0J150000D01*
G01*
X37165000Y-46100000D01*
G75*
G02*
X37315000Y-45950000I150000J0D01*
G01*
X37615000Y-45950000D01*
G75*
G02*
X37765000Y-46100000I0J-150000D01*
G01*
X37765000Y-47750000D01*
G75*
G02*
X37615000Y-47900000I-150000J0D01*
G01*
G37*
G36*
G01*
X38885000Y-47900000D02*
X38585000Y-47900000D01*
G75*
G02*
X38435000Y-47750000I0J150000D01*
G01*
X38435000Y-46100000D01*
G75*
G02*
X38585000Y-45950000I150000J0D01*
G01*
X38885000Y-45950000D01*
G75*
G02*
X39035000Y-46100000I0J-150000D01*
G01*
X39035000Y-47750000D01*
G75*
G02*
X38885000Y-47900000I-150000J0D01*
G01*
G37*
G36*
G01*
X40155000Y-47900000D02*
X39855000Y-47900000D01*
G75*
G02*
X39705000Y-47750000I0J150000D01*
G01*
X39705000Y-46100000D01*
G75*
G02*
X39855000Y-45950000I150000J0D01*
G01*
X40155000Y-45950000D01*
G75*
G02*
X40305000Y-46100000I0J-150000D01*
G01*
X40305000Y-47750000D01*
G75*
G02*
X40155000Y-47900000I-150000J0D01*
G01*
G37*
G36*
G01*
X41425000Y-47900000D02*
X41125000Y-47900000D01*
G75*
G02*
X40975000Y-47750000I0J150000D01*
G01*
X40975000Y-46100000D01*
G75*
G02*
X41125000Y-45950000I150000J0D01*
G01*
X41425000Y-45950000D01*
G75*
G02*
X41575000Y-46100000I0J-150000D01*
G01*
X41575000Y-47750000D01*
G75*
G02*
X41425000Y-47900000I-150000J0D01*
G01*
G37*
G36*
G01*
X42695000Y-47900000D02*
X42395000Y-47900000D01*
G75*
G02*
X42245000Y-47750000I0J150000D01*
G01*
X42245000Y-46100000D01*
G75*
G02*
X42395000Y-45950000I150000J0D01*
G01*
X42695000Y-45950000D01*
G75*
G02*
X42845000Y-46100000I0J-150000D01*
G01*
X42845000Y-47750000D01*
G75*
G02*
X42695000Y-47900000I-150000J0D01*
G01*
G37*
G36*
G01*
X42695000Y-42950000D02*
X42395000Y-42950000D01*
G75*
G02*
X42245000Y-42800000I0J150000D01*
G01*
X42245000Y-41150000D01*
G75*
G02*
X42395000Y-41000000I150000J0D01*
G01*
X42695000Y-41000000D01*
G75*
G02*
X42845000Y-41150000I0J-150000D01*
G01*
X42845000Y-42800000D01*
G75*
G02*
X42695000Y-42950000I-150000J0D01*
G01*
G37*
G36*
G01*
X41425000Y-42950000D02*
X41125000Y-42950000D01*
G75*
G02*
X40975000Y-42800000I0J150000D01*
G01*
X40975000Y-41150000D01*
G75*
G02*
X41125000Y-41000000I150000J0D01*
G01*
X41425000Y-41000000D01*
G75*
G02*
X41575000Y-41150000I0J-150000D01*
G01*
X41575000Y-42800000D01*
G75*
G02*
X41425000Y-42950000I-150000J0D01*
G01*
G37*
G36*
G01*
X40155000Y-42950000D02*
X39855000Y-42950000D01*
G75*
G02*
X39705000Y-42800000I0J150000D01*
G01*
X39705000Y-41150000D01*
G75*
G02*
X39855000Y-41000000I150000J0D01*
G01*
X40155000Y-41000000D01*
G75*
G02*
X40305000Y-41150000I0J-150000D01*
G01*
X40305000Y-42800000D01*
G75*
G02*
X40155000Y-42950000I-150000J0D01*
G01*
G37*
G36*
G01*
X38885000Y-42950000D02*
X38585000Y-42950000D01*
G75*
G02*
X38435000Y-42800000I0J150000D01*
G01*
X38435000Y-41150000D01*
G75*
G02*
X38585000Y-41000000I150000J0D01*
G01*
X38885000Y-41000000D01*
G75*
G02*
X39035000Y-41150000I0J-150000D01*
G01*
X39035000Y-42800000D01*
G75*
G02*
X38885000Y-42950000I-150000J0D01*
G01*
G37*
G36*
G01*
X37615000Y-42950000D02*
X37315000Y-42950000D01*
G75*
G02*
X37165000Y-42800000I0J150000D01*
G01*
X37165000Y-41150000D01*
G75*
G02*
X37315000Y-41000000I150000J0D01*
G01*
X37615000Y-41000000D01*
G75*
G02*
X37765000Y-41150000I0J-150000D01*
G01*
X37765000Y-42800000D01*
G75*
G02*
X37615000Y-42950000I-150000J0D01*
G01*
G37*
G36*
G01*
X36345000Y-42950000D02*
X36045000Y-42950000D01*
G75*
G02*
X35895000Y-42800000I0J150000D01*
G01*
X35895000Y-41150000D01*
G75*
G02*
X36045000Y-41000000I150000J0D01*
G01*
X36345000Y-41000000D01*
G75*
G02*
X36495000Y-41150000I0J-150000D01*
G01*
X36495000Y-42800000D01*
G75*
G02*
X36345000Y-42950000I-150000J0D01*
G01*
G37*
G36*
G01*
X35075000Y-42950000D02*
X34775000Y-42950000D01*
G75*
G02*
X34625000Y-42800000I0J150000D01*
G01*
X34625000Y-41150000D01*
G75*
G02*
X34775000Y-41000000I150000J0D01*
G01*
X35075000Y-41000000D01*
G75*
G02*
X35225000Y-41150000I0J-150000D01*
G01*
X35225000Y-42800000D01*
G75*
G02*
X35075000Y-42950000I-150000J0D01*
G01*
G37*
G36*
G01*
X33805000Y-42950000D02*
X33505000Y-42950000D01*
G75*
G02*
X33355000Y-42800000I0J150000D01*
G01*
X33355000Y-41150000D01*
G75*
G02*
X33505000Y-41000000I150000J0D01*
G01*
X33805000Y-41000000D01*
G75*
G02*
X33955000Y-41150000I0J-150000D01*
G01*
X33955000Y-42800000D01*
G75*
G02*
X33805000Y-42950000I-150000J0D01*
G01*
G37*
G36*
G01*
X70335000Y-29440000D02*
X70635000Y-29440000D01*
G75*
G02*
X70785000Y-29590000I0J-150000D01*
G01*
X70785000Y-31240000D01*
G75*
G02*
X70635000Y-31390000I-150000J0D01*
G01*
X70335000Y-31390000D01*
G75*
G02*
X70185000Y-31240000I0J150000D01*
G01*
X70185000Y-29590000D01*
G75*
G02*
X70335000Y-29440000I150000J0D01*
G01*
G37*
G36*
G01*
X69065000Y-29440000D02*
X69365000Y-29440000D01*
G75*
G02*
X69515000Y-29590000I0J-150000D01*
G01*
X69515000Y-31240000D01*
G75*
G02*
X69365000Y-31390000I-150000J0D01*
G01*
X69065000Y-31390000D01*
G75*
G02*
X68915000Y-31240000I0J150000D01*
G01*
X68915000Y-29590000D01*
G75*
G02*
X69065000Y-29440000I150000J0D01*
G01*
G37*
G36*
G01*
X67795000Y-29440000D02*
X68095000Y-29440000D01*
G75*
G02*
X68245000Y-29590000I0J-150000D01*
G01*
X68245000Y-31240000D01*
G75*
G02*
X68095000Y-31390000I-150000J0D01*
G01*
X67795000Y-31390000D01*
G75*
G02*
X67645000Y-31240000I0J150000D01*
G01*
X67645000Y-29590000D01*
G75*
G02*
X67795000Y-29440000I150000J0D01*
G01*
G37*
G36*
G01*
X66525000Y-29440000D02*
X66825000Y-29440000D01*
G75*
G02*
X66975000Y-29590000I0J-150000D01*
G01*
X66975000Y-31240000D01*
G75*
G02*
X66825000Y-31390000I-150000J0D01*
G01*
X66525000Y-31390000D01*
G75*
G02*
X66375000Y-31240000I0J150000D01*
G01*
X66375000Y-29590000D01*
G75*
G02*
X66525000Y-29440000I150000J0D01*
G01*
G37*
G36*
G01*
X65255000Y-29440000D02*
X65555000Y-29440000D01*
G75*
G02*
X65705000Y-29590000I0J-150000D01*
G01*
X65705000Y-31240000D01*
G75*
G02*
X65555000Y-31390000I-150000J0D01*
G01*
X65255000Y-31390000D01*
G75*
G02*
X65105000Y-31240000I0J150000D01*
G01*
X65105000Y-29590000D01*
G75*
G02*
X65255000Y-29440000I150000J0D01*
G01*
G37*
G36*
G01*
X63985000Y-29440000D02*
X64285000Y-29440000D01*
G75*
G02*
X64435000Y-29590000I0J-150000D01*
G01*
X64435000Y-31240000D01*
G75*
G02*
X64285000Y-31390000I-150000J0D01*
G01*
X63985000Y-31390000D01*
G75*
G02*
X63835000Y-31240000I0J150000D01*
G01*
X63835000Y-29590000D01*
G75*
G02*
X63985000Y-29440000I150000J0D01*
G01*
G37*
G36*
G01*
X62715000Y-29440000D02*
X63015000Y-29440000D01*
G75*
G02*
X63165000Y-29590000I0J-150000D01*
G01*
X63165000Y-31240000D01*
G75*
G02*
X63015000Y-31390000I-150000J0D01*
G01*
X62715000Y-31390000D01*
G75*
G02*
X62565000Y-31240000I0J150000D01*
G01*
X62565000Y-29590000D01*
G75*
G02*
X62715000Y-29440000I150000J0D01*
G01*
G37*
G36*
G01*
X61445000Y-29440000D02*
X61745000Y-29440000D01*
G75*
G02*
X61895000Y-29590000I0J-150000D01*
G01*
X61895000Y-31240000D01*
G75*
G02*
X61745000Y-31390000I-150000J0D01*
G01*
X61445000Y-31390000D01*
G75*
G02*
X61295000Y-31240000I0J150000D01*
G01*
X61295000Y-29590000D01*
G75*
G02*
X61445000Y-29440000I150000J0D01*
G01*
G37*
G36*
G01*
X61445000Y-24490000D02*
X61745000Y-24490000D01*
G75*
G02*
X61895000Y-24640000I0J-150000D01*
G01*
X61895000Y-26290000D01*
G75*
G02*
X61745000Y-26440000I-150000J0D01*
G01*
X61445000Y-26440000D01*
G75*
G02*
X61295000Y-26290000I0J150000D01*
G01*
X61295000Y-24640000D01*
G75*
G02*
X61445000Y-24490000I150000J0D01*
G01*
G37*
G36*
G01*
X62715000Y-24490000D02*
X63015000Y-24490000D01*
G75*
G02*
X63165000Y-24640000I0J-150000D01*
G01*
X63165000Y-26290000D01*
G75*
G02*
X63015000Y-26440000I-150000J0D01*
G01*
X62715000Y-26440000D01*
G75*
G02*
X62565000Y-26290000I0J150000D01*
G01*
X62565000Y-24640000D01*
G75*
G02*
X62715000Y-24490000I150000J0D01*
G01*
G37*
G36*
G01*
X63985000Y-24490000D02*
X64285000Y-24490000D01*
G75*
G02*
X64435000Y-24640000I0J-150000D01*
G01*
X64435000Y-26290000D01*
G75*
G02*
X64285000Y-26440000I-150000J0D01*
G01*
X63985000Y-26440000D01*
G75*
G02*
X63835000Y-26290000I0J150000D01*
G01*
X63835000Y-24640000D01*
G75*
G02*
X63985000Y-24490000I150000J0D01*
G01*
G37*
G36*
G01*
X65255000Y-24490000D02*
X65555000Y-24490000D01*
G75*
G02*
X65705000Y-24640000I0J-150000D01*
G01*
X65705000Y-26290000D01*
G75*
G02*
X65555000Y-26440000I-150000J0D01*
G01*
X65255000Y-26440000D01*
G75*
G02*
X65105000Y-26290000I0J150000D01*
G01*
X65105000Y-24640000D01*
G75*
G02*
X65255000Y-24490000I150000J0D01*
G01*
G37*
G36*
G01*
X66525000Y-24490000D02*
X66825000Y-24490000D01*
G75*
G02*
X66975000Y-24640000I0J-150000D01*
G01*
X66975000Y-26290000D01*
G75*
G02*
X66825000Y-26440000I-150000J0D01*
G01*
X66525000Y-26440000D01*
G75*
G02*
X66375000Y-26290000I0J150000D01*
G01*
X66375000Y-24640000D01*
G75*
G02*
X66525000Y-24490000I150000J0D01*
G01*
G37*
G36*
G01*
X67795000Y-24490000D02*
X68095000Y-24490000D01*
G75*
G02*
X68245000Y-24640000I0J-150000D01*
G01*
X68245000Y-26290000D01*
G75*
G02*
X68095000Y-26440000I-150000J0D01*
G01*
X67795000Y-26440000D01*
G75*
G02*
X67645000Y-26290000I0J150000D01*
G01*
X67645000Y-24640000D01*
G75*
G02*
X67795000Y-24490000I150000J0D01*
G01*
G37*
G36*
G01*
X69065000Y-24490000D02*
X69365000Y-24490000D01*
G75*
G02*
X69515000Y-24640000I0J-150000D01*
G01*
X69515000Y-26290000D01*
G75*
G02*
X69365000Y-26440000I-150000J0D01*
G01*
X69065000Y-26440000D01*
G75*
G02*
X68915000Y-26290000I0J150000D01*
G01*
X68915000Y-24640000D01*
G75*
G02*
X69065000Y-24490000I150000J0D01*
G01*
G37*
G36*
G01*
X70335000Y-24490000D02*
X70635000Y-24490000D01*
G75*
G02*
X70785000Y-24640000I0J-150000D01*
G01*
X70785000Y-26290000D01*
G75*
G02*
X70635000Y-26440000I-150000J0D01*
G01*
X70335000Y-26440000D01*
G75*
G02*
X70185000Y-26290000I0J150000D01*
G01*
X70185000Y-24640000D01*
G75*
G02*
X70335000Y-24490000I150000J0D01*
G01*
G37*
G36*
G01*
X98275000Y-24490000D02*
X98575000Y-24490000D01*
G75*
G02*
X98725000Y-24640000I0J-150000D01*
G01*
X98725000Y-26290000D01*
G75*
G02*
X98575000Y-26440000I-150000J0D01*
G01*
X98275000Y-26440000D01*
G75*
G02*
X98125000Y-26290000I0J150000D01*
G01*
X98125000Y-24640000D01*
G75*
G02*
X98275000Y-24490000I150000J0D01*
G01*
G37*
G36*
G01*
X97005000Y-24490000D02*
X97305000Y-24490000D01*
G75*
G02*
X97455000Y-24640000I0J-150000D01*
G01*
X97455000Y-26290000D01*
G75*
G02*
X97305000Y-26440000I-150000J0D01*
G01*
X97005000Y-26440000D01*
G75*
G02*
X96855000Y-26290000I0J150000D01*
G01*
X96855000Y-24640000D01*
G75*
G02*
X97005000Y-24490000I150000J0D01*
G01*
G37*
G36*
G01*
X95735000Y-24490000D02*
X96035000Y-24490000D01*
G75*
G02*
X96185000Y-24640000I0J-150000D01*
G01*
X96185000Y-26290000D01*
G75*
G02*
X96035000Y-26440000I-150000J0D01*
G01*
X95735000Y-26440000D01*
G75*
G02*
X95585000Y-26290000I0J150000D01*
G01*
X95585000Y-24640000D01*
G75*
G02*
X95735000Y-24490000I150000J0D01*
G01*
G37*
G36*
G01*
X94465000Y-24490000D02*
X94765000Y-24490000D01*
G75*
G02*
X94915000Y-24640000I0J-150000D01*
G01*
X94915000Y-26290000D01*
G75*
G02*
X94765000Y-26440000I-150000J0D01*
G01*
X94465000Y-26440000D01*
G75*
G02*
X94315000Y-26290000I0J150000D01*
G01*
X94315000Y-24640000D01*
G75*
G02*
X94465000Y-24490000I150000J0D01*
G01*
G37*
G36*
G01*
X93195000Y-24490000D02*
X93495000Y-24490000D01*
G75*
G02*
X93645000Y-24640000I0J-150000D01*
G01*
X93645000Y-26290000D01*
G75*
G02*
X93495000Y-26440000I-150000J0D01*
G01*
X93195000Y-26440000D01*
G75*
G02*
X93045000Y-26290000I0J150000D01*
G01*
X93045000Y-24640000D01*
G75*
G02*
X93195000Y-24490000I150000J0D01*
G01*
G37*
G36*
G01*
X91925000Y-24490000D02*
X92225000Y-24490000D01*
G75*
G02*
X92375000Y-24640000I0J-150000D01*
G01*
X92375000Y-26290000D01*
G75*
G02*
X92225000Y-26440000I-150000J0D01*
G01*
X91925000Y-26440000D01*
G75*
G02*
X91775000Y-26290000I0J150000D01*
G01*
X91775000Y-24640000D01*
G75*
G02*
X91925000Y-24490000I150000J0D01*
G01*
G37*
G36*
G01*
X90655000Y-24490000D02*
X90955000Y-24490000D01*
G75*
G02*
X91105000Y-24640000I0J-150000D01*
G01*
X91105000Y-26290000D01*
G75*
G02*
X90955000Y-26440000I-150000J0D01*
G01*
X90655000Y-26440000D01*
G75*
G02*
X90505000Y-26290000I0J150000D01*
G01*
X90505000Y-24640000D01*
G75*
G02*
X90655000Y-24490000I150000J0D01*
G01*
G37*
G36*
G01*
X89385000Y-24490000D02*
X89685000Y-24490000D01*
G75*
G02*
X89835000Y-24640000I0J-150000D01*
G01*
X89835000Y-26290000D01*
G75*
G02*
X89685000Y-26440000I-150000J0D01*
G01*
X89385000Y-26440000D01*
G75*
G02*
X89235000Y-26290000I0J150000D01*
G01*
X89235000Y-24640000D01*
G75*
G02*
X89385000Y-24490000I150000J0D01*
G01*
G37*
G36*
G01*
X89385000Y-29440000D02*
X89685000Y-29440000D01*
G75*
G02*
X89835000Y-29590000I0J-150000D01*
G01*
X89835000Y-31240000D01*
G75*
G02*
X89685000Y-31390000I-150000J0D01*
G01*
X89385000Y-31390000D01*
G75*
G02*
X89235000Y-31240000I0J150000D01*
G01*
X89235000Y-29590000D01*
G75*
G02*
X89385000Y-29440000I150000J0D01*
G01*
G37*
G36*
G01*
X90655000Y-29440000D02*
X90955000Y-29440000D01*
G75*
G02*
X91105000Y-29590000I0J-150000D01*
G01*
X91105000Y-31240000D01*
G75*
G02*
X90955000Y-31390000I-150000J0D01*
G01*
X90655000Y-31390000D01*
G75*
G02*
X90505000Y-31240000I0J150000D01*
G01*
X90505000Y-29590000D01*
G75*
G02*
X90655000Y-29440000I150000J0D01*
G01*
G37*
G36*
G01*
X91925000Y-29440000D02*
X92225000Y-29440000D01*
G75*
G02*
X92375000Y-29590000I0J-150000D01*
G01*
X92375000Y-31240000D01*
G75*
G02*
X92225000Y-31390000I-150000J0D01*
G01*
X91925000Y-31390000D01*
G75*
G02*
X91775000Y-31240000I0J150000D01*
G01*
X91775000Y-29590000D01*
G75*
G02*
X91925000Y-29440000I150000J0D01*
G01*
G37*
G36*
G01*
X93195000Y-29440000D02*
X93495000Y-29440000D01*
G75*
G02*
X93645000Y-29590000I0J-150000D01*
G01*
X93645000Y-31240000D01*
G75*
G02*
X93495000Y-31390000I-150000J0D01*
G01*
X93195000Y-31390000D01*
G75*
G02*
X93045000Y-31240000I0J150000D01*
G01*
X93045000Y-29590000D01*
G75*
G02*
X93195000Y-29440000I150000J0D01*
G01*
G37*
G36*
G01*
X94465000Y-29440000D02*
X94765000Y-29440000D01*
G75*
G02*
X94915000Y-29590000I0J-150000D01*
G01*
X94915000Y-31240000D01*
G75*
G02*
X94765000Y-31390000I-150000J0D01*
G01*
X94465000Y-31390000D01*
G75*
G02*
X94315000Y-31240000I0J150000D01*
G01*
X94315000Y-29590000D01*
G75*
G02*
X94465000Y-29440000I150000J0D01*
G01*
G37*
G36*
G01*
X95735000Y-29440000D02*
X96035000Y-29440000D01*
G75*
G02*
X96185000Y-29590000I0J-150000D01*
G01*
X96185000Y-31240000D01*
G75*
G02*
X96035000Y-31390000I-150000J0D01*
G01*
X95735000Y-31390000D01*
G75*
G02*
X95585000Y-31240000I0J150000D01*
G01*
X95585000Y-29590000D01*
G75*
G02*
X95735000Y-29440000I150000J0D01*
G01*
G37*
G36*
G01*
X97005000Y-29440000D02*
X97305000Y-29440000D01*
G75*
G02*
X97455000Y-29590000I0J-150000D01*
G01*
X97455000Y-31240000D01*
G75*
G02*
X97305000Y-31390000I-150000J0D01*
G01*
X97005000Y-31390000D01*
G75*
G02*
X96855000Y-31240000I0J150000D01*
G01*
X96855000Y-29590000D01*
G75*
G02*
X97005000Y-29440000I150000J0D01*
G01*
G37*
G36*
G01*
X98275000Y-29440000D02*
X98575000Y-29440000D01*
G75*
G02*
X98725000Y-29590000I0J-150000D01*
G01*
X98725000Y-31240000D01*
G75*
G02*
X98575000Y-31390000I-150000J0D01*
G01*
X98275000Y-31390000D01*
G75*
G02*
X98125000Y-31240000I0J150000D01*
G01*
X98125000Y-29590000D01*
G75*
G02*
X98275000Y-29440000I150000J0D01*
G01*
G37*
G36*
G01*
X126215000Y-24490000D02*
X126515000Y-24490000D01*
G75*
G02*
X126665000Y-24640000I0J-150000D01*
G01*
X126665000Y-26290000D01*
G75*
G02*
X126515000Y-26440000I-150000J0D01*
G01*
X126215000Y-26440000D01*
G75*
G02*
X126065000Y-26290000I0J150000D01*
G01*
X126065000Y-24640000D01*
G75*
G02*
X126215000Y-24490000I150000J0D01*
G01*
G37*
G36*
G01*
X124945000Y-24490000D02*
X125245000Y-24490000D01*
G75*
G02*
X125395000Y-24640000I0J-150000D01*
G01*
X125395000Y-26290000D01*
G75*
G02*
X125245000Y-26440000I-150000J0D01*
G01*
X124945000Y-26440000D01*
G75*
G02*
X124795000Y-26290000I0J150000D01*
G01*
X124795000Y-24640000D01*
G75*
G02*
X124945000Y-24490000I150000J0D01*
G01*
G37*
G36*
G01*
X123675000Y-24490000D02*
X123975000Y-24490000D01*
G75*
G02*
X124125000Y-24640000I0J-150000D01*
G01*
X124125000Y-26290000D01*
G75*
G02*
X123975000Y-26440000I-150000J0D01*
G01*
X123675000Y-26440000D01*
G75*
G02*
X123525000Y-26290000I0J150000D01*
G01*
X123525000Y-24640000D01*
G75*
G02*
X123675000Y-24490000I150000J0D01*
G01*
G37*
G36*
G01*
X122405000Y-24490000D02*
X122705000Y-24490000D01*
G75*
G02*
X122855000Y-24640000I0J-150000D01*
G01*
X122855000Y-26290000D01*
G75*
G02*
X122705000Y-26440000I-150000J0D01*
G01*
X122405000Y-26440000D01*
G75*
G02*
X122255000Y-26290000I0J150000D01*
G01*
X122255000Y-24640000D01*
G75*
G02*
X122405000Y-24490000I150000J0D01*
G01*
G37*
G36*
G01*
X121135000Y-24490000D02*
X121435000Y-24490000D01*
G75*
G02*
X121585000Y-24640000I0J-150000D01*
G01*
X121585000Y-26290000D01*
G75*
G02*
X121435000Y-26440000I-150000J0D01*
G01*
X121135000Y-26440000D01*
G75*
G02*
X120985000Y-26290000I0J150000D01*
G01*
X120985000Y-24640000D01*
G75*
G02*
X121135000Y-24490000I150000J0D01*
G01*
G37*
G36*
G01*
X119865000Y-24490000D02*
X120165000Y-24490000D01*
G75*
G02*
X120315000Y-24640000I0J-150000D01*
G01*
X120315000Y-26290000D01*
G75*
G02*
X120165000Y-26440000I-150000J0D01*
G01*
X119865000Y-26440000D01*
G75*
G02*
X119715000Y-26290000I0J150000D01*
G01*
X119715000Y-24640000D01*
G75*
G02*
X119865000Y-24490000I150000J0D01*
G01*
G37*
G36*
G01*
X118595000Y-24490000D02*
X118895000Y-24490000D01*
G75*
G02*
X119045000Y-24640000I0J-150000D01*
G01*
X119045000Y-26290000D01*
G75*
G02*
X118895000Y-26440000I-150000J0D01*
G01*
X118595000Y-26440000D01*
G75*
G02*
X118445000Y-26290000I0J150000D01*
G01*
X118445000Y-24640000D01*
G75*
G02*
X118595000Y-24490000I150000J0D01*
G01*
G37*
G36*
G01*
X117325000Y-24490000D02*
X117625000Y-24490000D01*
G75*
G02*
X117775000Y-24640000I0J-150000D01*
G01*
X117775000Y-26290000D01*
G75*
G02*
X117625000Y-26440000I-150000J0D01*
G01*
X117325000Y-26440000D01*
G75*
G02*
X117175000Y-26290000I0J150000D01*
G01*
X117175000Y-24640000D01*
G75*
G02*
X117325000Y-24490000I150000J0D01*
G01*
G37*
G36*
G01*
X117325000Y-29440000D02*
X117625000Y-29440000D01*
G75*
G02*
X117775000Y-29590000I0J-150000D01*
G01*
X117775000Y-31240000D01*
G75*
G02*
X117625000Y-31390000I-150000J0D01*
G01*
X117325000Y-31390000D01*
G75*
G02*
X117175000Y-31240000I0J150000D01*
G01*
X117175000Y-29590000D01*
G75*
G02*
X117325000Y-29440000I150000J0D01*
G01*
G37*
G36*
G01*
X118595000Y-29440000D02*
X118895000Y-29440000D01*
G75*
G02*
X119045000Y-29590000I0J-150000D01*
G01*
X119045000Y-31240000D01*
G75*
G02*
X118895000Y-31390000I-150000J0D01*
G01*
X118595000Y-31390000D01*
G75*
G02*
X118445000Y-31240000I0J150000D01*
G01*
X118445000Y-29590000D01*
G75*
G02*
X118595000Y-29440000I150000J0D01*
G01*
G37*
G36*
G01*
X119865000Y-29440000D02*
X120165000Y-29440000D01*
G75*
G02*
X120315000Y-29590000I0J-150000D01*
G01*
X120315000Y-31240000D01*
G75*
G02*
X120165000Y-31390000I-150000J0D01*
G01*
X119865000Y-31390000D01*
G75*
G02*
X119715000Y-31240000I0J150000D01*
G01*
X119715000Y-29590000D01*
G75*
G02*
X119865000Y-29440000I150000J0D01*
G01*
G37*
G36*
G01*
X121135000Y-29440000D02*
X121435000Y-29440000D01*
G75*
G02*
X121585000Y-29590000I0J-150000D01*
G01*
X121585000Y-31240000D01*
G75*
G02*
X121435000Y-31390000I-150000J0D01*
G01*
X121135000Y-31390000D01*
G75*
G02*
X120985000Y-31240000I0J150000D01*
G01*
X120985000Y-29590000D01*
G75*
G02*
X121135000Y-29440000I150000J0D01*
G01*
G37*
G36*
G01*
X122405000Y-29440000D02*
X122705000Y-29440000D01*
G75*
G02*
X122855000Y-29590000I0J-150000D01*
G01*
X122855000Y-31240000D01*
G75*
G02*
X122705000Y-31390000I-150000J0D01*
G01*
X122405000Y-31390000D01*
G75*
G02*
X122255000Y-31240000I0J150000D01*
G01*
X122255000Y-29590000D01*
G75*
G02*
X122405000Y-29440000I150000J0D01*
G01*
G37*
G36*
G01*
X123675000Y-29440000D02*
X123975000Y-29440000D01*
G75*
G02*
X124125000Y-29590000I0J-150000D01*
G01*
X124125000Y-31240000D01*
G75*
G02*
X123975000Y-31390000I-150000J0D01*
G01*
X123675000Y-31390000D01*
G75*
G02*
X123525000Y-31240000I0J150000D01*
G01*
X123525000Y-29590000D01*
G75*
G02*
X123675000Y-29440000I150000J0D01*
G01*
G37*
G36*
G01*
X124945000Y-29440000D02*
X125245000Y-29440000D01*
G75*
G02*
X125395000Y-29590000I0J-150000D01*
G01*
X125395000Y-31240000D01*
G75*
G02*
X125245000Y-31390000I-150000J0D01*
G01*
X124945000Y-31390000D01*
G75*
G02*
X124795000Y-31240000I0J150000D01*
G01*
X124795000Y-29590000D01*
G75*
G02*
X124945000Y-29440000I150000J0D01*
G01*
G37*
G36*
G01*
X126215000Y-29440000D02*
X126515000Y-29440000D01*
G75*
G02*
X126665000Y-29590000I0J-150000D01*
G01*
X126665000Y-31240000D01*
G75*
G02*
X126515000Y-31390000I-150000J0D01*
G01*
X126215000Y-31390000D01*
G75*
G02*
X126065000Y-31240000I0J150000D01*
G01*
X126065000Y-29590000D01*
G75*
G02*
X126215000Y-29440000I150000J0D01*
G01*
G37*
G36*
G01*
X154155000Y-29440000D02*
X154455000Y-29440000D01*
G75*
G02*
X154605000Y-29590000I0J-150000D01*
G01*
X154605000Y-31240000D01*
G75*
G02*
X154455000Y-31390000I-150000J0D01*
G01*
X154155000Y-31390000D01*
G75*
G02*
X154005000Y-31240000I0J150000D01*
G01*
X154005000Y-29590000D01*
G75*
G02*
X154155000Y-29440000I150000J0D01*
G01*
G37*
G36*
G01*
X152885000Y-29440000D02*
X153185000Y-29440000D01*
G75*
G02*
X153335000Y-29590000I0J-150000D01*
G01*
X153335000Y-31240000D01*
G75*
G02*
X153185000Y-31390000I-150000J0D01*
G01*
X152885000Y-31390000D01*
G75*
G02*
X152735000Y-31240000I0J150000D01*
G01*
X152735000Y-29590000D01*
G75*
G02*
X152885000Y-29440000I150000J0D01*
G01*
G37*
G36*
G01*
X151615000Y-29440000D02*
X151915000Y-29440000D01*
G75*
G02*
X152065000Y-29590000I0J-150000D01*
G01*
X152065000Y-31240000D01*
G75*
G02*
X151915000Y-31390000I-150000J0D01*
G01*
X151615000Y-31390000D01*
G75*
G02*
X151465000Y-31240000I0J150000D01*
G01*
X151465000Y-29590000D01*
G75*
G02*
X151615000Y-29440000I150000J0D01*
G01*
G37*
G36*
G01*
X150345000Y-29440000D02*
X150645000Y-29440000D01*
G75*
G02*
X150795000Y-29590000I0J-150000D01*
G01*
X150795000Y-31240000D01*
G75*
G02*
X150645000Y-31390000I-150000J0D01*
G01*
X150345000Y-31390000D01*
G75*
G02*
X150195000Y-31240000I0J150000D01*
G01*
X150195000Y-29590000D01*
G75*
G02*
X150345000Y-29440000I150000J0D01*
G01*
G37*
G36*
G01*
X149075000Y-29440000D02*
X149375000Y-29440000D01*
G75*
G02*
X149525000Y-29590000I0J-150000D01*
G01*
X149525000Y-31240000D01*
G75*
G02*
X149375000Y-31390000I-150000J0D01*
G01*
X149075000Y-31390000D01*
G75*
G02*
X148925000Y-31240000I0J150000D01*
G01*
X148925000Y-29590000D01*
G75*
G02*
X149075000Y-29440000I150000J0D01*
G01*
G37*
G36*
G01*
X147805000Y-29440000D02*
X148105000Y-29440000D01*
G75*
G02*
X148255000Y-29590000I0J-150000D01*
G01*
X148255000Y-31240000D01*
G75*
G02*
X148105000Y-31390000I-150000J0D01*
G01*
X147805000Y-31390000D01*
G75*
G02*
X147655000Y-31240000I0J150000D01*
G01*
X147655000Y-29590000D01*
G75*
G02*
X147805000Y-29440000I150000J0D01*
G01*
G37*
G36*
G01*
X146535000Y-29440000D02*
X146835000Y-29440000D01*
G75*
G02*
X146985000Y-29590000I0J-150000D01*
G01*
X146985000Y-31240000D01*
G75*
G02*
X146835000Y-31390000I-150000J0D01*
G01*
X146535000Y-31390000D01*
G75*
G02*
X146385000Y-31240000I0J150000D01*
G01*
X146385000Y-29590000D01*
G75*
G02*
X146535000Y-29440000I150000J0D01*
G01*
G37*
G36*
G01*
X145265000Y-29440000D02*
X145565000Y-29440000D01*
G75*
G02*
X145715000Y-29590000I0J-150000D01*
G01*
X145715000Y-31240000D01*
G75*
G02*
X145565000Y-31390000I-150000J0D01*
G01*
X145265000Y-31390000D01*
G75*
G02*
X145115000Y-31240000I0J150000D01*
G01*
X145115000Y-29590000D01*
G75*
G02*
X145265000Y-29440000I150000J0D01*
G01*
G37*
G36*
G01*
X145265000Y-24490000D02*
X145565000Y-24490000D01*
G75*
G02*
X145715000Y-24640000I0J-150000D01*
G01*
X145715000Y-26290000D01*
G75*
G02*
X145565000Y-26440000I-150000J0D01*
G01*
X145265000Y-26440000D01*
G75*
G02*
X145115000Y-26290000I0J150000D01*
G01*
X145115000Y-24640000D01*
G75*
G02*
X145265000Y-24490000I150000J0D01*
G01*
G37*
G36*
G01*
X146535000Y-24490000D02*
X146835000Y-24490000D01*
G75*
G02*
X146985000Y-24640000I0J-150000D01*
G01*
X146985000Y-26290000D01*
G75*
G02*
X146835000Y-26440000I-150000J0D01*
G01*
X146535000Y-26440000D01*
G75*
G02*
X146385000Y-26290000I0J150000D01*
G01*
X146385000Y-24640000D01*
G75*
G02*
X146535000Y-24490000I150000J0D01*
G01*
G37*
G36*
G01*
X147805000Y-24490000D02*
X148105000Y-24490000D01*
G75*
G02*
X148255000Y-24640000I0J-150000D01*
G01*
X148255000Y-26290000D01*
G75*
G02*
X148105000Y-26440000I-150000J0D01*
G01*
X147805000Y-26440000D01*
G75*
G02*
X147655000Y-26290000I0J150000D01*
G01*
X147655000Y-24640000D01*
G75*
G02*
X147805000Y-24490000I150000J0D01*
G01*
G37*
G36*
G01*
X149075000Y-24490000D02*
X149375000Y-24490000D01*
G75*
G02*
X149525000Y-24640000I0J-150000D01*
G01*
X149525000Y-26290000D01*
G75*
G02*
X149375000Y-26440000I-150000J0D01*
G01*
X149075000Y-26440000D01*
G75*
G02*
X148925000Y-26290000I0J150000D01*
G01*
X148925000Y-24640000D01*
G75*
G02*
X149075000Y-24490000I150000J0D01*
G01*
G37*
G36*
G01*
X150345000Y-24490000D02*
X150645000Y-24490000D01*
G75*
G02*
X150795000Y-24640000I0J-150000D01*
G01*
X150795000Y-26290000D01*
G75*
G02*
X150645000Y-26440000I-150000J0D01*
G01*
X150345000Y-26440000D01*
G75*
G02*
X150195000Y-26290000I0J150000D01*
G01*
X150195000Y-24640000D01*
G75*
G02*
X150345000Y-24490000I150000J0D01*
G01*
G37*
G36*
G01*
X151615000Y-24490000D02*
X151915000Y-24490000D01*
G75*
G02*
X152065000Y-24640000I0J-150000D01*
G01*
X152065000Y-26290000D01*
G75*
G02*
X151915000Y-26440000I-150000J0D01*
G01*
X151615000Y-26440000D01*
G75*
G02*
X151465000Y-26290000I0J150000D01*
G01*
X151465000Y-24640000D01*
G75*
G02*
X151615000Y-24490000I150000J0D01*
G01*
G37*
G36*
G01*
X152885000Y-24490000D02*
X153185000Y-24490000D01*
G75*
G02*
X153335000Y-24640000I0J-150000D01*
G01*
X153335000Y-26290000D01*
G75*
G02*
X153185000Y-26440000I-150000J0D01*
G01*
X152885000Y-26440000D01*
G75*
G02*
X152735000Y-26290000I0J150000D01*
G01*
X152735000Y-24640000D01*
G75*
G02*
X152885000Y-24490000I150000J0D01*
G01*
G37*
G36*
G01*
X154155000Y-24490000D02*
X154455000Y-24490000D01*
G75*
G02*
X154605000Y-24640000I0J-150000D01*
G01*
X154605000Y-26290000D01*
G75*
G02*
X154455000Y-26440000I-150000J0D01*
G01*
X154155000Y-26440000D01*
G75*
G02*
X154005000Y-26290000I0J150000D01*
G01*
X154005000Y-24640000D01*
G75*
G02*
X154155000Y-24490000I150000J0D01*
G01*
G37*
G36*
G01*
X182095000Y-29440000D02*
X182395000Y-29440000D01*
G75*
G02*
X182545000Y-29590000I0J-150000D01*
G01*
X182545000Y-31240000D01*
G75*
G02*
X182395000Y-31390000I-150000J0D01*
G01*
X182095000Y-31390000D01*
G75*
G02*
X181945000Y-31240000I0J150000D01*
G01*
X181945000Y-29590000D01*
G75*
G02*
X182095000Y-29440000I150000J0D01*
G01*
G37*
G36*
G01*
X180825000Y-29440000D02*
X181125000Y-29440000D01*
G75*
G02*
X181275000Y-29590000I0J-150000D01*
G01*
X181275000Y-31240000D01*
G75*
G02*
X181125000Y-31390000I-150000J0D01*
G01*
X180825000Y-31390000D01*
G75*
G02*
X180675000Y-31240000I0J150000D01*
G01*
X180675000Y-29590000D01*
G75*
G02*
X180825000Y-29440000I150000J0D01*
G01*
G37*
G36*
G01*
X179555000Y-29440000D02*
X179855000Y-29440000D01*
G75*
G02*
X180005000Y-29590000I0J-150000D01*
G01*
X180005000Y-31240000D01*
G75*
G02*
X179855000Y-31390000I-150000J0D01*
G01*
X179555000Y-31390000D01*
G75*
G02*
X179405000Y-31240000I0J150000D01*
G01*
X179405000Y-29590000D01*
G75*
G02*
X179555000Y-29440000I150000J0D01*
G01*
G37*
G36*
G01*
X178285000Y-29440000D02*
X178585000Y-29440000D01*
G75*
G02*
X178735000Y-29590000I0J-150000D01*
G01*
X178735000Y-31240000D01*
G75*
G02*
X178585000Y-31390000I-150000J0D01*
G01*
X178285000Y-31390000D01*
G75*
G02*
X178135000Y-31240000I0J150000D01*
G01*
X178135000Y-29590000D01*
G75*
G02*
X178285000Y-29440000I150000J0D01*
G01*
G37*
G36*
G01*
X177015000Y-29440000D02*
X177315000Y-29440000D01*
G75*
G02*
X177465000Y-29590000I0J-150000D01*
G01*
X177465000Y-31240000D01*
G75*
G02*
X177315000Y-31390000I-150000J0D01*
G01*
X177015000Y-31390000D01*
G75*
G02*
X176865000Y-31240000I0J150000D01*
G01*
X176865000Y-29590000D01*
G75*
G02*
X177015000Y-29440000I150000J0D01*
G01*
G37*
G36*
G01*
X175745000Y-29440000D02*
X176045000Y-29440000D01*
G75*
G02*
X176195000Y-29590000I0J-150000D01*
G01*
X176195000Y-31240000D01*
G75*
G02*
X176045000Y-31390000I-150000J0D01*
G01*
X175745000Y-31390000D01*
G75*
G02*
X175595000Y-31240000I0J150000D01*
G01*
X175595000Y-29590000D01*
G75*
G02*
X175745000Y-29440000I150000J0D01*
G01*
G37*
G36*
G01*
X174475000Y-29440000D02*
X174775000Y-29440000D01*
G75*
G02*
X174925000Y-29590000I0J-150000D01*
G01*
X174925000Y-31240000D01*
G75*
G02*
X174775000Y-31390000I-150000J0D01*
G01*
X174475000Y-31390000D01*
G75*
G02*
X174325000Y-31240000I0J150000D01*
G01*
X174325000Y-29590000D01*
G75*
G02*
X174475000Y-29440000I150000J0D01*
G01*
G37*
G36*
G01*
X173205000Y-29440000D02*
X173505000Y-29440000D01*
G75*
G02*
X173655000Y-29590000I0J-150000D01*
G01*
X173655000Y-31240000D01*
G75*
G02*
X173505000Y-31390000I-150000J0D01*
G01*
X173205000Y-31390000D01*
G75*
G02*
X173055000Y-31240000I0J150000D01*
G01*
X173055000Y-29590000D01*
G75*
G02*
X173205000Y-29440000I150000J0D01*
G01*
G37*
G36*
G01*
X173205000Y-24490000D02*
X173505000Y-24490000D01*
G75*
G02*
X173655000Y-24640000I0J-150000D01*
G01*
X173655000Y-26290000D01*
G75*
G02*
X173505000Y-26440000I-150000J0D01*
G01*
X173205000Y-26440000D01*
G75*
G02*
X173055000Y-26290000I0J150000D01*
G01*
X173055000Y-24640000D01*
G75*
G02*
X173205000Y-24490000I150000J0D01*
G01*
G37*
G36*
G01*
X174475000Y-24490000D02*
X174775000Y-24490000D01*
G75*
G02*
X174925000Y-24640000I0J-150000D01*
G01*
X174925000Y-26290000D01*
G75*
G02*
X174775000Y-26440000I-150000J0D01*
G01*
X174475000Y-26440000D01*
G75*
G02*
X174325000Y-26290000I0J150000D01*
G01*
X174325000Y-24640000D01*
G75*
G02*
X174475000Y-24490000I150000J0D01*
G01*
G37*
G36*
G01*
X175745000Y-24490000D02*
X176045000Y-24490000D01*
G75*
G02*
X176195000Y-24640000I0J-150000D01*
G01*
X176195000Y-26290000D01*
G75*
G02*
X176045000Y-26440000I-150000J0D01*
G01*
X175745000Y-26440000D01*
G75*
G02*
X175595000Y-26290000I0J150000D01*
G01*
X175595000Y-24640000D01*
G75*
G02*
X175745000Y-24490000I150000J0D01*
G01*
G37*
G36*
G01*
X177015000Y-24490000D02*
X177315000Y-24490000D01*
G75*
G02*
X177465000Y-24640000I0J-150000D01*
G01*
X177465000Y-26290000D01*
G75*
G02*
X177315000Y-26440000I-150000J0D01*
G01*
X177015000Y-26440000D01*
G75*
G02*
X176865000Y-26290000I0J150000D01*
G01*
X176865000Y-24640000D01*
G75*
G02*
X177015000Y-24490000I150000J0D01*
G01*
G37*
G36*
G01*
X178285000Y-24490000D02*
X178585000Y-24490000D01*
G75*
G02*
X178735000Y-24640000I0J-150000D01*
G01*
X178735000Y-26290000D01*
G75*
G02*
X178585000Y-26440000I-150000J0D01*
G01*
X178285000Y-26440000D01*
G75*
G02*
X178135000Y-26290000I0J150000D01*
G01*
X178135000Y-24640000D01*
G75*
G02*
X178285000Y-24490000I150000J0D01*
G01*
G37*
G36*
G01*
X179555000Y-24490000D02*
X179855000Y-24490000D01*
G75*
G02*
X180005000Y-24640000I0J-150000D01*
G01*
X180005000Y-26290000D01*
G75*
G02*
X179855000Y-26440000I-150000J0D01*
G01*
X179555000Y-26440000D01*
G75*
G02*
X179405000Y-26290000I0J150000D01*
G01*
X179405000Y-24640000D01*
G75*
G02*
X179555000Y-24490000I150000J0D01*
G01*
G37*
G36*
G01*
X180825000Y-24490000D02*
X181125000Y-24490000D01*
G75*
G02*
X181275000Y-24640000I0J-150000D01*
G01*
X181275000Y-26290000D01*
G75*
G02*
X181125000Y-26440000I-150000J0D01*
G01*
X180825000Y-26440000D01*
G75*
G02*
X180675000Y-26290000I0J150000D01*
G01*
X180675000Y-24640000D01*
G75*
G02*
X180825000Y-24490000I150000J0D01*
G01*
G37*
G36*
G01*
X182095000Y-24490000D02*
X182395000Y-24490000D01*
G75*
G02*
X182545000Y-24640000I0J-150000D01*
G01*
X182545000Y-26290000D01*
G75*
G02*
X182395000Y-26440000I-150000J0D01*
G01*
X182095000Y-26440000D01*
G75*
G02*
X181945000Y-26290000I0J150000D01*
G01*
X181945000Y-24640000D01*
G75*
G02*
X182095000Y-24490000I150000J0D01*
G01*
G37*
G36*
G01*
X210035000Y-24490000D02*
X210335000Y-24490000D01*
G75*
G02*
X210485000Y-24640000I0J-150000D01*
G01*
X210485000Y-26290000D01*
G75*
G02*
X210335000Y-26440000I-150000J0D01*
G01*
X210035000Y-26440000D01*
G75*
G02*
X209885000Y-26290000I0J150000D01*
G01*
X209885000Y-24640000D01*
G75*
G02*
X210035000Y-24490000I150000J0D01*
G01*
G37*
G36*
G01*
X208765000Y-24490000D02*
X209065000Y-24490000D01*
G75*
G02*
X209215000Y-24640000I0J-150000D01*
G01*
X209215000Y-26290000D01*
G75*
G02*
X209065000Y-26440000I-150000J0D01*
G01*
X208765000Y-26440000D01*
G75*
G02*
X208615000Y-26290000I0J150000D01*
G01*
X208615000Y-24640000D01*
G75*
G02*
X208765000Y-24490000I150000J0D01*
G01*
G37*
G36*
G01*
X207495000Y-24490000D02*
X207795000Y-24490000D01*
G75*
G02*
X207945000Y-24640000I0J-150000D01*
G01*
X207945000Y-26290000D01*
G75*
G02*
X207795000Y-26440000I-150000J0D01*
G01*
X207495000Y-26440000D01*
G75*
G02*
X207345000Y-26290000I0J150000D01*
G01*
X207345000Y-24640000D01*
G75*
G02*
X207495000Y-24490000I150000J0D01*
G01*
G37*
G36*
G01*
X206225000Y-24490000D02*
X206525000Y-24490000D01*
G75*
G02*
X206675000Y-24640000I0J-150000D01*
G01*
X206675000Y-26290000D01*
G75*
G02*
X206525000Y-26440000I-150000J0D01*
G01*
X206225000Y-26440000D01*
G75*
G02*
X206075000Y-26290000I0J150000D01*
G01*
X206075000Y-24640000D01*
G75*
G02*
X206225000Y-24490000I150000J0D01*
G01*
G37*
G36*
G01*
X204955000Y-24490000D02*
X205255000Y-24490000D01*
G75*
G02*
X205405000Y-24640000I0J-150000D01*
G01*
X205405000Y-26290000D01*
G75*
G02*
X205255000Y-26440000I-150000J0D01*
G01*
X204955000Y-26440000D01*
G75*
G02*
X204805000Y-26290000I0J150000D01*
G01*
X204805000Y-24640000D01*
G75*
G02*
X204955000Y-24490000I150000J0D01*
G01*
G37*
G36*
G01*
X203685000Y-24490000D02*
X203985000Y-24490000D01*
G75*
G02*
X204135000Y-24640000I0J-150000D01*
G01*
X204135000Y-26290000D01*
G75*
G02*
X203985000Y-26440000I-150000J0D01*
G01*
X203685000Y-26440000D01*
G75*
G02*
X203535000Y-26290000I0J150000D01*
G01*
X203535000Y-24640000D01*
G75*
G02*
X203685000Y-24490000I150000J0D01*
G01*
G37*
G36*
G01*
X202415000Y-24490000D02*
X202715000Y-24490000D01*
G75*
G02*
X202865000Y-24640000I0J-150000D01*
G01*
X202865000Y-26290000D01*
G75*
G02*
X202715000Y-26440000I-150000J0D01*
G01*
X202415000Y-26440000D01*
G75*
G02*
X202265000Y-26290000I0J150000D01*
G01*
X202265000Y-24640000D01*
G75*
G02*
X202415000Y-24490000I150000J0D01*
G01*
G37*
G36*
G01*
X201145000Y-24490000D02*
X201445000Y-24490000D01*
G75*
G02*
X201595000Y-24640000I0J-150000D01*
G01*
X201595000Y-26290000D01*
G75*
G02*
X201445000Y-26440000I-150000J0D01*
G01*
X201145000Y-26440000D01*
G75*
G02*
X200995000Y-26290000I0J150000D01*
G01*
X200995000Y-24640000D01*
G75*
G02*
X201145000Y-24490000I150000J0D01*
G01*
G37*
G36*
G01*
X201145000Y-29440000D02*
X201445000Y-29440000D01*
G75*
G02*
X201595000Y-29590000I0J-150000D01*
G01*
X201595000Y-31240000D01*
G75*
G02*
X201445000Y-31390000I-150000J0D01*
G01*
X201145000Y-31390000D01*
G75*
G02*
X200995000Y-31240000I0J150000D01*
G01*
X200995000Y-29590000D01*
G75*
G02*
X201145000Y-29440000I150000J0D01*
G01*
G37*
G36*
G01*
X202415000Y-29440000D02*
X202715000Y-29440000D01*
G75*
G02*
X202865000Y-29590000I0J-150000D01*
G01*
X202865000Y-31240000D01*
G75*
G02*
X202715000Y-31390000I-150000J0D01*
G01*
X202415000Y-31390000D01*
G75*
G02*
X202265000Y-31240000I0J150000D01*
G01*
X202265000Y-29590000D01*
G75*
G02*
X202415000Y-29440000I150000J0D01*
G01*
G37*
G36*
G01*
X203685000Y-29440000D02*
X203985000Y-29440000D01*
G75*
G02*
X204135000Y-29590000I0J-150000D01*
G01*
X204135000Y-31240000D01*
G75*
G02*
X203985000Y-31390000I-150000J0D01*
G01*
X203685000Y-31390000D01*
G75*
G02*
X203535000Y-31240000I0J150000D01*
G01*
X203535000Y-29590000D01*
G75*
G02*
X203685000Y-29440000I150000J0D01*
G01*
G37*
G36*
G01*
X204955000Y-29440000D02*
X205255000Y-29440000D01*
G75*
G02*
X205405000Y-29590000I0J-150000D01*
G01*
X205405000Y-31240000D01*
G75*
G02*
X205255000Y-31390000I-150000J0D01*
G01*
X204955000Y-31390000D01*
G75*
G02*
X204805000Y-31240000I0J150000D01*
G01*
X204805000Y-29590000D01*
G75*
G02*
X204955000Y-29440000I150000J0D01*
G01*
G37*
G36*
G01*
X206225000Y-29440000D02*
X206525000Y-29440000D01*
G75*
G02*
X206675000Y-29590000I0J-150000D01*
G01*
X206675000Y-31240000D01*
G75*
G02*
X206525000Y-31390000I-150000J0D01*
G01*
X206225000Y-31390000D01*
G75*
G02*
X206075000Y-31240000I0J150000D01*
G01*
X206075000Y-29590000D01*
G75*
G02*
X206225000Y-29440000I150000J0D01*
G01*
G37*
G36*
G01*
X207495000Y-29440000D02*
X207795000Y-29440000D01*
G75*
G02*
X207945000Y-29590000I0J-150000D01*
G01*
X207945000Y-31240000D01*
G75*
G02*
X207795000Y-31390000I-150000J0D01*
G01*
X207495000Y-31390000D01*
G75*
G02*
X207345000Y-31240000I0J150000D01*
G01*
X207345000Y-29590000D01*
G75*
G02*
X207495000Y-29440000I150000J0D01*
G01*
G37*
G36*
G01*
X208765000Y-29440000D02*
X209065000Y-29440000D01*
G75*
G02*
X209215000Y-29590000I0J-150000D01*
G01*
X209215000Y-31240000D01*
G75*
G02*
X209065000Y-31390000I-150000J0D01*
G01*
X208765000Y-31390000D01*
G75*
G02*
X208615000Y-31240000I0J150000D01*
G01*
X208615000Y-29590000D01*
G75*
G02*
X208765000Y-29440000I150000J0D01*
G01*
G37*
G36*
G01*
X210035000Y-29440000D02*
X210335000Y-29440000D01*
G75*
G02*
X210485000Y-29590000I0J-150000D01*
G01*
X210485000Y-31240000D01*
G75*
G02*
X210335000Y-31390000I-150000J0D01*
G01*
X210035000Y-31390000D01*
G75*
G02*
X209885000Y-31240000I0J150000D01*
G01*
X209885000Y-29590000D01*
G75*
G02*
X210035000Y-29440000I150000J0D01*
G01*
G37*
G36*
G01*
X224640000Y-45315000D02*
X224940000Y-45315000D01*
G75*
G02*
X225090000Y-45465000I0J-150000D01*
G01*
X225090000Y-47115000D01*
G75*
G02*
X224940000Y-47265000I-150000J0D01*
G01*
X224640000Y-47265000D01*
G75*
G02*
X224490000Y-47115000I0J150000D01*
G01*
X224490000Y-45465000D01*
G75*
G02*
X224640000Y-45315000I150000J0D01*
G01*
G37*
G36*
G01*
X223370000Y-45315000D02*
X223670000Y-45315000D01*
G75*
G02*
X223820000Y-45465000I0J-150000D01*
G01*
X223820000Y-47115000D01*
G75*
G02*
X223670000Y-47265000I-150000J0D01*
G01*
X223370000Y-47265000D01*
G75*
G02*
X223220000Y-47115000I0J150000D01*
G01*
X223220000Y-45465000D01*
G75*
G02*
X223370000Y-45315000I150000J0D01*
G01*
G37*
G36*
G01*
X222100000Y-45315000D02*
X222400000Y-45315000D01*
G75*
G02*
X222550000Y-45465000I0J-150000D01*
G01*
X222550000Y-47115000D01*
G75*
G02*
X222400000Y-47265000I-150000J0D01*
G01*
X222100000Y-47265000D01*
G75*
G02*
X221950000Y-47115000I0J150000D01*
G01*
X221950000Y-45465000D01*
G75*
G02*
X222100000Y-45315000I150000J0D01*
G01*
G37*
G36*
G01*
X220830000Y-45315000D02*
X221130000Y-45315000D01*
G75*
G02*
X221280000Y-45465000I0J-150000D01*
G01*
X221280000Y-47115000D01*
G75*
G02*
X221130000Y-47265000I-150000J0D01*
G01*
X220830000Y-47265000D01*
G75*
G02*
X220680000Y-47115000I0J150000D01*
G01*
X220680000Y-45465000D01*
G75*
G02*
X220830000Y-45315000I150000J0D01*
G01*
G37*
G36*
G01*
X219560000Y-45315000D02*
X219860000Y-45315000D01*
G75*
G02*
X220010000Y-45465000I0J-150000D01*
G01*
X220010000Y-47115000D01*
G75*
G02*
X219860000Y-47265000I-150000J0D01*
G01*
X219560000Y-47265000D01*
G75*
G02*
X219410000Y-47115000I0J150000D01*
G01*
X219410000Y-45465000D01*
G75*
G02*
X219560000Y-45315000I150000J0D01*
G01*
G37*
G36*
G01*
X218290000Y-45315000D02*
X218590000Y-45315000D01*
G75*
G02*
X218740000Y-45465000I0J-150000D01*
G01*
X218740000Y-47115000D01*
G75*
G02*
X218590000Y-47265000I-150000J0D01*
G01*
X218290000Y-47265000D01*
G75*
G02*
X218140000Y-47115000I0J150000D01*
G01*
X218140000Y-45465000D01*
G75*
G02*
X218290000Y-45315000I150000J0D01*
G01*
G37*
G36*
G01*
X217020000Y-45315000D02*
X217320000Y-45315000D01*
G75*
G02*
X217470000Y-45465000I0J-150000D01*
G01*
X217470000Y-47115000D01*
G75*
G02*
X217320000Y-47265000I-150000J0D01*
G01*
X217020000Y-47265000D01*
G75*
G02*
X216870000Y-47115000I0J150000D01*
G01*
X216870000Y-45465000D01*
G75*
G02*
X217020000Y-45315000I150000J0D01*
G01*
G37*
G36*
G01*
X215750000Y-45315000D02*
X216050000Y-45315000D01*
G75*
G02*
X216200000Y-45465000I0J-150000D01*
G01*
X216200000Y-47115000D01*
G75*
G02*
X216050000Y-47265000I-150000J0D01*
G01*
X215750000Y-47265000D01*
G75*
G02*
X215600000Y-47115000I0J150000D01*
G01*
X215600000Y-45465000D01*
G75*
G02*
X215750000Y-45315000I150000J0D01*
G01*
G37*
G36*
G01*
X215750000Y-40365000D02*
X216050000Y-40365000D01*
G75*
G02*
X216200000Y-40515000I0J-150000D01*
G01*
X216200000Y-42165000D01*
G75*
G02*
X216050000Y-42315000I-150000J0D01*
G01*
X215750000Y-42315000D01*
G75*
G02*
X215600000Y-42165000I0J150000D01*
G01*
X215600000Y-40515000D01*
G75*
G02*
X215750000Y-40365000I150000J0D01*
G01*
G37*
G36*
G01*
X217020000Y-40365000D02*
X217320000Y-40365000D01*
G75*
G02*
X217470000Y-40515000I0J-150000D01*
G01*
X217470000Y-42165000D01*
G75*
G02*
X217320000Y-42315000I-150000J0D01*
G01*
X217020000Y-42315000D01*
G75*
G02*
X216870000Y-42165000I0J150000D01*
G01*
X216870000Y-40515000D01*
G75*
G02*
X217020000Y-40365000I150000J0D01*
G01*
G37*
G36*
G01*
X218290000Y-40365000D02*
X218590000Y-40365000D01*
G75*
G02*
X218740000Y-40515000I0J-150000D01*
G01*
X218740000Y-42165000D01*
G75*
G02*
X218590000Y-42315000I-150000J0D01*
G01*
X218290000Y-42315000D01*
G75*
G02*
X218140000Y-42165000I0J150000D01*
G01*
X218140000Y-40515000D01*
G75*
G02*
X218290000Y-40365000I150000J0D01*
G01*
G37*
G36*
G01*
X219560000Y-40365000D02*
X219860000Y-40365000D01*
G75*
G02*
X220010000Y-40515000I0J-150000D01*
G01*
X220010000Y-42165000D01*
G75*
G02*
X219860000Y-42315000I-150000J0D01*
G01*
X219560000Y-42315000D01*
G75*
G02*
X219410000Y-42165000I0J150000D01*
G01*
X219410000Y-40515000D01*
G75*
G02*
X219560000Y-40365000I150000J0D01*
G01*
G37*
G36*
G01*
X220830000Y-40365000D02*
X221130000Y-40365000D01*
G75*
G02*
X221280000Y-40515000I0J-150000D01*
G01*
X221280000Y-42165000D01*
G75*
G02*
X221130000Y-42315000I-150000J0D01*
G01*
X220830000Y-42315000D01*
G75*
G02*
X220680000Y-42165000I0J150000D01*
G01*
X220680000Y-40515000D01*
G75*
G02*
X220830000Y-40365000I150000J0D01*
G01*
G37*
G36*
G01*
X222100000Y-40365000D02*
X222400000Y-40365000D01*
G75*
G02*
X222550000Y-40515000I0J-150000D01*
G01*
X222550000Y-42165000D01*
G75*
G02*
X222400000Y-42315000I-150000J0D01*
G01*
X222100000Y-42315000D01*
G75*
G02*
X221950000Y-42165000I0J150000D01*
G01*
X221950000Y-40515000D01*
G75*
G02*
X222100000Y-40365000I150000J0D01*
G01*
G37*
G36*
G01*
X223370000Y-40365000D02*
X223670000Y-40365000D01*
G75*
G02*
X223820000Y-40515000I0J-150000D01*
G01*
X223820000Y-42165000D01*
G75*
G02*
X223670000Y-42315000I-150000J0D01*
G01*
X223370000Y-42315000D01*
G75*
G02*
X223220000Y-42165000I0J150000D01*
G01*
X223220000Y-40515000D01*
G75*
G02*
X223370000Y-40365000I150000J0D01*
G01*
G37*
G36*
G01*
X224640000Y-40365000D02*
X224940000Y-40365000D01*
G75*
G02*
X225090000Y-40515000I0J-150000D01*
G01*
X225090000Y-42165000D01*
G75*
G02*
X224940000Y-42315000I-150000J0D01*
G01*
X224640000Y-42315000D01*
G75*
G02*
X224490000Y-42165000I0J150000D01*
G01*
X224490000Y-40515000D01*
G75*
G02*
X224640000Y-40365000I150000J0D01*
G01*
G37*
G36*
G01*
X210035000Y-40238000D02*
X210335000Y-40238000D01*
G75*
G02*
X210485000Y-40388000I0J-150000D01*
G01*
X210485000Y-42038000D01*
G75*
G02*
X210335000Y-42188000I-150000J0D01*
G01*
X210035000Y-42188000D01*
G75*
G02*
X209885000Y-42038000I0J150000D01*
G01*
X209885000Y-40388000D01*
G75*
G02*
X210035000Y-40238000I150000J0D01*
G01*
G37*
G36*
G01*
X208765000Y-40238000D02*
X209065000Y-40238000D01*
G75*
G02*
X209215000Y-40388000I0J-150000D01*
G01*
X209215000Y-42038000D01*
G75*
G02*
X209065000Y-42188000I-150000J0D01*
G01*
X208765000Y-42188000D01*
G75*
G02*
X208615000Y-42038000I0J150000D01*
G01*
X208615000Y-40388000D01*
G75*
G02*
X208765000Y-40238000I150000J0D01*
G01*
G37*
G36*
G01*
X207495000Y-40238000D02*
X207795000Y-40238000D01*
G75*
G02*
X207945000Y-40388000I0J-150000D01*
G01*
X207945000Y-42038000D01*
G75*
G02*
X207795000Y-42188000I-150000J0D01*
G01*
X207495000Y-42188000D01*
G75*
G02*
X207345000Y-42038000I0J150000D01*
G01*
X207345000Y-40388000D01*
G75*
G02*
X207495000Y-40238000I150000J0D01*
G01*
G37*
G36*
G01*
X206225000Y-40238000D02*
X206525000Y-40238000D01*
G75*
G02*
X206675000Y-40388000I0J-150000D01*
G01*
X206675000Y-42038000D01*
G75*
G02*
X206525000Y-42188000I-150000J0D01*
G01*
X206225000Y-42188000D01*
G75*
G02*
X206075000Y-42038000I0J150000D01*
G01*
X206075000Y-40388000D01*
G75*
G02*
X206225000Y-40238000I150000J0D01*
G01*
G37*
G36*
G01*
X204955000Y-40238000D02*
X205255000Y-40238000D01*
G75*
G02*
X205405000Y-40388000I0J-150000D01*
G01*
X205405000Y-42038000D01*
G75*
G02*
X205255000Y-42188000I-150000J0D01*
G01*
X204955000Y-42188000D01*
G75*
G02*
X204805000Y-42038000I0J150000D01*
G01*
X204805000Y-40388000D01*
G75*
G02*
X204955000Y-40238000I150000J0D01*
G01*
G37*
G36*
G01*
X203685000Y-40238000D02*
X203985000Y-40238000D01*
G75*
G02*
X204135000Y-40388000I0J-150000D01*
G01*
X204135000Y-42038000D01*
G75*
G02*
X203985000Y-42188000I-150000J0D01*
G01*
X203685000Y-42188000D01*
G75*
G02*
X203535000Y-42038000I0J150000D01*
G01*
X203535000Y-40388000D01*
G75*
G02*
X203685000Y-40238000I150000J0D01*
G01*
G37*
G36*
G01*
X202415000Y-40238000D02*
X202715000Y-40238000D01*
G75*
G02*
X202865000Y-40388000I0J-150000D01*
G01*
X202865000Y-42038000D01*
G75*
G02*
X202715000Y-42188000I-150000J0D01*
G01*
X202415000Y-42188000D01*
G75*
G02*
X202265000Y-42038000I0J150000D01*
G01*
X202265000Y-40388000D01*
G75*
G02*
X202415000Y-40238000I150000J0D01*
G01*
G37*
G36*
G01*
X201145000Y-40238000D02*
X201445000Y-40238000D01*
G75*
G02*
X201595000Y-40388000I0J-150000D01*
G01*
X201595000Y-42038000D01*
G75*
G02*
X201445000Y-42188000I-150000J0D01*
G01*
X201145000Y-42188000D01*
G75*
G02*
X200995000Y-42038000I0J150000D01*
G01*
X200995000Y-40388000D01*
G75*
G02*
X201145000Y-40238000I150000J0D01*
G01*
G37*
G36*
G01*
X201145000Y-45188000D02*
X201445000Y-45188000D01*
G75*
G02*
X201595000Y-45338000I0J-150000D01*
G01*
X201595000Y-46988000D01*
G75*
G02*
X201445000Y-47138000I-150000J0D01*
G01*
X201145000Y-47138000D01*
G75*
G02*
X200995000Y-46988000I0J150000D01*
G01*
X200995000Y-45338000D01*
G75*
G02*
X201145000Y-45188000I150000J0D01*
G01*
G37*
G36*
G01*
X202415000Y-45188000D02*
X202715000Y-45188000D01*
G75*
G02*
X202865000Y-45338000I0J-150000D01*
G01*
X202865000Y-46988000D01*
G75*
G02*
X202715000Y-47138000I-150000J0D01*
G01*
X202415000Y-47138000D01*
G75*
G02*
X202265000Y-46988000I0J150000D01*
G01*
X202265000Y-45338000D01*
G75*
G02*
X202415000Y-45188000I150000J0D01*
G01*
G37*
G36*
G01*
X203685000Y-45188000D02*
X203985000Y-45188000D01*
G75*
G02*
X204135000Y-45338000I0J-150000D01*
G01*
X204135000Y-46988000D01*
G75*
G02*
X203985000Y-47138000I-150000J0D01*
G01*
X203685000Y-47138000D01*
G75*
G02*
X203535000Y-46988000I0J150000D01*
G01*
X203535000Y-45338000D01*
G75*
G02*
X203685000Y-45188000I150000J0D01*
G01*
G37*
G36*
G01*
X204955000Y-45188000D02*
X205255000Y-45188000D01*
G75*
G02*
X205405000Y-45338000I0J-150000D01*
G01*
X205405000Y-46988000D01*
G75*
G02*
X205255000Y-47138000I-150000J0D01*
G01*
X204955000Y-47138000D01*
G75*
G02*
X204805000Y-46988000I0J150000D01*
G01*
X204805000Y-45338000D01*
G75*
G02*
X204955000Y-45188000I150000J0D01*
G01*
G37*
G36*
G01*
X206225000Y-45188000D02*
X206525000Y-45188000D01*
G75*
G02*
X206675000Y-45338000I0J-150000D01*
G01*
X206675000Y-46988000D01*
G75*
G02*
X206525000Y-47138000I-150000J0D01*
G01*
X206225000Y-47138000D01*
G75*
G02*
X206075000Y-46988000I0J150000D01*
G01*
X206075000Y-45338000D01*
G75*
G02*
X206225000Y-45188000I150000J0D01*
G01*
G37*
G36*
G01*
X207495000Y-45188000D02*
X207795000Y-45188000D01*
G75*
G02*
X207945000Y-45338000I0J-150000D01*
G01*
X207945000Y-46988000D01*
G75*
G02*
X207795000Y-47138000I-150000J0D01*
G01*
X207495000Y-47138000D01*
G75*
G02*
X207345000Y-46988000I0J150000D01*
G01*
X207345000Y-45338000D01*
G75*
G02*
X207495000Y-45188000I150000J0D01*
G01*
G37*
G36*
G01*
X208765000Y-45188000D02*
X209065000Y-45188000D01*
G75*
G02*
X209215000Y-45338000I0J-150000D01*
G01*
X209215000Y-46988000D01*
G75*
G02*
X209065000Y-47138000I-150000J0D01*
G01*
X208765000Y-47138000D01*
G75*
G02*
X208615000Y-46988000I0J150000D01*
G01*
X208615000Y-45338000D01*
G75*
G02*
X208765000Y-45188000I150000J0D01*
G01*
G37*
G36*
G01*
X210035000Y-45188000D02*
X210335000Y-45188000D01*
G75*
G02*
X210485000Y-45338000I0J-150000D01*
G01*
X210485000Y-46988000D01*
G75*
G02*
X210335000Y-47138000I-150000J0D01*
G01*
X210035000Y-47138000D01*
G75*
G02*
X209885000Y-46988000I0J150000D01*
G01*
X209885000Y-45338000D01*
G75*
G02*
X210035000Y-45188000I150000J0D01*
G01*
G37*
M02*
